<svg width="60" height="60" viewBox="0 0 60 60" fill="none" xmlns="http://www.w3.org/2000/svg">
<path fill-rule="evenodd" clip-rule="evenodd" d="M34.9824 16.7417L42.9372 8.78674L50.8922 16.7417L48.2407 19.3933L44.8122 15.965V44.0349L48.2407 40.6064L50.8922 43.2582L42.9372 51.2132L34.9824 43.2582L37.6339 40.6064L41.0622 44.0349V15.965L37.6339 19.3933L34.9824 16.7417Z" fill="#888888"/>
<path fill-rule="evenodd" clip-rule="evenodd" d="M9.375 11.25L11.25 9.375H30L31.875 11.25V48.75L30 50.625H11.25L9.375 48.75V11.25ZM13.125 13.125V46.875H28.125V43.125H20.625V39.375H28.125V35.625H20.625V31.875H28.125V28.125H18.75V24.375H28.125V20.625H20.625V16.875H28.125V13.125H13.125Z" fill="#888888"/>
</svg>
