<svg width="22" height="16" viewBox="0 0 22 16" fill="none" xmlns="http://www.w3.org/2000/svg">
<path d="M4.46689 0.392074C4.75949 0.685259 4.75902 1.16013 4.46583 1.45273C2.78722 3.128 1.75 5.44218 1.75 8.00003C1.75 10.5878 2.81163 12.9262 4.52503 14.6059C4.82082 14.8959 4.82554 15.3707 4.53557 15.6665C4.24561 15.9623 3.77076 15.967 3.47497 15.677C1.48564 13.7269 0.25 11.0071 0.25 8.00003C0.25 5.02783 1.45721 2.33616 3.40623 0.391016C3.69941 0.0984154 4.17429 0.0988888 4.46689 0.392074Z" fill="#0A527C"/>
<path d="M17.6164 0.464458C17.9122 0.17449 18.387 0.17921 18.677 0.474999C20.5771 2.41326 21.75 5.07043 21.75 8.00003C21.75 10.9645 20.5491 13.6499 18.609 15.5938C18.3164 15.887 17.8415 15.8875 17.5484 15.5949C17.2552 15.3023 17.2547 14.8274 17.5473 14.5342C19.2182 12.86 20.25 10.5512 20.25 8.00003C20.25 5.47873 19.2422 3.1943 17.6059 1.52507C17.3159 1.22928 17.3206 0.754426 17.6164 0.464458Z" fill="#0A527C"/>
<path d="M7.30923 3.4876C7.59226 3.79004 7.57652 4.26465 7.27408 4.54768C6.32517 5.43567 5.75 6.65026 5.75 7.98226C5.75 9.32975 6.33869 10.5573 7.30756 11.4479C7.61251 11.7282 7.63248 12.2027 7.35216 12.5076C7.07185 12.8126 6.59739 12.8325 6.29244 12.5522C5.03967 11.4007 4.25 9.78243 4.25 7.98226C4.25 6.20302 5.02148 4.60131 6.24916 3.45245C6.5516 3.16942 7.02621 3.18516 7.30923 3.4876Z" fill="#0A527C"/>
<path d="M14.7429 3.52562C15.0292 3.22629 15.5039 3.21574 15.8033 3.50205C17.0005 4.64717 17.75 6.22861 17.75 7.98226C17.75 9.75683 16.9825 11.3549 15.7604 12.5031C15.4586 12.7867 14.9839 12.7719 14.7003 12.47C14.4167 12.1682 14.4315 11.6935 14.7333 11.4099C15.6778 10.5225 16.25 9.3108 16.25 7.98226C16.25 6.66921 15.6911 5.47049 14.7664 4.58602C14.4671 4.29971 14.4566 3.82495 14.7429 3.52562Z" fill="#0A527C"/>
<path fill-rule="evenodd" clip-rule="evenodd" d="M11 5.25006C9.48122 5.25006 8.25 6.48128 8.25 8.00006C8.25 9.51884 9.48122 10.7501 11 10.7501C12.5188 10.7501 13.75 9.51884 13.75 8.00006C13.75 6.48128 12.5188 5.25006 11 5.25006ZM9.75 8.00006C9.75 7.30971 10.3096 6.75006 11 6.75006C11.6904 6.75006 12.25 7.30971 12.25 8.00006C12.25 8.69042 11.6904 9.25006 11 9.25006C10.3096 9.25006 9.75 8.69042 9.75 8.00006Z" fill="#0A527C"/>
</svg>
