<svg width="46" height="58" viewBox="0 0 46 58" fill="none" xmlns="http://www.w3.org/2000/svg">
<path d="M45.3301 40.6599C42.4801 39.1099 40.2101 35.7899 38.7001 30.1599C37.8301 26.9099 37.4401 23.5398 37.4401 20.1798V15.7699C37.4401 11.4799 34.1701 7.89985 29.9101 7.49985L25.9001 7.12985V3.25984C25.9001 1.50984 24.4801 0.0898438 22.7301 0.0898438C20.9801 0.0898438 19.5601 1.50984 19.5601 3.25984V7.12985L15.5501 7.49985C11.2901 7.88985 8.02011 11.4799 8.02011 15.7699V20.1798C8.02011 23.5498 7.64012 26.9099 6.76012 30.1599C5.25012 35.7899 2.98011 39.1099 0.130112 40.6599H0.120117V44.6798H45.3301V40.6599Z" fill="#0A527C"/>
<path d="M29.0801 51.3101C29.0801 54.8101 26.2402 57.6501 22.7402 57.6501C19.2402 57.6501 16.4001 54.8101 16.4001 51.3101H29.0801Z" fill="#0A527C"/>
</svg>
