<svg width="47" height="42" viewBox="0 0 47 42" fill="none" xmlns="http://www.w3.org/2000/svg">
<path d="M23.3301 38.8499C23.1201 38.8499 22.9101 38.7999 22.7201 38.6899C22.5201 38.5699 17.6601 35.7499 12.7301 31.4999C9.81007 28.9799 7.48008 26.4899 5.80008 24.0799C3.63007 20.9699 2.54008 17.9699 2.56008 15.1699C2.58008 11.9199 3.75011 8.85993 5.84011 6.55993C7.97011 4.21993 10.8101 2.92993 13.8401 2.92993C17.7201 2.92993 21.2801 5.10993 23.3201 8.54993C25.3601 5.09993 28.9201 2.92993 32.8001 2.92993C35.6601 2.92993 38.4001 4.08993 40.4901 6.19993C42.7901 8.51993 44.1 11.7899 44.08 15.1799C44.06 17.9699 42.9501 20.9599 40.7801 24.0699C39.1001 26.4799 36.7701 28.9699 33.8601 31.4899C28.9501 35.7399 24.1301 38.5599 23.9301 38.6699C23.7501 38.7999 23.5401 38.8499 23.3301 38.8499Z" stroke="#0A527C" stroke-width="5" stroke-miterlimit="10"/>
</svg>
