<svg width="57" height="63" viewBox="0 0 57 63" fill="none" xmlns="http://www.w3.org/2000/svg">
<g clip-path="url(#clip0_310_1820)">
<path d="M24.5 2.3094C26.9752 0.880338 30.0248 0.880339 32.5 2.3094L52.2128 13.6906C54.688 15.1197 56.2128 17.7607 56.2128 20.6188V43.3812C56.2128 46.2393 54.688 48.8803 52.2128 50.3094L32.5 61.6906C30.0248 63.1197 26.9752 63.1197 24.5 61.6906L4.78719 50.3094C2.31198 48.8803 0.787188 46.2393 0.787188 43.3812V20.6188C0.787188 17.7607 2.31198 15.1197 4.78719 13.6906L24.5 2.3094Z" fill="#00031B"/>
<path fill-rule="evenodd" clip-rule="evenodd" d="M31.9471 17.9999H34.5502C35.6618 17.9998 36.5888 17.9998 37.3246 18.104C38.1013 18.2139 38.8026 18.4557 39.3661 19.0489C39.9296 19.642 40.1593 20.3802 40.2638 21.1978C40.3627 21.9724 40.3627 22.9481 40.3626 24.1182V44.0464H40.6719C41.1844 44.0464 41.5998 44.4837 41.5998 45.0231C41.5998 45.5626 41.1844 45.9999 40.6719 45.9999H15.9277C15.4153 45.9999 14.9998 45.5626 14.9998 45.0231C14.9998 44.4837 15.4153 44.0464 15.9277 44.0464H16.237L16.237 28.0252C16.237 26.8551 16.237 25.8793 16.3359 25.1047C16.4403 24.2872 16.67 23.549 17.2336 22.9558C17.7971 22.3627 18.4983 22.1209 19.275 22.0109C20.0109 21.9068 20.9378 21.9068 22.0494 21.9069L26.1693 21.9069C26.233 20.7684 26.4324 19.7845 27.1312 19.0489C27.6947 18.4557 28.396 18.2139 29.1727 18.104C29.9086 17.9998 30.8355 17.9998 31.9471 17.9999ZM27.0711 23.8603H27.0663H27.0626H22.1138C20.9211 23.8603 20.1199 23.8624 19.5223 23.947C18.9514 24.0278 18.707 24.1674 18.5458 24.3372C18.3846 24.5069 18.2519 24.7641 18.1752 25.365C18.0948 25.9941 18.0929 26.8375 18.0929 28.0929V44.0464H23.6603V41.1162C23.6603 40.5767 24.0757 40.1394 24.5882 40.1394C25.1007 40.1394 25.5161 40.5767 25.5161 41.1162V44.0464H31.0835V28.0929C31.0835 26.8375 31.0816 25.9941 31.0012 25.365C30.9245 24.7641 30.7918 24.5069 30.6306 24.3372C30.4694 24.1674 30.225 24.0278 29.6541 23.947C29.0579 23.8626 28.2591 23.8604 27.0711 23.8603ZM32.9394 44.0464L32.9394 28.0252C32.9394 26.8551 32.9394 25.8793 32.8405 25.1047C32.7361 24.2872 32.5064 23.549 31.9428 22.9558C31.3793 22.3627 30.6781 22.1209 29.9014 22.0109C29.3751 21.9365 28.7511 21.9153 28.0318 21.9092C28.0939 20.9981 28.2301 20.6548 28.4435 20.4302C28.6047 20.2605 28.8491 20.1208 29.42 20.04C30.0176 19.9554 30.8188 19.9534 32.0115 19.9534H34.4859C35.6786 19.9534 36.4797 19.9554 37.0773 20.04C37.6483 20.1208 37.8926 20.2605 38.0538 20.4302C38.2151 20.5999 38.3477 20.8571 38.4245 21.4581C38.5048 22.0871 38.5068 22.9305 38.5068 24.1859V44.0464H32.9394ZM19.9487 26.7906C19.9487 26.2511 20.3641 25.8138 20.8766 25.8138H28.2998C28.8123 25.8138 29.2277 26.2511 29.2277 26.7906C29.2277 27.33 28.8123 27.7673 28.2998 27.7673H20.8766C20.3641 27.7673 19.9487 27.33 19.9487 26.7906ZM19.9487 30.6976C19.9487 30.1581 20.3641 29.7208 20.8766 29.7208H28.2998C28.8123 29.7208 29.2277 30.1581 29.2277 30.6976C29.2277 31.237 28.8123 31.6743 28.2998 31.6743H20.8766C20.3641 31.6743 19.9487 31.237 19.9487 30.6976ZM19.9487 34.6045C19.9487 34.0651 20.3641 33.6278 20.8766 33.6278H28.2998C28.8123 33.6278 29.2277 34.0651 29.2277 34.6045C29.2277 35.144 28.8123 35.5813 28.2998 35.5813H20.8766C20.3641 35.5813 19.9487 35.144 19.9487 34.6045Z" fill="white"/>
</g>
<defs>
<clipPath id="clip0_310_1820">
<rect width="57" height="63" fill="white"/>
</clipPath>
</defs>
</svg>
