<svg width="32" height="32" viewBox="0 0 32 32" fill="none" xmlns="http://www.w3.org/2000/svg">
<path d="M17.5999 18.8C17.1999 19.2 16.7999 19.8 16.4999 20.3C14.6999 18.9 13.0999 17.2 11.6999 15.5C12.2999 15.2 12.7999 14.8 13.1999 14.4C15.1999 12.4 14.4999 9.80002 12.4999 7.80002C10.4999 5.80002 7.99989 5.00002 5.89989 7.10002C3.79989 9.20002 3.59989 12.8 5.19989 15.1C8.09989 19.5 12.4999 23.9 16.8999 26.8C19.2999 28.4 22.8999 28.1 24.8999 26.1C26.8999 24.1 26.1999 21.5 24.1999 19.5C22.1999 17.5 19.5999 16.7 17.5999 18.8Z" stroke="black" stroke-width="2" stroke-miterlimit="10" stroke-linejoin="round"/>
<path d="M27.9 13.9C27.9 8.4 23.5 4 18 4" stroke="black" stroke-width="2" stroke-miterlimit="10" stroke-linecap="round" stroke-linejoin="round"/>
<path d="M23.0001 13.7C23.0001 11.1 20.8001 9 18.1001 9" stroke="black" stroke-width="2" stroke-miterlimit="10" stroke-linecap="round" stroke-linejoin="round"/>
</svg>
