<svg width="16" height="16" viewBox="0 0 16 16" fill="none" xmlns="http://www.w3.org/2000/svg">
<path d="M14.6667 14.6667L1.33337 14.6667" stroke="#888888" stroke-linecap="round"/>
<path d="M2 14.6667V7.56483C2 6.99356 2.2443 6.44955 2.67127 6.07001L6.67127 2.51446C7.42904 1.84088 8.57096 1.84088 9.32873 2.51446L13.3287 6.07001C13.7557 6.44955 14 6.99356 14 7.56483V14.6667" stroke="#888888" stroke-linecap="round"/>
<path d="M6.66663 6H9.33329" stroke="#888888" stroke-linecap="round"/>
<path d="M6 10.3333H10" stroke="#888888" stroke-linecap="round"/>
<path d="M6 12.3333H10" stroke="#888888" stroke-linecap="round"/>
<path d="M12 14.6667V10.6667C12 9.40959 12 8.78105 11.6095 8.39052C11.219 8 10.5904 8 9.33333 8H6.66667C5.40959 8 4.78105 8 4.39052 8.39052C4 8.78105 4 9.40959 4 10.6667V14.6667" stroke="#888888"/>
</svg>
