<svg width="22" height="22" viewBox="0 0 22 22" fill="none" xmlns="http://www.w3.org/2000/svg">
<path fill-rule="evenodd" clip-rule="evenodd" d="M8.94358 0.25L9 0.250001C9.41421 0.250001 9.75 0.585787 9.75 1C9.75 1.41421 9.41421 1.75 9 1.75C7.09318 1.75 5.73851 1.75159 4.71085 1.88976C3.70476 2.02502 3.12511 2.27869 2.7019 2.7019C2.27869 3.12511 2.02502 3.70476 1.88976 4.71085C1.75159 5.73851 1.75 7.09318 1.75 9C1.75 9.41421 1.41421 9.75 1 9.75C0.585787 9.75 0.250001 9.41421 0.250001 9L0.25 8.94358C0.249984 7.10582 0.249972 5.65019 0.403135 4.51098C0.560763 3.33856 0.89288 2.38961 1.64124 1.64124C2.38961 0.89288 3.33856 0.560763 4.51098 0.403135C5.65019 0.249972 7.10582 0.249984 8.94358 0.25ZM17.2892 1.88976C16.2615 1.75159 14.9068 1.75 13 1.75C12.5858 1.75 12.25 1.41421 12.25 1C12.25 0.585787 12.5858 0.250001 13 0.250001L13.0564 0.25C14.8942 0.249984 16.3498 0.249972 17.489 0.403135C18.6614 0.560763 19.6104 0.89288 20.3588 1.64124C21.1071 2.38961 21.4392 3.33856 21.5969 4.51098C21.75 5.65019 21.75 7.10583 21.75 8.94359V9C21.75 9.41421 21.4142 9.75 21 9.75C20.5858 9.75 20.25 9.41421 20.25 9C20.25 7.09318 20.2484 5.73851 20.1102 4.71085C19.975 3.70476 19.7213 3.12511 19.2981 2.7019C18.8749 2.27869 18.2952 2.02502 17.2892 1.88976ZM8.49734 5.27992C8.28661 5.25159 7.99261 5.25 7.5 5.25C6.77169 5.25 6.30091 5.25159 5.95403 5.29823C5.62872 5.34197 5.52676 5.41258 5.46967 5.46967C5.41258 5.52676 5.34197 5.62872 5.29823 5.95403C5.25159 6.30091 5.25 6.77169 5.25 7.5C5.25 7.99261 5.25159 8.28661 5.27992 8.49734C5.29291 8.59389 5.3082 8.64226 5.31716 8.66404C5.31923 8.66908 5.32085 8.6724 5.32186 8.67433L5.32324 8.67676L5.32567 8.67814C5.3276 8.67915 5.33092 8.68077 5.33597 8.68284C5.35775 8.6918 5.40611 8.70709 5.50266 8.72008C5.71339 8.74841 6.00739 8.75 6.5 8.75H7.5C7.99261 8.75 8.28661 8.74841 8.49734 8.72008C8.59389 8.70709 8.64226 8.6918 8.66404 8.68284C8.66908 8.68077 8.6724 8.67915 8.67433 8.67814L8.67676 8.67676L8.67814 8.67433C8.67915 8.6724 8.68077 8.66908 8.68284 8.66404C8.6918 8.64226 8.70709 8.59389 8.72008 8.49734C8.74841 8.28661 8.75 7.99261 8.75 7.5V6.5C8.75 6.00739 8.74841 5.71339 8.72008 5.50266C8.70709 5.40611 8.6918 5.35775 8.68284 5.33597L8.68108 5.33183C8.67984 5.32903 8.67814 5.32567 8.67814 5.32567L8.67676 5.32324L8.67433 5.32186C8.6724 5.32085 8.66908 5.31923 8.66404 5.31716C8.64226 5.3082 8.59389 5.29291 8.49734 5.27992ZM8.69721 3.7933C9.05269 3.84109 9.42841 3.95354 9.73744 4.26256C10.0465 4.57159 10.1589 4.94731 10.2067 5.30279C10.2501 5.62561 10.2501 6.02244 10.25 6.45526C10.25 6.47013 10.25 6.48504 10.25 6.5V7.5C10.25 7.51496 10.25 7.52987 10.25 7.54474C10.2501 7.97756 10.2501 8.3744 10.2067 8.69721C10.1589 9.05269 10.0465 9.42841 9.73744 9.73744C9.42841 10.0465 9.05269 10.1589 8.69721 10.2067C8.3744 10.2501 7.97756 10.2501 7.54474 10.25C7.52987 10.25 7.51496 10.25 7.5 10.25H6.5C6.48504 10.25 6.47013 10.25 6.45526 10.25C6.02244 10.2501 5.62561 10.2501 5.30279 10.2067C4.94731 10.1589 4.57159 10.0465 4.26256 9.73744C3.95354 9.42841 3.84109 9.05269 3.7933 8.69721C3.7499 8.3744 3.74995 7.97757 3.75 7.54475C3.75 7.52988 3.75 7.51496 3.75 7.5L3.75 7.45062C3.74996 6.78576 3.74993 6.2129 3.81161 5.75416C3.87771 5.26252 4.02676 4.79126 4.40901 4.40901C4.79126 4.02676 5.26252 3.87771 5.75416 3.81161C6.2129 3.74993 6.78576 3.74996 7.45062 3.75L7.5 3.75C7.51496 3.75 7.52988 3.75 7.54475 3.75C7.97757 3.74995 8.3744 3.7499 8.69721 3.7933ZM14.4553 3.75L14.5494 3.75C15.2142 3.74996 15.7871 3.74993 16.2458 3.81161C16.7375 3.87771 17.2087 4.02676 17.591 4.40901C17.9732 4.79126 18.1223 5.26252 18.1884 5.75416C18.2501 6.2129 18.25 6.78577 18.25 7.45063L18.25 7.54475C18.2501 7.97756 18.2501 8.3744 18.2067 8.69721C18.1589 9.05269 18.0465 9.42841 17.7374 9.73744C17.4284 10.0465 17.0527 10.1589 16.6972 10.2067C16.3744 10.2501 15.9776 10.2501 15.5447 10.25H14.4553C14.0224 10.2501 13.6256 10.2501 13.3028 10.2067C12.9473 10.1589 12.5716 10.0465 12.2626 9.73744C11.9535 9.42841 11.8411 9.05269 11.7933 8.69721C11.7499 8.3744 11.7499 7.97756 11.75 7.54474V6.45526C11.7499 6.02244 11.7499 5.62561 11.7933 5.30279C11.8411 4.94731 11.9535 4.57159 12.2626 4.26256C12.5716 3.95354 12.9473 3.84109 13.3028 3.7933C13.6256 3.7499 14.0224 3.74995 14.4553 3.75ZM13.3257 5.32186L13.3232 5.32324L13.3219 5.32567C13.3209 5.3276 13.3192 5.33092 13.3172 5.33597C13.3082 5.35775 13.2929 5.40611 13.2799 5.50266C13.2516 5.71339 13.25 6.00739 13.25 6.5V7.5C13.25 7.99261 13.2516 8.28661 13.2799 8.49734C13.2929 8.59389 13.3082 8.64226 13.3172 8.66404C13.3192 8.66908 13.3209 8.6724 13.3219 8.67433L13.3232 8.67676L13.3257 8.67814C13.3276 8.67915 13.3309 8.68077 13.336 8.68284C13.3577 8.6918 13.4061 8.70709 13.5027 8.72008C13.7134 8.74841 14.0074 8.75 14.5 8.75H15.5C15.9926 8.75 16.2866 8.74841 16.4973 8.72008C16.5939 8.70709 16.6423 8.6918 16.664 8.68284C16.6691 8.68077 16.6724 8.67915 16.6743 8.67814L16.6768 8.67676L16.6781 8.67433C16.6791 8.6724 16.6808 8.66908 16.6828 8.66404C16.6918 8.64226 16.7071 8.5939 16.7201 8.49734C16.7484 8.28661 16.75 7.99261 16.75 7.5C16.75 6.77169 16.7484 6.30091 16.7018 5.95403C16.658 5.62872 16.5874 5.52676 16.5303 5.46967C16.4732 5.41258 16.3713 5.34197 16.046 5.29823C15.6991 5.25159 15.2283 5.25 14.5 5.25C14.0074 5.25 13.7134 5.25159 13.5027 5.27992C13.4061 5.29291 13.3577 5.3082 13.336 5.31716L13.3313 5.31916C13.3288 5.32029 13.3257 5.32186 13.3257 5.32186ZM6.45526 11.75H7.54474C7.97756 11.7499 8.3744 11.7499 8.69721 11.7933C9.05269 11.8411 9.42841 11.9535 9.73744 12.2626C10.0465 12.5716 10.1589 12.9473 10.2067 13.3028C10.2501 13.6256 10.2501 14.0224 10.25 14.4553V15.5447C10.2501 15.9776 10.2501 16.3744 10.2067 16.6972C10.1589 17.0527 10.0465 17.4284 9.73744 17.7374C9.42841 18.0465 9.05269 18.1589 8.69721 18.2067C8.3744 18.2501 7.97756 18.2501 7.54475 18.25L7.45063 18.25C6.78577 18.25 6.2129 18.2501 5.75416 18.1884C5.26252 18.1223 4.79126 17.9732 4.40901 17.591C4.02676 17.2087 3.87771 16.7375 3.81161 16.2458C3.74993 15.7871 3.74996 15.2142 3.75 14.5494L3.75 14.4553C3.74995 14.0224 3.7499 13.6256 3.7933 13.3028C3.84109 12.9473 3.95354 12.5716 4.26256 12.2626C4.57159 11.9535 4.94731 11.8411 5.30279 11.7933C5.62561 11.7499 6.02244 11.7499 6.45526 11.75ZM5.32567 13.3219L5.32324 13.3232L5.32186 13.3257C5.32085 13.3276 5.31923 13.3309 5.31716 13.336C5.3082 13.3577 5.29291 13.4061 5.27992 13.5027C5.25159 13.7134 5.25 14.0074 5.25 14.5C5.25 15.2283 5.25159 15.6991 5.29823 16.046C5.34197 16.3713 5.41258 16.4732 5.46967 16.5303C5.52676 16.5874 5.62872 16.658 5.95403 16.7018C6.30091 16.7484 6.77169 16.75 7.5 16.75C7.99261 16.75 8.28661 16.7484 8.49734 16.7201C8.5939 16.7071 8.64226 16.6918 8.66404 16.6828C8.66908 16.6808 8.6724 16.6791 8.67433 16.6781L8.67676 16.6768L8.67814 16.6743C8.67915 16.6724 8.68077 16.6691 8.68284 16.664C8.6918 16.6423 8.70709 16.5939 8.72008 16.4973C8.74841 16.2866 8.75 15.9926 8.75 15.5V14.5C8.75 14.0074 8.74841 13.7134 8.72008 13.5027C8.70709 13.4061 8.6918 13.3577 8.68284 13.336C8.68077 13.3309 8.67915 13.3276 8.67814 13.3257L8.67676 13.3232L8.67433 13.3219C8.6724 13.3209 8.66908 13.3192 8.66404 13.3172C8.64226 13.3082 8.59389 13.2929 8.49734 13.2799C8.28661 13.2516 7.99261 13.25 7.5 13.25H6.5C6.00739 13.25 5.71339 13.2516 5.50266 13.2799C5.40611 13.2929 5.35775 13.3082 5.33597 13.3172C5.33092 13.3192 5.3276 13.3209 5.32567 13.3219ZM14.4553 11.75H15.5447C15.9776 11.7499 16.3744 11.7499 16.6972 11.7933C17.0527 11.8411 17.4284 11.9535 17.7374 12.2626C18.0465 12.5716 18.1589 12.9473 18.2067 13.3028C18.2501 13.6256 18.2501 14.0224 18.25 14.4553L18.25 14.5494C18.25 15.2142 18.2501 15.7871 18.1884 16.2458C18.1223 16.7375 17.9732 17.2087 17.591 17.591C17.2087 17.9732 16.7375 18.1223 16.2458 18.1884C15.7871 18.2501 15.2142 18.25 14.5494 18.25L14.4553 18.25C14.0224 18.2501 13.6256 18.2501 13.3028 18.2067C12.9473 18.1589 12.5716 18.0465 12.2626 17.7374C11.9535 17.4284 11.8411 17.0527 11.7933 16.6972C11.7499 16.3744 11.7499 15.9776 11.75 15.5447V14.4553C11.7499 14.0224 11.7499 13.6256 11.7933 13.3028C11.8411 12.9473 11.9535 12.5716 12.2626 12.2626C12.5716 11.9535 12.9473 11.8411 13.3028 11.7933C13.6256 11.7499 14.0224 11.7499 14.4553 11.75ZM13.3257 13.3219L13.3234 13.3231L13.3219 13.3257L13.3199 13.3297C13.3199 13.3297 13.3182 13.3335 13.3172 13.336C13.3082 13.3577 13.2929 13.4061 13.2799 13.5027C13.2516 13.7134 13.25 14.0074 13.25 14.5V15.5C13.25 15.9926 13.2516 16.2866 13.2799 16.4973C13.2929 16.5939 13.3082 16.6423 13.3172 16.664C13.3183 16.6667 13.3201 16.6707 13.3201 16.6707L13.3219 16.6743L13.3232 16.6768L13.3257 16.6781C13.3276 16.6791 13.3309 16.6808 13.336 16.6828C13.3577 16.6918 13.4061 16.7071 13.5027 16.7201C13.7134 16.7484 14.0074 16.75 14.5 16.75C15.2283 16.75 15.6991 16.7484 16.046 16.7018C16.3713 16.658 16.4732 16.5874 16.5303 16.5303C16.5874 16.4732 16.658 16.3713 16.7018 16.046C16.7484 15.6991 16.75 15.2283 16.75 14.5C16.75 14.0074 16.7484 13.7134 16.7201 13.5027C16.7071 13.4061 16.6918 13.3577 16.6828 13.336C16.6808 13.3309 16.6791 13.3276 16.6781 13.3257L16.6768 13.3232L16.6743 13.3219C16.6724 13.3209 16.6691 13.3192 16.664 13.3172C16.6423 13.3082 16.5939 13.2929 16.4973 13.2799C16.2866 13.2516 15.9926 13.25 15.5 13.25H14.5C14.0074 13.25 13.7134 13.2516 13.5027 13.2799C13.4061 13.2929 13.3577 13.3082 13.336 13.3172C13.3309 13.3192 13.3276 13.3209 13.3257 13.3219ZM1 12.25C1.41421 12.25 1.75 12.5858 1.75 13C1.75 14.9068 1.75159 16.2615 1.88976 17.2892C2.02502 18.2952 2.27869 18.8749 2.7019 19.2981C3.12511 19.7213 3.70476 19.975 4.71085 20.1102C5.73851 20.2484 7.09318 20.25 9 20.25C9.41421 20.25 9.75 20.5858 9.75 21C9.75 21.4142 9.41421 21.75 9 21.75H8.94359C7.10583 21.75 5.65019 21.75 4.51098 21.5969C3.33856 21.4392 2.38961 21.1071 1.64124 20.3588C0.89288 19.6104 0.560763 18.6614 0.403135 17.489C0.249972 16.3498 0.249984 14.8942 0.25 13.0564L0.250001 13C0.250001 12.5858 0.585787 12.25 1 12.25ZM21 12.25C21.4142 12.25 21.75 12.5858 21.75 13V13.0564C21.75 14.8942 21.75 16.3498 21.5969 17.489C21.4392 18.6614 21.1071 19.6104 20.3588 20.3588C19.6104 21.1071 18.6614 21.4392 17.489 21.5969C16.3498 21.75 14.8942 21.75 13.0564 21.75H13C12.5858 21.75 12.25 21.4142 12.25 21C12.25 20.5858 12.5858 20.25 13 20.25C14.9068 20.25 16.2615 20.2484 17.2892 20.1102C18.2952 19.975 18.8749 19.7213 19.2981 19.2981C19.7213 18.8749 19.975 18.2952 20.1102 17.2892C20.2484 16.2615 20.25 14.9068 20.25 13C20.25 12.5858 20.5858 12.25 21 12.25Z" fill="#0A527C"/>
</svg>
