<svg width="60" height="60" viewBox="0 0 60 60" fill="none" xmlns="http://www.w3.org/2000/svg">
<g clip-path="url(#clip0_1291_5559)">
<path d="M8.58435 13.9267C11.9814 13.9267 14.7451 11.1633 14.7451 7.76622C14.7451 4.36872 11.9816 1.6048 8.58435 1.6048C5.18752 1.6048 2.42383 4.36872 2.42383 7.76622C2.42383 11.1633 5.18752 13.9267 8.58435 13.9267ZM8.58435 3.6406C10.8587 3.6406 12.7091 5.49139 12.7091 7.76622C12.7091 10.0404 10.8587 11.8909 8.58435 11.8909C6.3102 11.8909 4.45963 10.0406 4.45963 7.76622C4.45963 5.49139 6.3102 3.6406 8.58435 3.6406Z" fill="#888888"/>
<path d="M2.65296 39.0424V57.3772C2.65296 57.9394 3.10873 58.3952 3.67075 58.3952C4.23298 58.3952 4.68853 57.9397 4.68853 57.3772V38.5182C4.68853 38.5027 4.68696 38.4871 4.68628 38.4716C4.68786 38.1061 4.49249 37.7516 4.14723 37.5677C2.84495 36.8742 2.03603 35.533 2.03603 34.0671V22.8771C2.03603 20.6932 3.81232 18.9166 5.99577 18.9166H11.2132C13.3967 18.9166 15.173 20.6934 15.173 22.8771V34.0671C15.173 35.5326 14.3634 36.874 13.0604 37.5677C12.7082 37.7552 12.5124 38.12 12.522 38.4934C12.5218 38.5018 12.5209 38.5096 12.5209 38.518V57.377C12.5209 57.9392 12.9767 58.395 13.5389 58.395C14.1012 58.395 14.5567 57.9394 14.5567 57.377V39.0406C16.207 37.9298 17.209 36.0761 17.209 34.0671V22.8771C17.209 19.5707 14.5194 16.8806 11.2135 16.8806H5.99577C2.68964 16.8811 0 19.5712 0 22.8775V34.0676C0 36.0777 1.00226 37.9321 2.65296 39.0424Z" fill="#888888"/>
<path d="M28.0844 27.8348C31.4819 27.8348 34.2458 25.0704 34.2458 21.6729C34.2458 18.2754 31.4819 15.5115 28.0844 15.5115C24.6875 15.5115 21.9238 18.2754 21.9238 21.6729C21.9238 25.0704 24.6875 27.8348 28.0844 27.8348ZM28.0844 17.5473C30.3592 17.5473 32.21 19.3981 32.21 21.6727C32.21 23.9477 30.3592 25.7987 28.0844 25.7987C25.8102 25.7987 23.9596 23.9477 23.9596 21.6727C23.9599 19.3981 25.8102 17.5473 28.0844 17.5473Z" fill="#888888"/>
<path d="M23.7589 47.6V57.3772C23.7589 57.9395 24.2147 58.3952 24.7769 58.3952C25.3391 58.3952 25.7947 57.9397 25.7947 57.3772V47.076C25.7947 47.0602 25.7931 47.0449 25.7924 47.0294C25.794 46.6639 25.5986 46.3096 25.2536 46.1257C23.9506 45.4316 23.1413 44.0902 23.1413 42.6251V36.784C23.1413 34.6001 24.9178 32.8236 27.101 32.8236H29.1098C31.2933 32.8236 33.0695 34.6001 33.0695 36.784V42.6251C33.0695 44.0902 32.26 45.4314 30.9572 46.126C30.6052 46.3134 30.4094 46.6783 30.4191 47.0517C30.4191 47.0598 30.4179 47.0677 30.4179 47.076V57.3772C30.4179 57.9395 30.8737 58.3952 31.436 58.3952C31.9982 58.3952 32.454 57.9397 32.454 57.3772V47.5984C34.1035 46.4867 35.1053 44.6335 35.1053 42.6251V36.784C35.1053 33.4776 32.4157 30.7878 29.1098 30.7878H27.101C23.7951 30.7878 21.1055 33.4776 21.1055 36.784V42.6251C21.1052 44.6348 22.108 46.489 23.7589 47.6Z" fill="#888888"/>
<path d="M48.6983 17.1363C52.0954 17.1363 54.8588 14.373 54.8588 10.9762C54.8588 7.57781 52.0954 4.81299 48.6983 4.81299C45.301 4.81299 42.5371 7.57781 42.5371 10.9762C42.5371 14.373 45.301 17.1363 48.6983 17.1363ZM48.6983 6.84879C50.9727 6.84879 52.823 8.70048 52.823 10.9762C52.823 13.2501 50.9725 15.1003 48.6983 15.1003C46.4235 15.1003 44.5729 13.2501 44.5729 10.9762C44.5729 8.70048 46.4235 6.84879 48.6983 6.84879Z" fill="#888888"/>
<path d="M38.4139 42.6945H44.371V57.3775C44.371 57.9397 44.8268 58.3955 45.389 58.3955C45.9512 58.3955 46.407 57.9399 46.407 57.3775V41.6765C46.407 41.606 46.3998 41.5374 46.3863 41.4712C46.3793 41.4381 46.3712 41.4055 46.3611 41.3737C46.2321 40.9594 45.8457 40.6584 45.389 40.6584H45.3885H40.061L44.6739 31.4317C44.7446 31.2906 44.7815 31.1346 44.7815 30.9766V26.0416C44.7815 23.8827 46.5387 22.1262 48.6983 22.1262C50.8576 22.1262 52.6143 23.8827 52.6143 26.0416V30.9766C52.6143 31.1349 52.651 31.2906 52.7217 31.4317L57.3346 40.6584H52.0487H52.0483C51.5916 40.6584 51.2049 40.9594 51.0762 41.3737C51.0663 41.4057 51.058 41.4381 51.0512 41.4712C51.0375 41.5374 51.0305 41.606 51.0305 41.6765V57.3775C51.0305 57.9397 51.486 58.3955 52.0483 58.3955C52.6105 58.3955 53.0663 57.9399 53.0663 57.3775V42.6945H58.9817C59.3344 42.6945 59.6621 42.5117 59.8478 42.2117C60.033 41.9117 60.0499 41.5369 59.8924 41.2214L54.6501 30.7362V26.0414C54.6501 22.7598 51.9803 20.0902 48.6985 20.0902C45.4162 20.0902 42.7459 22.7598 42.7459 26.0414V30.7362L37.5039 41.2214C37.3462 41.5369 37.3631 41.9114 37.5485 42.2117C37.7335 42.5117 38.0612 42.6945 38.4139 42.6945Z" fill="#888888"/>
</g>
<defs>
<clipPath id="clip0_1291_5559">
<rect width="60" height="60" fill="white"/>
</clipPath>
</defs>
</svg>
