<svg width="56" height="56" viewBox="0 0 56 56" fill="none" xmlns="http://www.w3.org/2000/svg">
<g clip-path="url(#clip0_514_2131)">
<path d="M28 54.25C42.4975 54.25 54.25 42.4975 54.25 28C54.25 13.5025 42.4975 1.75 28 1.75C13.5025 1.75 1.75 13.5025 1.75 28C1.75 42.4975 13.5025 54.25 28 54.25Z" fill="#FFFA37"/>
<path fill-rule="evenodd" clip-rule="evenodd" d="M37.4228 13.3478C35.6127 11.0665 32.6262 9.25 28.0221 9.25C24.0796 9.28883 16.1946 11.4708 16.1946 19.8884C16.1946 21.1176 16.2919 22.7641 16.3769 23.9764C16.2767 23.9474 16.1535 23.8928 15.9583 23.7992L15.9312 23.7863C15.5859 23.6206 15.061 23.3684 14.3309 23.3684C13.5933 23.3684 12.8802 23.6573 12.3508 24.0857C11.8245 24.5114 11.375 25.1659 11.375 25.9572C11.375 26.947 11.932 27.604 12.5833 28.0253C13.1619 28.3996 13.8913 28.6386 14.4688 28.8278L14.5259 28.8464C15.144 29.0493 15.5971 29.2037 15.9094 29.3984C16.1526 29.5501 16.1894 29.6459 16.194 29.737C16.1909 29.7499 16.1834 29.7779 16.1672 29.8232C16.1339 29.917 16.0785 30.0436 15.9974 30.2018C15.8358 30.5176 15.6 30.9059 15.3196 31.3199C14.7539 32.1552 14.0634 33.0119 13.5477 33.508C13.039 33.9974 12.2043 34.6054 11.3315 35.0896C10.8987 35.3296 10.4755 35.5285 10.0969 35.6652C9.70604 35.8062 9.41963 35.86 9.24265 35.86C9.10255 35.86 8.98129 35.8887 8.92838 35.902C8.854 35.9206 8.77701 35.9451 8.70087 35.9738C8.54982 36.0304 8.3698 36.1156 8.19149 36.2356C7.85082 36.4649 7.375 36.9272 7.375 37.6566C7.375 38.0372 7.46436 38.3596 7.61884 38.6391C7.75407 38.8838 7.92788 39.0696 8.02793 39.1765L8.04278 39.1922L8.07046 39.2221C8.62066 39.814 9.5314 40.2259 10.4155 40.5085C11.1752 40.7513 12.0246 40.9322 12.8523 41.0408C12.864 41.0942 12.8762 41.1516 12.8896 41.2146L12.8939 41.2351C12.946 41.4807 13.015 41.8062 13.1166 42.1064C13.2126 42.3895 13.3862 42.8082 13.7418 43.1065C14.1947 43.4862 14.787 43.5246 15.1735 43.5231C15.5884 43.5214 16.0728 43.4629 16.5324 43.4076L16.5715 43.4029C17.2182 43.3249 17.8949 43.2445 18.5956 43.2445C19.8743 43.2445 20.6941 43.7787 21.9801 44.6569L21.9887 44.6629C22.4342 44.9672 22.933 45.3077 23.5 45.6428C25.3979 46.7642 26.9399 46.7547 27.8138 46.7491C27.8716 46.7487 27.9261 46.7485 27.9779 46.7485C28.0296 46.7485 28.0847 46.7487 28.1427 46.7491C29.0181 46.7547 30.6012 46.7648 32.5 45.6428C33.067 45.3077 33.5658 44.9672 34.0111 44.6629L34.0199 44.6569C35.3059 43.7787 36.1257 43.2445 37.4044 43.2445C38.1051 43.2445 38.7818 43.3249 39.4285 43.4029L39.4677 43.4076C39.9273 43.4629 40.4116 43.5214 40.8265 43.5231C41.2129 43.5246 41.8053 43.4862 42.2583 43.1065C42.6138 42.8082 42.7874 42.3895 42.8834 42.1064C42.985 41.8064 43.054 41.4809 43.1061 41.2351L43.1104 41.2146C43.1238 41.1516 43.1359 41.0942 43.1478 41.0408C43.9754 40.9322 44.8248 40.7513 45.5845 40.5085C46.4686 40.2259 47.3794 39.8138 47.9296 39.2219L47.9573 39.1922L47.9719 39.1765C48.0721 39.0696 48.2459 38.8838 48.3811 38.6391C48.5356 38.3596 48.625 38.0372 48.625 37.6566C48.625 36.9272 48.1491 36.4649 47.8084 36.2356C47.6301 36.1156 47.4501 36.0304 47.2992 35.9738C47.2231 35.9451 47.146 35.9206 47.0716 35.902C47.0187 35.8887 46.8974 35.86 46.7573 35.86C46.5803 35.86 46.294 35.8062 45.9031 35.6652C45.5245 35.5285 45.1013 35.3296 44.6684 35.0896C43.7957 34.6054 42.961 33.9974 42.4523 33.508C41.9365 33.0119 41.2461 32.1552 40.6804 31.3199C40.3999 30.9059 40.1642 30.5176 40.0026 30.2018C39.9216 30.0436 39.8661 29.917 39.8328 29.8232C39.8166 29.7779 39.8091 29.7499 39.8059 29.737C39.8106 29.6459 39.8474 29.5501 40.0906 29.3984C40.4029 29.2037 40.8559 29.0493 41.4741 28.8464L41.5311 28.8278C42.1086 28.6386 42.8382 28.3996 43.4166 28.0253C44.068 27.604 44.6251 26.947 44.6251 25.9572C44.6251 25.1659 44.1754 24.5114 43.6491 24.0857C43.1198 23.6573 42.4066 23.3684 41.6691 23.3684C40.939 23.3684 40.4142 23.6206 40.0688 23.7863L40.0418 23.7992C39.8464 23.8928 39.7232 23.9474 39.6231 23.9764C39.7081 22.7641 39.8054 21.1176 39.8054 19.8884C39.8054 18.2194 39.1986 15.5857 37.4228 13.3478ZM20.0935 14.4489C18.5916 16.329 18.0769 18.5616 18.0769 19.8884C18.0769 21.1186 18.1812 22.8274 18.2691 24.0529C18.2984 24.4598 18.2149 24.9344 17.8594 25.3109C17.4996 25.6921 17.0103 25.8158 16.573 25.8158C15.9417 25.8158 15.4615 25.5848 15.1543 25.4371L15.1187 25.42C14.776 25.2556 14.5958 25.1792 14.3309 25.1792C14.0899 25.1792 13.7957 25.2827 13.5624 25.4716C13.3259 25.6628 13.2573 25.8501 13.2573 25.9572C13.2573 26.1754 13.3378 26.3314 13.6336 26.5227C13.983 26.7486 14.4808 26.9185 15.1334 27.1326L15.1902 27.1512C15.7321 27.3287 16.4033 27.5487 16.933 27.8789C17.5276 28.2494 18.0769 28.8451 18.0769 29.7627C18.0769 30.0032 18.0104 30.2348 17.9479 30.4101C17.8802 30.6004 17.7887 30.8014 17.686 31.0019C17.4805 31.4035 17.2024 31.8571 16.8968 32.3084C16.2903 33.2039 15.5194 34.1721 14.8787 34.7884C14.231 35.4115 13.2569 36.1118 12.2717 36.6584C11.7755 36.9334 11.2575 37.1802 10.758 37.3606C10.3109 37.5218 9.829 37.6482 9.3667 37.6681C9.35519 37.6729 9.34246 37.6787 9.32913 37.6853C9.30781 37.6962 9.28788 37.7076 9.27048 37.7194L9.26159 37.7256C9.26333 37.738 9.26532 37.7472 9.26699 37.7537C9.27068 37.7682 9.27507 37.7785 9.28098 37.7892C9.29911 37.822 9.32768 37.8586 9.44331 37.9825L9.47365 38.0149C9.68196 38.2392 10.1953 38.53 11.009 38.7901C11.784 39.0377 12.7004 39.2166 13.5663 39.2987C13.9995 39.3398 14.2491 39.6106 14.3548 39.7564C14.4636 39.9064 14.5258 40.0651 14.5622 40.1702C14.6325 40.3739 14.6856 40.6247 14.7275 40.8226L14.7339 40.8526C14.7911 41.1222 14.8411 41.3528 14.9064 41.5454C14.9295 41.6136 14.9507 41.6654 14.9691 41.7034C15.0104 41.7083 15.0737 41.7128 15.1655 41.7124C15.5636 41.7107 15.9622 41.6515 16.3567 41.6039C16.9878 41.5277 17.7687 41.4336 18.5956 41.4336C20.5133 41.4336 21.7787 42.2984 23.0012 43.1337L23.0699 43.1806C23.5221 43.4894 23.9755 43.7986 24.4853 44.0999C25.9219 44.9489 27.0151 44.9427 27.8138 44.9382C27.8699 44.938 27.9246 44.9376 27.9779 44.9376C28.0308 44.9376 28.0851 44.938 28.1412 44.9382C28.9486 44.9425 30.0784 44.9487 31.5147 44.0999C32.0245 43.7986 32.4779 43.4894 32.9301 43.1806L32.9988 43.1337C34.2213 42.2984 35.4867 41.4336 37.4044 41.4336C38.2313 41.4336 39.0123 41.5277 39.6434 41.6039L39.6623 41.6061C40.1727 41.6676 40.5462 41.7111 40.8346 41.7124C40.9263 41.7128 40.9896 41.7083 41.0309 41.7034C41.0493 41.6654 41.0704 41.6136 41.0937 41.5454C41.1589 41.3528 41.2088 41.1222 41.2662 40.8526L41.2726 40.8226C41.3144 40.6246 41.3674 40.3739 41.4377 40.1702C41.4741 40.0651 41.5364 39.9064 41.6451 39.7564C41.7509 39.6106 42.0006 39.3398 42.4337 39.2987C43.2996 39.2166 44.2159 39.0377 44.9909 38.7901C45.8046 38.53 46.318 38.2392 46.5263 38.0151L46.5567 37.9825C46.6722 37.8586 46.7009 37.822 46.7191 37.7892C46.7249 37.7785 46.7294 37.7682 46.7329 37.7537C46.7346 37.7472 46.7367 37.738 46.7384 37.7256L46.7296 37.7194C46.7121 37.7076 46.6922 37.6962 46.6709 37.6853C46.6576 37.6786 46.6448 37.6729 46.6334 37.6681C46.171 37.6482 45.6891 37.5218 45.2419 37.3606C44.7424 37.1802 44.2244 36.9334 43.7282 36.6584C42.7431 36.1118 41.7691 35.4115 41.1212 34.7884C40.4806 34.1721 39.7097 33.2039 39.1032 32.3084C38.7976 31.8571 38.5195 31.4035 38.314 31.0019C38.2112 30.8014 38.1197 30.6004 38.0521 30.4101C37.9896 30.2348 37.9231 30.0032 37.9231 29.7627C37.9231 28.8451 38.4724 28.2494 39.067 27.8789C39.5967 27.5487 40.2679 27.3287 40.8098 27.1512L40.8666 27.1326C41.5191 26.9185 42.0169 26.7486 42.3664 26.5227C42.6621 26.3314 42.7426 26.1754 42.7426 25.9572C42.7426 25.8501 42.6741 25.6628 42.4377 25.4716C42.2042 25.2827 41.9101 25.1792 41.6691 25.1792C41.4042 25.1792 41.224 25.2556 40.8813 25.42L40.8456 25.4371C40.5385 25.5848 40.0583 25.8158 39.427 25.8158C38.9898 25.8158 38.5004 25.6921 38.1406 25.3109C37.7851 24.9344 37.7016 24.4598 37.7309 24.0529C37.8188 22.8274 37.9231 21.1186 37.9231 19.8884C37.9231 18.5581 37.4176 16.3253 35.9266 14.4465C34.4703 12.6112 32.0356 11.0608 28.0221 11.0608C24.0081 11.0608 21.5613 12.6117 20.0935 14.4489Z" fill="black"/>
<path fill-rule="evenodd" clip-rule="evenodd" d="M20.0937 14.4506C18.5916 16.3308 18.0771 18.5632 18.0771 19.89C18.0771 21.1202 18.1814 22.8292 18.2693 24.0547C18.2984 24.4616 18.2149 24.936 17.8596 25.3127C17.4998 25.6938 17.0104 25.8176 16.5731 25.8176C15.9418 25.8176 15.4616 25.5866 15.1545 25.4388L15.1188 25.4216C14.7761 25.2573 14.5959 25.1808 14.331 25.1808C14.09 25.1808 13.7958 25.2845 13.5625 25.4732C13.326 25.6646 13.2575 25.8519 13.2575 25.959C13.2575 26.1772 13.338 26.333 13.6338 26.5245C13.9831 26.7504 14.4809 26.9203 15.1335 27.1342L15.1903 27.153C15.7322 27.3305 16.4035 27.5503 16.9332 27.8805C17.5277 28.2512 18.0771 28.8468 18.0771 29.7645C18.0771 30.005 18.0105 30.2366 17.9481 30.4119C17.8804 30.6022 17.7887 30.8032 17.6862 31.0037C17.4807 31.4053 17.2026 31.8588 16.8968 32.3101C16.2904 33.2055 15.5196 34.1737 14.8789 34.7902C14.2312 35.4133 13.2571 36.1136 12.2719 36.66C11.7757 36.9352 11.2577 37.182 10.7582 37.3622C10.311 37.5236 9.82913 37.65 9.36683 37.6697C9.35532 37.6745 9.34259 37.6803 9.32926 37.6871C9.30794 37.6978 9.28801 37.7094 9.27063 37.721L9.26172 37.7272C9.26346 37.7398 9.26545 37.749 9.26712 37.7555C9.27081 37.77 9.2752 37.7803 9.28113 37.791C9.29924 37.8238 9.32783 37.8603 9.44346 37.9843L9.4738 38.0167C9.68209 38.2408 10.1955 38.5316 11.0092 38.7918C11.7842 39.0395 12.7006 39.2184 13.5664 39.3005C13.9996 39.3416 14.2493 39.6123 14.355 39.758C14.4637 39.9082 14.526 40.0668 14.5623 40.172C14.6326 40.3757 14.6858 40.6263 14.7277 40.8242L14.734 40.8543C14.7912 41.124 14.8413 41.3544 14.9065 41.5472C14.9296 41.6152 14.9509 41.6672 14.9692 41.7052C15.0105 41.7099 15.0739 41.7144 15.1656 41.714C15.5637 41.7125 15.9623 41.6531 16.3568 41.6057C16.9879 41.5295 17.7689 41.4354 18.5957 41.4354C20.5135 41.4354 21.7789 42.3002 23.0012 43.1353L23.0699 43.1822C23.5223 43.4912 23.9757 43.8003 24.4855 44.1017C25.9221 44.9507 27.0152 44.9445 27.8138 44.94C27.87 44.9396 27.9248 44.9394 27.978 44.9394C28.0309 44.9394 28.0853 44.9396 28.1414 44.94C28.9487 44.9443 30.0784 44.9505 31.5149 44.1017C32.0247 43.8003 32.478 43.4912 32.9303 43.1822L32.9989 43.1353C34.2214 42.3002 35.4869 41.4354 37.4046 41.4354C38.2315 41.4354 39.0124 41.5295 39.6435 41.6057L39.6625 41.6079C40.1729 41.6694 40.5464 41.7129 40.8347 41.714C40.9264 41.7144 40.9898 41.7099 41.031 41.7052C41.0494 41.6672 41.0706 41.6152 41.0937 41.5472C41.1589 41.3544 41.209 41.124 41.2662 40.8543L41.2725 40.8242C41.3145 40.6263 41.3676 40.3757 41.4379 40.172C41.4743 40.0667 41.5365 39.9082 41.6453 39.758C41.751 39.6122 42.0006 39.3416 42.4339 39.3005C43.2998 39.2184 44.2161 39.0395 44.991 38.7918C45.8048 38.5316 46.3182 38.241 46.5265 38.0167L46.5569 37.9843C46.6724 37.8603 46.701 37.8238 46.7192 37.791C46.725 37.7803 46.7295 37.77 46.7331 37.7555C46.7348 37.749 46.7369 37.7398 46.7385 37.7272L46.7297 37.721C46.7123 37.7094 46.6924 37.6978 46.671 37.6871C46.6577 37.6803 46.645 37.6745 46.6334 37.6697C46.1712 37.65 45.6893 37.5236 45.2421 37.3622C44.7426 37.182 44.2245 36.9352 43.7284 36.66C42.7431 36.1136 41.769 35.4133 41.1214 34.7902C40.4807 34.1737 39.7099 33.2055 39.1034 32.3101C38.7977 31.8588 38.5197 31.4053 38.314 31.0037C38.2114 30.8032 38.1199 30.6022 38.052 30.4119C37.9898 30.2366 37.9232 30.005 37.9232 29.7645C37.9232 28.8468 38.4726 28.2512 39.0672 27.8805C39.5969 27.5503 40.2681 27.3305 40.81 27.153L40.8668 27.1342C41.5193 26.9203 42.0171 26.7504 42.3664 26.5245C42.6623 26.333 42.7427 26.1772 42.7427 25.959C42.7427 25.8519 42.6743 25.6646 42.4377 25.4732C42.2044 25.2845 41.9102 25.1808 41.6693 25.1808C41.4044 25.1808 41.2242 25.2573 40.8814 25.4216L40.8458 25.4388C40.5387 25.5866 40.0585 25.8176 39.4272 25.8176C38.9899 25.8176 38.5005 25.6938 38.1407 25.3127C37.7852 24.936 37.7018 24.4616 37.731 24.0547C37.819 22.8292 37.9232 21.1202 37.9232 19.89C37.9232 18.5598 37.4177 16.3271 35.9267 14.4483C34.4704 12.6129 32.0357 11.0625 28.0221 11.0625C24.0081 11.0625 21.5614 12.6134 20.0937 14.4506Z" fill="white"/>
</g>
<defs>
<clipPath id="clip0_514_2131">
<rect width="56" height="56" rx="28" fill="white"/>
</clipPath>
</defs>
</svg>
