<svg width="56" height="56" viewBox="0 0 56 56" fill="none" xmlns="http://www.w3.org/2000/svg">
<g clip-path="url(#clip0_514_2129)">
<path d="M28.5 54.1875C43.2391 54.1875 55.1875 42.2391 55.1875 27.5C55.1875 12.7609 43.2391 0.8125 28.5 0.8125C13.7609 0.8125 1.8125 12.7609 1.8125 27.5C1.8125 42.2391 13.7609 54.1875 28.5 54.1875Z" fill="url(#paint0_linear_514_2129)"/>
<path d="M38.4386 35.6618L39.6241 28.1293H32.208V23.2433C32.208 21.1821 33.2422 19.1718 36.5638 19.1718H39.9375V12.7589C39.9375 12.7589 36.877 12.25 33.9524 12.25C27.842 12.25 23.852 15.8584 23.852 22.3882V28.1293H17.0625V35.6618H23.852V53.872C25.215 54.0807 26.6094 54.1875 28.0299 54.1875C29.4505 54.1875 30.8451 54.0807 32.208 53.872V35.6618H38.4386Z" fill="white"/>
</g>
<defs>
<linearGradient id="paint0_linear_514_2129" x1="28.5" y1="0.8125" x2="28.5" y2="54.0293" gradientUnits="userSpaceOnUse">
<stop stop-color="#18ACFE"/>
<stop offset="1" stop-color="#0163E0"/>
</linearGradient>
<clipPath id="clip0_514_2129">
<rect width="56" height="56" rx="28" fill="white"/>
</clipPath>
</defs>
</svg>
