<svg width="56" height="54" viewBox="0 0 56 54" fill="none" xmlns="http://www.w3.org/2000/svg">
<g clip-path="url(#clip0_514_2128)">
<path d="M44 -0.125H12C5.37258 -0.125 0 5.07969 0 11.5V42.5C0 48.9203 5.37258 54.125 12 54.125H44C50.6274 54.125 56 48.9203 56 42.5V11.5C56 5.07969 50.6274 -0.125 44 -0.125Z" fill="url(#paint0_radial_514_2128)"/>
<path d="M44 -0.125H12C5.37258 -0.125 0 5.07969 0 11.5V42.5C0 48.9203 5.37258 54.125 12 54.125H44C50.6274 54.125 56 48.9203 56 42.5V11.5C56 5.07969 50.6274 -0.125 44 -0.125Z" fill="url(#paint1_radial_514_2128)"/>
<path d="M44 -0.125H12C5.37258 -0.125 0 5.07969 0 11.5V42.5C0 48.9203 5.37258 54.125 12 54.125H44C50.6274 54.125 56 48.9203 56 42.5V11.5C56 5.07969 50.6274 -0.125 44 -0.125Z" fill="url(#paint2_radial_514_2128)"/>
<path d="M42 16.3438C42 17.9488 40.6568 19.25 39 19.25C37.3432 19.25 36 17.9488 36 16.3438C36 14.7387 37.3432 13.4375 39 13.4375C40.6568 13.4375 42 14.7387 42 16.3438Z" fill="white"/>
<path fill-rule="evenodd" clip-rule="evenodd" d="M28 36.6875C33.5228 36.6875 38 32.3502 38 27C38 21.6498 33.5228 17.3125 28 17.3125C22.4772 17.3125 18 21.6498 18 27C18 32.3502 22.4772 36.6875 28 36.6875ZM28 32.8125C31.3138 32.8125 34 30.2102 34 27C34 23.7898 31.3138 21.1875 28 21.1875C24.6862 21.1875 22 23.7898 22 27C22 30.2102 24.6862 32.8125 28 32.8125Z" fill="white"/>
<path fill-rule="evenodd" clip-rule="evenodd" d="M8 26.225C8 19.7144 8 16.459 9.30792 13.9724C10.4584 11.785 12.2942 10.0066 14.5521 8.89205C17.119 7.625 20.4794 7.625 27.2 7.625H28.8C35.5206 7.625 38.881 7.625 41.4478 8.89205C43.7058 10.0066 45.5416 11.785 46.692 13.9724C48 16.459 48 19.7144 48 26.225V27.775C48 34.2856 48 37.541 46.692 40.0276C45.5416 42.215 43.7058 43.9934 41.4478 45.1079C38.881 46.375 35.5206 46.375 28.8 46.375H27.2C20.4794 46.375 17.119 46.375 14.5521 45.1079C12.2942 43.9934 10.4584 42.215 9.30792 40.0276C8 37.541 8 34.2856 8 27.775V26.225ZM27.2 11.5H28.8C32.2264 11.5 34.5554 11.503 36.3558 11.6455C38.1096 11.7843 39.0064 12.0359 39.632 12.3447C41.1372 13.0877 42.361 14.2733 43.128 15.7315C43.4468 16.3376 43.7066 17.2063 43.8498 18.9053C43.9968 20.6495 44 22.9057 44 26.225V27.775C44 31.0943 43.9968 33.3505 43.8498 35.0947C43.7066 36.7937 43.4468 37.6624 43.128 38.2685C42.361 39.7267 41.1372 40.9122 39.632 41.6552C39.0064 41.9641 38.1096 42.2158 36.3558 42.3545C34.5554 42.4969 32.2264 42.5 28.8 42.5H27.2C23.7736 42.5 21.4446 42.4969 19.6442 42.3545C17.8904 42.2158 16.9936 41.9641 16.368 41.6552C14.8628 40.9122 13.6389 39.7267 12.8719 38.2685C12.5532 37.6624 12.2935 36.7937 12.1502 35.0947C12.0031 33.3505 12 31.0943 12 27.775V26.225C12 22.9057 12.0031 20.6495 12.1502 18.9053C12.2935 17.2063 12.5532 16.3376 12.8719 15.7315C13.6389 14.2733 14.8628 13.0877 16.368 12.3447C16.9936 12.0359 17.8904 11.7843 19.6442 11.6455C21.4446 11.503 23.7736 11.5 27.2 11.5Z" fill="white"/>
</g>
<defs>
<radialGradient id="paint0_radial_514_2128" cx="0" cy="0" r="1" gradientUnits="userSpaceOnUse" gradientTransform="translate(20 40.5625) rotate(-54.5206) scale(49.9647 50.5075)">
<stop stop-color="#B13589"/>
<stop offset="0.79309" stop-color="#C62F94"/>
<stop offset="1" stop-color="#8A3AC8"/>
</radialGradient>
<radialGradient id="paint1_radial_514_2128" cx="0" cy="0" r="1" gradientUnits="userSpaceOnUse" gradientTransform="translate(18 56.0625) rotate(-64.4352) scale(44.0292 44.9288)">
<stop stop-color="#E0E8B7"/>
<stop offset="0.444662" stop-color="#FB8A2E"/>
<stop offset="0.71474" stop-color="#E2425C"/>
<stop offset="1" stop-color="#E2425C" stop-opacity="0"/>
</radialGradient>
<radialGradient id="paint2_radial_514_2128" cx="0" cy="0" r="1" gradientUnits="userSpaceOnUse" gradientTransform="translate(-3 1.8125) rotate(-7.87928) scale(77.7339 16.1267)">
<stop offset="0.156701" stop-color="#406ADC"/>
<stop offset="0.467799" stop-color="#6A45BE"/>
<stop offset="1" stop-color="#6A45BE" stop-opacity="0"/>
</radialGradient>
<clipPath id="clip0_514_2128">
<rect width="56" height="54" rx="27" fill="white"/>
</clipPath>
</defs>
</svg>
