<svg width="56" height="56" viewBox="0 0 56 56" fill="none" xmlns="http://www.w3.org/2000/svg">
<g clip-path="url(#clip0_514_2130)">
<path d="M53.4993 -0.332031H2.49935C1.7479 -0.332031 1.02723 -0.0335203 0.49588 0.497833C-0.0354734 1.02919 -0.333984 1.74986 -0.333984 2.5013V53.5013C-0.333984 54.2527 -0.0354734 54.9734 0.49588 55.5048C1.02723 56.0361 1.7479 56.3346 2.49935 56.3346H53.4993C54.2508 56.3346 54.9715 56.0361 55.5028 55.5048C56.0342 54.9734 56.3327 54.2527 56.3327 53.5013V2.5013C56.3327 1.74986 56.0342 1.02919 55.5028 0.497833C54.9715 -0.0335203 54.2508 -0.332031 53.4993 -0.332031ZM44.2032 23.4579C44.2032 23.9865 43.8024 24.4321 43.2738 24.437V24.437C41.5928 24.4392 39.9377 24.0225 38.4581 23.2245V23.2245C37.1483 22.5182 34.7993 23.3958 34.7993 24.884V35.4303C34.7999 37.7062 34.1255 39.9312 32.8614 41.8239C31.5973 43.7165 29.8003 45.1917 27.6977 46.0629C25.5951 46.9341 23.2814 47.1622 21.0491 46.7184C18.8169 46.2745 16.7664 45.1786 15.1571 43.5692C13.5478 41.9599 12.4518 39.9094 12.008 37.6772C11.5641 35.4449 11.7922 33.1312 12.6634 31.0286C13.5346 28.926 15.0099 27.129 16.9025 25.8649C18.7951 24.6008 21.0201 23.9264 23.296 23.927V23.927C23.6961 23.927 24.0072 24.276 24.0072 24.6761V27.2433C24.0072 28.5125 22.862 29.4683 21.6447 29.8276V29.8276C20.8788 30.0537 20.1673 30.4341 19.5539 30.9452C18.9404 31.4564 18.438 32.0876 18.0775 32.8001C17.7169 33.5126 17.5059 34.2912 17.4573 35.0883C17.4087 35.8853 17.5237 36.6838 17.795 37.4348C18.0664 38.1858 18.4885 38.8733 19.0353 39.4552C19.5822 40.0371 20.2422 40.501 20.9749 40.8184C21.7076 41.1358 22.4975 41.3 23.296 41.301C24.8718 41.3295 26.3959 40.7384 27.5404 39.6548C28.6849 38.5713 29.3584 37.0818 29.416 35.5068L29.4666 11.9197C29.4699 10.3443 30.748 9.06897 32.3234 9.06897V9.06897C33.7856 9.06897 34.9714 10.1969 35.4857 11.5656C36.0074 12.9538 36.8323 14.2202 37.9126 15.2666C38.8414 16.1663 39.9267 16.8721 41.1051 17.3556C42.7718 18.0395 44.2032 19.4791 44.2032 21.2806V23.4579Z" fill="black"/>
</g>
<defs>
<clipPath id="clip0_514_2130">
<rect width="56" height="56" rx="28" fill="white"/>
</clipPath>
</defs>
</svg>
