<svg width="60" height="60" viewBox="0 0 60 60" fill="none" xmlns="http://www.w3.org/2000/svg">
<g clip-path="url(#clip0_1291_5567)">
<path fill-rule="evenodd" clip-rule="evenodd" d="M32 27V22H28V27V30H32V27ZM34 26H51C51.552 26 52 26.448 52 27C52 27.552 51.552 28 51 28H34V30C34 31.103 33.103 32 32 32H28C26.897 32 26 31.103 26 30V28H9C8.448 28 8 27.552 8 27C8 26.448 8.448 26 9 26H26V22C26 20.897 26.897 20 28 20H32C33.103 20 34 20.897 34 22V26ZM30.03 27H30.02C29.468 27 29.025 27.448 29.025 28C29.025 28.552 29.478 29 30.03 29C30.583 29 31.03 28.552 31.03 28C31.03 27.448 30.583 27 30.03 27ZM13 52H11C10.448 52 10 52.448 10 53C10 53.552 10.448 54 11 54H13C13.552 54 14 53.552 14 53C14 52.448 13.552 52 13 52ZM13 48H11C10.448 48 10 48.448 10 49C10 49.552 10.448 50 11 50H13C13.552 50 14 49.552 14 49C14 48.448 13.552 48 13 48ZM19 52H17C16.448 52 16 52.448 16 53C16 53.552 16.448 54 17 54H19C19.552 54 20 53.552 20 53C20 52.448 19.552 52 19 52ZM19 48H17C16.448 48 16 48.448 16 49C16 49.552 16.448 50 17 50H19C19.552 50 20 49.552 20 49C20 48.448 19.552 48 19 48ZM25 52H23C22.448 52 22 52.448 22 53C22 53.552 22.448 54 23 54H25C25.552 54 26 53.552 26 53C26 52.448 25.552 52 25 52ZM25 48H23C22.448 48 22 48.448 22 49C22 49.552 22.448 50 23 50H25C25.552 50 26 49.552 26 49C26 48.448 25.552 48 25 48ZM31 52H29C28.448 52 28 52.448 28 53C28 53.552 28.448 54 29 54H31C31.552 54 32 53.552 32 53C32 52.448 31.552 52 31 52ZM31 48H29C28.448 48 28 48.448 28 49C28 49.552 28.448 50 29 50H31C31.552 50 32 49.552 32 49C32 48.448 31.552 48 31 48ZM37 52H35C34.448 52 34 52.448 34 53C34 53.552 34.448 54 35 54H37C37.552 54 38 53.552 38 53C38 52.448 37.552 52 37 52ZM37 48H35C34.448 48 34 48.448 34 49C34 49.552 34.448 50 35 50H37C37.552 50 38 49.552 38 49C38 48.448 37.552 48 37 48ZM43 52H41C40.448 52 40 52.448 40 53C40 53.552 40.448 54 41 54H43C43.552 54 44 53.552 44 53C44 52.448 43.552 52 43 52ZM43 48H41C40.448 48 40 48.448 40 49C40 49.552 40.448 50 41 50H43C43.552 50 44 49.552 44 49C44 48.448 43.552 48 43 48ZM49 52H47C46.448 52 46 52.448 46 53C46 53.552 46.448 54 47 54H49C49.552 54 50 53.552 50 53C50 52.448 49.552 52 49 52ZM49 48H47C46.448 48 46 48.448 46 49C46 49.552 46.448 50 47 50H49C49.552 50 50 49.552 50 49C50 48.448 49.552 48 49 48ZM22 8H24V5C24 4.448 24.448 4 25 4H35C35.552 4 36 4.448 36 5V8H38V3C38 2.449 37.551 2 37 2H23C22.449 2 22 2.449 22 3V8ZM26 8H34V6H26V8ZM53 10H8C7.357 10 6.117 10.699 5.994 11.051L6 40H54V11C54 10.551 53.449 10 53 10ZM20 8V3C20 1.346 21.346 0 23 0H37C38.654 0 40 1.346 40 3V8H53C54.542 8 56 9.458 56 11V41C56 41.552 55.552 42 55 42H5C4.448 42 4 41.552 4 41V11C4 9.267 6.631 8 8 8H20ZM55 4H42.833C42.281 4 41.833 4.448 41.833 5C41.833 5.552 42.281 6 42.833 6H55C56.458 6 58 7.542 58 9V55C58 56.458 56.458 58 55 58H5C3.542 58 2 56.458 2 55V46H55C55.552 46 56 45.552 56 45C56 44.448 55.552 44 55 44H1C0.448 44 0 44.448 0 45V55C0 57.57 2.43 60 5 60H55C57.57 60 60 57.57 60 55V9C60 6.43 57.57 4 55 4ZM0 41V9C0 6.43 2.43 4 5 4H17C17.552 4 18 4.448 18 5C18 5.552 17.552 6 17 6H5C3.542 6 2 7.542 2 9V41C2 41.552 1.552 42 1 42C0.448 42 0 41.552 0 41Z" fill="#888888"/>
</g>
<defs>
<clipPath id="clip0_1291_5567">
<rect width="60" height="60" fill="white"/>
</clipPath>
</defs>
</svg>
