<svg width="486" height="313" viewBox="0 0 486 313" fill="none" xmlns="http://www.w3.org/2000/svg">
<path d="M187.256 252.75H130.375C104.815 252.75 80.3014 242.596 62.2276 224.522C44.1538 206.449 34 181.935 34 156.375C34 130.815 44.1538 106.301 62.2276 88.2276C80.3014 70.1538 104.815 60 130.375 60H186.001" stroke="black" stroke-width="48" stroke-linecap="round" stroke-linejoin="round"/>
<path d="M299.624 60H355.25C380.811 60 405.324 70.1538 423.398 88.2276C441.472 106.301 451.625 130.815 451.625 156.375C451.625 181.935 441.472 206.449 423.398 224.522C405.324 242.596 380.811 252.75 355.25 252.75H298.369" stroke="black" stroke-width="48" stroke-linecap="round" stroke-linejoin="round"/>
<path d="M155 156H331.547" stroke="black" stroke-width="48" stroke-linecap="round" stroke-linejoin="round"/>
</svg>
