<svg width="24" height="24" viewBox="0 0 24 24" fill="none" xmlns="http://www.w3.org/2000/svg">
<path d="M12 3.25C11.5858 3.25 11.25 3.58579 11.25 4C11.25 4.41421 11.5858 4.75 12 4.75C16.0041 4.75 19.25 7.99594 19.25 12C19.25 16.0041 16.0041 19.25 12 19.25C11.5858 19.25 11.25 19.5858 11.25 20C11.25 20.4142 11.5858 20.75 12 20.75C16.8325 20.75 20.75 16.8325 20.75 12C20.75 7.16751 16.8325 3.25 12 3.25Z" fill="#1A1A1A"/>
<path d="M7.53033 9.53033C7.82322 9.23744 7.82322 8.76256 7.53033 8.46967C7.23744 8.17678 6.76256 8.17678 6.46967 8.46967L3.46967 11.4697C3.17678 11.7626 3.17678 12.2374 3.46967 12.5303L6.46967 15.5303C6.76256 15.8232 7.23744 15.8232 7.53033 15.5303C7.82322 15.2374 7.82322 14.7626 7.53033 14.4697L5.81066 12.75H14C14.4142 12.75 14.75 12.4142 14.75 12C14.75 11.5858 14.4142 11.25 14 11.25H5.81066L7.53033 9.53033Z" fill="#1A1A1A"/>
</svg>
