<svg width="207" height="192" viewBox="0 0 207 192" fill="none" xmlns="http://www.w3.org/2000/svg">
<path d="M206.04 160.94C205.62 160.44 205.01 160.09 204.44 159.73C199.32 156.54 194.24 153.28 189.04 150.22C187.4 149.25 186.74 148.25 186.75 146.3C186.83 116.03 186.82 85.77 186.85 55.5C186.85 54.26 186.79 53.36 185.34 52.76C172.66 47.48 160.04 42.0698 147.35 36.7998C146.28 36.3498 144.79 36.3299 143.67 36.6899C139.09 38.1299 134.59 39.7899 130.05 41.3599C128.8 41.7899 127.54 42.1899 126.13 42.6499C126.1 41.9599 126.05 41.47 126.05 40.99C126.07 28.35 126.1 15.6998 126.09 3.05981C126.09 2.03981 125.85 1.02 125.72 0C124.78 0.39 123.84 0.769922 122.9 1.16992C122.7 1.25992 122.52 1.40002 122.33 1.52002C102.6 13.5 82.8801 25.4999 63.1201 37.4299C61.7001 38.2899 61.2802 39.2798 61.2902 40.8198C61.3502 52.5698 61.3402 64.3198 61.3502 76.0698C61.3502 76.4998 61.2901 76.93 61.2501 77.5C60.7601 77.35 60.3902 77.2699 60.0502 77.1199C57.3102 76.0099 54.5902 74.8298 51.8102 73.8098C51.1302 73.5598 50.1402 73.5899 49.4702 73.8799C46.2102 75.3399 43.0302 76.98 39.7802 78.46C38.6902 78.95 38.3302 79.58 38.3402 80.75C38.3902 95.18 38.3902 109.62 38.4102 124.05C38.4202 128.19 38.4302 132.33 38.3902 136.47C38.3802 137.03 38.2502 137.94 37.9102 138.09C35.5502 139.17 33.1202 140.09 30.4002 141.19V81.5798C28.0402 82.6598 26.1602 83.5999 24.2102 84.3999C22.8102 84.9699 22.2102 85.7599 22.2102 87.3999C22.2902 105.97 22.2602 124.55 22.3202 143.12C22.3202 144.46 21.9202 145.23 20.7302 145.87C17.3702 147.65 14.0402 149.48 10.7802 151.43C7.51018 153.37 4.34018 155.47 1.13018 157.5C0.290183 158.03 -0.409823 158.85 0.280177 159.67C0.770177 160.25 1.86018 160.38 2.72018 160.56C3.04018 160.63 3.44017 160.3 3.80017 160.16C22.0402 152.78 40.6202 146.49 60.0802 143.1C71.6602 141.08 83.3202 139.7 95.0702 139.75C104.23 139.79 113.39 140.32 122.53 140.94C134.14 141.72 145.54 143.95 156.79 146.87C172.33 150.9 187.38 156.33 202.04 162.86C202.94 163.26 203.93 163.69 204.88 163.72C205.57 163.74 206.41 163.22 206.9 162.68C207.06 162.49 206.47 161.44 206.04 160.94ZM67.7002 80C66.0202 79.83 65.6502 79.0399 65.6602 77.6899C65.7202 66.6699 65.7201 55.6499 65.6801 44.6299C65.6801 43.2399 66.1002 42.39 67.7002 42.02V80ZM73.6702 82.4099C72.2102 82.2799 71.8701 81.5399 71.8801 80.3499C71.9101 67.1499 71.9302 53.96 71.8902 40.77C71.8902 39.51 72.4302 38.9498 73.6702 38.5898V82.4099ZM80.0502 128.13C80.0502 129.27 79.7802 130.07 78.4702 129.78C78.0702 129.69 77.7101 129.2 77.4401 128.82C77.3102 128.63 77.4002 128.28 77.4002 128C77.4102 97.97 77.4402 67.9399 77.4102 37.8999C77.4102 36.1599 78.2302 35.5599 80.0302 35.0999C80.0302 39.4499 80.0302 43.5199 80.0302 47.5999C80.0602 68.8499 80.0902 90.0999 80.1102 111.36C80.1202 116.95 80.0502 122.54 80.0502 128.13ZM84.1102 129.3C84.0702 128.75 83.9802 128.16 83.9802 127.56C83.9802 96.4698 84.0002 65.3698 83.9602 34.2798C83.9602 32.6898 84.5402 31.9098 86.2202 31.5598C86.2602 32.3198 86.3202 33.01 86.3202 33.71C86.3302 65.03 86.3301 96.3399 86.3801 127.66C86.3701 129.32 85.7302 129.72 84.1102 129.3ZM89.9702 129C89.9202 127.99 89.8402 127 89.8402 126C89.8102 98.71 89.7802 71.4099 89.7702 44.1099C89.7702 39.6399 89.8902 35.1599 89.8502 30.6899C89.8402 29.3199 90.3402 28.6098 91.7802 28.3398C91.8302 28.7998 91.9002 29.2199 91.9102 29.6399C91.9302 62.1399 91.9502 94.6399 91.9702 127.14C91.9602 128.26 92.1202 129.58 89.9702 129ZM96.5902 129.29C94.9502 129.35 95.5702 127.83 95.5702 126.99C95.5502 93.87 95.5702 60.7499 95.5502 27.6299C95.5502 26.2699 95.8602 25.3699 97.4702 25.1499C97.5002 25.7699 97.5502 26.3099 97.5502 26.8499C97.5602 60.1899 97.5702 93.5299 97.5402 126.88C97.5402 127.74 98.1402 129.23 96.5902 129.29ZM103.62 128.17C103.56 128.62 103 128.99 102.67 129.4C102.28 128.98 101.87 128.57 101.53 128.12C101.42 127.98 101.5 127.69 101.5 127.46C101.51 93.08 101.53 58.6898 101.5 24.2998C101.5 22.8298 101.94 21.9598 103.69 21.5598V39.4399C103.69 67.9499 103.7 96.47 103.7 124.98C103.69 126.05 103.77 127.13 103.62 128.17ZM109.63 129.25C107.65 129.67 107.48 129.55 107.48 127.49C107.47 115.41 107.47 103.32 107.48 91.24C107.48 67.85 107.5 44.4698 107.48 21.0798C107.48 19.6098 107.81 18.6 109.64 18.22V129.25H109.63ZM114.76 129.57C113.98 129.59 113.47 129.39 113.5 128.46C113.54 127.4 113.51 126.34 113.51 125.27C113.51 89.37 113.53 53.4698 113.49 17.5698C113.49 15.9398 114.01 15.07 115.86 14.75V22.7798C115.86 57.6698 115.87 92.57 115.85 127.46C115.86 128.27 116.38 129.52 114.76 129.57ZM121.63 128.78C121.49 129.2 121.08 129.54 120.78 129.9C120.53 129.53 120.24 129.19 120.06 128.8C119.96 128.56 120.04 128.25 120.04 127.97C120.05 89.99 120.06 52.0098 120.11 14.0398C120.11 13.1598 120.49 12.2899 120.7 11.4199C120.98 11.4699 121.25 11.5298 121.53 11.5798V14.0298C121.55 42.3298 121.57 70.6299 121.59 98.9399C121.6 108.39 121.65 117.84 121.68 127.29C121.67 127.79 121.78 128.33 121.63 128.78Z" fill="white"/>
<path d="M117.69 155.68C116.44 158.96 115.16 162.23 113.95 165.53C113.62 166.43 113.15 167.14 112.16 166.77C111.57 166.54 110.82 165.92 110.71 165.35C109.72 160.48 108.85 155.58 107.96 150.68C107.91 150.42 107.98 150.14 107.99 149.88C110.43 149.18 110.79 149.37 111.21 151.69C111.71 154.49 112.18 157.3 112.75 160.63C113.15 159.76 113.38 159.31 113.58 158.84C114.59 156.36 115.67 153.89 116.57 151.37C116.99 150.19 117.82 150.1 118.67 150.36C119.28 150.55 120.1 151.14 120.21 151.67C120.86 154.78 121.32 157.92 121.93 161.55C122.36 160.69 122.64 160.2 122.85 159.69C123.76 157.53 124.63 155.34 125.55 153.19C126.36 151.3 127.05 151.11 129.16 152.24C128.65 153.5 128.15 154.79 127.6 156.05C126.05 159.58 124.46 163.1 122.94 166.64C122.56 167.52 122.08 168.23 121.11 167.79C120.54 167.53 119.9 166.83 119.79 166.24C119.22 163.11 118.8 159.94 118.33 156.79C118.28 156.43 118.18 156.07 118.11 155.71C117.97 155.7 117.83 155.69 117.69 155.68Z" fill="white"/>
<path d="M157.03 172.07C158.28 169.17 159.52 166.26 160.77 163.36C161.43 161.83 162.18 161.55 163.54 162.51C163.89 162.76 164.18 163.59 164.03 163.95C162.1 168.41 160.1 172.83 158.06 177.24C157.9 177.59 157.29 178.04 157.02 177.97C155.98 177.67 154.86 177.45 154.6 176.02C154.09 173.16 153.48 170.32 152.88 167.48C152.59 166.13 152.23 164.79 151.57 163.4C150.85 165.36 150.13 167.31 149.41 169.27C148.97 170.48 148.49 171.67 148.11 172.89C147.73 174.1 146.96 174.02 146.01 173.71C144.96 173.37 145.04 172.66 145.32 171.84C146.72 167.66 148.08 163.46 149.55 159.3C149.78 158.64 150.52 157.69 151.01 157.7C152.1 157.72 153.36 157.94 153.7 159.44C154.51 162.97 155.39 166.49 156.23 170.02C156.38 170.67 156.51 171.33 156.64 171.98C156.78 172.01 156.9 172.04 157.03 172.07Z" fill="white"/>
<path d="M85.0502 159.83C87.7002 157.89 88.4402 155.89 87.5102 153.43C86.8102 151.55 84.7102 150.17 82.5502 150.43C79.5102 150.8 76.4902 151.38 73.4602 151.83C72.4302 151.98 72.1702 152.5 72.3602 153.44C73.2602 158.04 74.1702 162.65 75.0302 167.26C75.2302 168.31 75.7802 168.62 76.7902 168.44C77.8602 168.26 78.1602 167.66 77.9602 166.66C77.7302 165.45 77.6602 164.2 77.3002 163.03C76.7602 161.28 77.6402 160.85 79.0902 160.76C79.5402 160.73 80.0102 160.74 80.4202 160.59C81.6102 160.14 82.2701 160.7 82.8801 161.65C83.7801 163.06 84.7702 164.42 85.7402 165.78C86.7102 167.13 87.7402 167.24 89.3402 166.09C87.9302 164.04 86.5102 161.97 85.0502 159.83ZM82.5802 157.97C81.0502 158.24 79.5102 158.4 77.9802 158.67C77.0002 158.84 76.6101 158.44 76.3701 157.53C75.4501 154.09 75.5401 153.9 78.9401 153.27C79.7001 153.13 80.4802 153.05 80.7702 153.01C83.5902 152.86 84.5802 153.68 84.5302 155.66C84.4902 156.95 83.8402 157.74 82.5802 157.97Z" fill="white"/>
<path d="M57.6901 171.75C54.2401 168.1 50.7801 164.45 47.3001 160.82C46.6201 160.11 46.0101 159.44 44.7201 159.95C43.4301 160.46 43.2401 161.31 43.2301 162.41C43.1801 167.38 43.1301 172.36 43.1101 177.33C43.1101 177.81 43.2501 178.28 43.3201 178.75C45.5501 178.67 46.0201 178.19 46.0701 176.26C46.1801 171.61 45.5601 172.76 49.3501 171.24C52.6901 169.91 51.8701 169.56 54.4701 172.45C56.0301 174.19 56.3001 174.24 58.5901 172.89C58.2301 172.45 57.9901 172.07 57.6901 171.75ZM46.2501 169.91V164.14C47.7501 165.64 48.9701 166.86 50.3901 168.27C48.9201 168.85 47.6701 169.35 46.2501 169.91Z" fill="white"/>
<path d="M140.41 155.09C140.33 154.59 139.49 153.96 138.91 153.84C138.34 153.73 137.43 153.98 137.05 154.42C135.66 156.02 134.39 157.73 133.14 159.45C131.04 162.33 128.98 165.25 126.83 168.27C129.29 169.41 129.65 169.33 130.89 167.53C132.79 164.78 132.76 164.98 135.38 165.36C138.21 165.77 139.75 166.86 139.74 169.98C139.74 172.02 140.38 172.29 142.6 172.14C142.64 171.95 142.75 171.72 142.72 171.52C141.98 166.04 141.26 160.55 140.41 155.09ZM134.4 162.73C135.56 161.14 136.56 159.77 137.56 158.4C137.72 158.43 137.89 158.46 138.05 158.49C138.31 160.16 138.57 161.83 138.88 163.84C137.28 163.44 135.98 163.12 134.4 162.73Z" fill="white"/>
<path d="M100 150.67C99.5901 149.76 99.0101 149.16 97.8401 149.18C96.5901 149.2 96.2201 150 95.8801 150.9C94.1101 155.61 92.3501 160.32 90.6101 165.04C90.4601 165.44 90.4401 165.88 90.3601 166.29C92.7701 166.83 93.0701 166.67 93.8301 164.57C94.9601 161.45 94.9601 161.45 97.6801 161.35C101.39 161.21 101.39 161.21 102.94 164.74C103.7 166.46 104.28 166.68 106.64 165.81C104.39 160.69 102.2 155.67 100 150.67ZM95.9201 158.93C96.6001 157.16 97.2401 155.5 98.0501 153.4C98.9601 155.46 99.6801 157.1 100.49 158.93H95.9201Z" fill="white"/>
<path d="M61.5102 172.18C61.3102 171.94 60.8802 171.65 60.7602 171.27C59.2902 166.64 57.8903 162 56.4203 157.37C56.0203 156.12 56.8603 155.93 57.6703 155.71C58.5003 155.48 59.2503 155.33 59.5803 156.56C60.5803 160.28 61.7303 163.95 62.7403 167.67C63.0703 168.88 63.4803 169.3 64.8303 168.86C66.9403 168.18 69.1302 167.72 71.3102 167.3C71.7002 167.22 72.4203 167.67 72.6103 168.06C72.7603 168.37 72.4102 169.29 72.1202 169.37C68.6902 170.34 65.2302 171.21 61.5102 172.18Z" fill="white"/>
<path d="M130.71 179.75C131.74 178.31 132.48 177.14 133.37 176.09C133.72 175.68 134.41 175.56 134.94 175.31C135.02 175.84 135.26 176.4 135.16 176.88C134.85 178.35 134.44 179.81 133.98 181.24C133.85 181.65 133.45 181.97 133.18 182.33C133 182.24 132.82 182.16 132.63 182.07C132.98 180.65 133.34 179.24 133.69 177.82C133.61 177.77 133.54 177.72 133.46 177.67C132.46 179.01 131.45 180.35 130.45 181.69C130.29 181.62 130.12 181.56 129.96 181.49C129.7 179.94 129.45 178.4 129.19 176.85C129.09 176.84 128.99 176.83 128.89 176.82C128.52 178.2 128.14 179.59 127.77 180.97C127.47 180.89 127.17 180.81 126.86 180.73C127.32 178.47 127.77 176.21 128.23 173.96C130.3 173.53 130.01 175.06 130.2 176.1C130.41 177.18 130.51 178.27 130.71 179.75Z" fill="white"/>
<path d="M83.1402 174.63C83.4602 176.51 83.7302 178.14 84.0002 179.76C83.8502 179.85 83.7002 179.93 83.5502 180.02C83.2902 179.7 82.8902 179.4 82.8102 179.04C82.4102 177.14 82.1002 175.22 81.7102 173.03C84.6402 172.72 85.0702 175.68 87.1002 176.66C86.9602 175.15 86.8302 173.71 86.6802 171.99C87.9102 172.88 88.5102 175.75 88.4602 179.35C86.1202 178.41 85.3002 175.95 83.1402 174.63Z" fill="white"/>
<path d="M52.3502 186.63C52.5102 186.58 52.6702 186.52 52.8202 186.47C52.7002 185.56 52.8802 184.29 52.3702 183.85C51.7902 183.36 50.5302 183.44 49.6402 183.63C48.6902 183.83 47.8302 184.45 46.6802 185.02C47.7302 187 48.6802 188.82 49.6802 190.61C49.8302 190.87 50.2502 190.98 50.5402 191.16C50.5802 190.79 50.7302 190.38 50.6302 190.06C50.4102 189.4 50.0602 188.77 49.7802 188.19C51.1402 186.68 52.0202 187.89 53.0102 188.5C53.6102 188.87 54.2202 189.84 55.0102 188.63C54.1002 187.96 53.2202 187.3 52.3502 186.63ZM51.7402 185.26C51.0502 186 50.2802 186.65 49.3602 187.49C48.8502 186.57 48.5702 186.04 48.0802 185.15C49.2302 184.85 50.2302 184.56 51.2402 184.38C51.3602 184.36 51.8102 185.18 51.7402 185.26Z" fill="white"/>
<path d="M73.7802 176.12C71.9502 174.69 70.1402 175.75 68.2002 176.31C68.9102 178.62 69.5602 180.73 70.2702 183.05C72.3202 182.56 74.3402 182.37 75.0102 180.19C75.4902 178.65 75.0702 177.13 73.7802 176.12ZM73.8202 179.84C73.5402 180.74 72.3802 181.37 71.6002 182.12C71.4202 181.99 71.2302 181.85 71.0402 181.71C70.5802 180.13 70.1102 178.54 69.4702 176.35C70.9302 176.6 72.2402 176.46 72.9602 177.05C73.6202 177.58 74.0702 179.03 73.8202 179.84Z" fill="white"/>
<path d="M123.36 172.78C121.31 172.72 120.04 174.09 119.96 176.46C119.89 178.61 121.08 180.05 122.99 180.12C124.9 180.18 126.36 178.5 126.44 176.16C126.51 174.09 125.36 172.83 123.36 172.78ZM123.11 179.16C121.93 179.2 121.14 178.27 121.1 176.8C121.06 175.14 122 173.69 123.16 173.61C124.3 173.53 125.3 174.58 125.3 175.88C125.31 177.6 124.3 179.11 123.11 179.16Z" fill="white"/>
<path d="M102.15 171.83C101.79 170.92 100.72 170.69 100.36 171.53C99.4401 173.69 98.8501 175.97 98.0801 178.36C100.1 178.52 99.2201 176.15 101.12 176.02C103.13 175.89 102.44 178.46 104.4 178.15C103.61 175.91 102.94 173.84 102.15 171.83ZM100.17 175.27C100.46 174.34 100.69 173.59 100.92 172.84C101.04 172.81 101.16 172.79 101.29 172.77C101.56 173.5 101.83 174.23 102.16 175.12C101.43 175.17 100.91 175.21 100.17 175.27Z" fill="white"/>
<path d="M63.7902 179.91C63.3702 179.71 62.9602 179.37 62.5402 179.36C61.9802 179.35 61.3802 179.53 60.8602 179.76C60.6902 179.84 60.5602 180.55 60.6702 180.63C61.0702 180.93 61.5602 181.2 62.0502 181.29C62.8102 181.43 63.6202 181.31 64.3702 181.48C65.5202 181.74 66.2302 183.03 65.5802 183.91C65.0402 184.64 64.0902 185.3 63.2102 185.48C62.4202 185.64 61.4902 185.1 60.6202 184.87C60.6802 184.62 60.7402 184.37 60.8002 184.12C61.2102 184.19 61.6202 184.26 62.0302 184.31C62.5702 184.38 63.1802 184.61 63.6302 184.44C64.0402 184.28 64.4802 183.7 64.5302 183.26C64.5702 182.98 63.9802 182.46 63.5802 182.32C63.0802 182.15 62.4802 182.26 61.9202 182.26C60.0802 182.25 59.2702 181.65 59.3802 180.38C59.4802 179.22 61.0502 178.08 62.4002 178.33C63.0402 178.45 63.6202 178.9 64.2202 179.21C64.0802 179.45 63.9302 179.68 63.7902 179.91Z" fill="white"/>
<path d="M151.1 188.67L151.11 188.68C151.09 188.69 151.07 188.7 151.05 188.72L151.1 188.67Z" fill="white"/>
<path d="M159.03 185.38L156.15 186.72L156.46 190.92C156.39 191.08 156.34 191.18 156.34 191.19C154.51 190.64 155.79 188.8 154.95 187.85C153.61 187.76 152.75 190.07 151.12 188.69C152.3 187.98 153.84 187.49 154.49 186.45C155.07 185.53 154.61 183.95 154.61 182.59C156.4 182.9 155.45 184.53 156.09 185.43C157.08 185.11 158.13 184.77 159.52 184.32C159.47 184.42 159.28 184.82 159.03 185.38Z" fill="white"/>
<path d="M151.1 188.67C149.62 188.05 148.15 187.42 146.46 186.72C147.38 184.51 148.27 182.4 149.23 180.1C150.88 180.8 152.36 181.42 153.84 182.05C153.76 182.28 153.68 182.51 153.6 182.75C152.45 182.35 151.3 181.95 150.01 181.51C149.75 182.08 149.5 182.61 149.23 183.21C150.08 183.66 150.82 184.05 151.56 184.44C151.5 184.61 151.45 184.78 151.39 184.95C150.56 184.75 149.72 184.55 148.77 184.32C148.52 184.91 148.26 185.51 147.93 186.28C148.83 186.71 149.7 187.03 150.46 187.53C150.78 187.74 150.87 188.31 151.06 188.72C151.05 188.72 151.1 188.67 151.1 188.67Z" fill="white"/>
<path d="M53.3101 181.76C55.0201 181.09 56.5001 180.51 57.9701 179.93C58.0601 180.15 58.1601 180.36 58.2501 180.58C57.1701 181.09 56.0801 181.6 54.8701 182.17C55.1201 182.76 55.3501 183.3 55.6001 183.87C56.5301 183.63 57.3701 183.42 58.2001 183.2C58.2601 183.37 58.3301 183.54 58.3901 183.72C57.7001 184.08 57.0101 184.45 56.1201 184.92C56.3801 185.53 56.6401 186.16 56.9601 186.9C58.2401 186.49 59.4301 186.11 60.6201 185.73C60.7001 185.94 60.7801 186.16 60.8601 186.37C59.4001 187 57.9401 187.64 56.3301 188.34C55.3201 186.15 54.3801 184.09 53.3101 181.76Z" fill="white"/>
<path d="M75.4902 174.27C77.3502 173.93 78.8702 173.66 80.3902 173.38C80.4402 173.59 80.4902 173.8 80.5402 174.01C79.3702 174.34 78.2102 174.66 76.9402 175.02C77.0602 175.61 77.1602 176.14 77.2902 176.79C78.2202 176.72 79.0802 176.66 79.9402 176.6C79.9702 176.76 80.0102 176.93 80.0402 177.09C79.2702 177.37 78.4902 177.65 77.5902 177.97C77.7602 178.7 77.9102 179.38 78.0702 180.09C79.3902 179.89 80.5802 179.72 81.7602 179.54C81.8102 179.78 81.8502 180.03 81.9002 180.27C80.4002 180.56 78.9102 180.87 77.4002 181.13C77.3002 181.15 77.0602 180.84 77.0102 180.66C76.5102 178.6 76.0302 176.55 75.4902 174.27Z" fill="white"/>
<path d="M140.86 177.25C139.88 176.62 138.64 176.41 137.36 175.97C136.65 178.4 136.01 180.59 135.37 182.78C135.59 182.89 135.82 183 136.04 183.11C136.51 182.21 136.99 181.31 137.49 180.35C138.24 180.52 139.1 180.97 139.83 180.8C140.61 180.62 141.6 180 141.86 179.32C142.06 178.81 141.44 177.62 140.86 177.25ZM140.5 179.52C139.62 179.61 138.73 179.57 137.51 179.57C137.84 178.54 138.03 177.92 138.34 176.97C139.24 177.54 140.03 177.97 140.72 178.52C140.84 178.63 140.62 179.51 140.5 179.52Z" fill="white"/>
<path d="M118.96 176.79C118.95 178.47 117.96 179.34 116.41 179.19C115.16 179.07 114.1 178.55 113.76 177.24C113.32 175.55 113.36 173.87 114.69 172.55C115.68 171.57 116.91 171.59 118.12 172.13C118.51 172.3 118.93 172.61 119.11 172.96C119.31 173.35 119.26 173.86 119.31 174.33C118.97 174.1 118.54 173.95 118.31 173.64C117.38 172.37 115.72 172.42 115.12 173.87C114.81 174.61 114.64 175.53 114.78 176.3C114.9 176.96 115.44 177.84 116.01 178.04C116.53 178.23 117.34 177.68 118 177.41C118.31 177.28 118.58 177.04 118.96 176.79Z" fill="white"/>
<path d="M94.8403 172.05C93.8703 172.31 93.2403 172.48 92.4203 172.7C92.5503 174.67 92.6703 176.71 92.8203 179.05C91.1903 178.26 91.6403 177.08 91.4803 176.16C91.2903 175.12 91.2303 174.06 91.1003 172.9C90.3503 172.83 89.6203 172.77 88.8003 172.7C89.6703 171.69 93.0303 171.25 94.8403 172.05Z" fill="white"/>
<path d="M142.87 184.24C143.98 184.75 144.94 185.2 145.89 185.64C145.81 185.86 145.73 186.07 145.64 186.29C144.26 185.8 142.88 185.32 141.38 184.79C142.14 182.7 142.78 180.82 143.51 178.97C143.63 178.67 144.1 178.5 144.41 178.27C144.49 178.65 144.72 179.08 144.61 179.4C144.09 181.02 143.47 182.61 142.87 184.24Z" fill="white"/>
<path d="M106.59 177.34C107.71 177.46 108.74 177.57 109.77 177.69C109.76 177.87 109.75 178.06 109.73 178.24C108.31 178.24 106.89 178.24 105.44 178.24C105.44 176.13 105.42 174.09 105.46 172.05C105.47 171.75 105.8 171.46 105.98 171.17C106.18 171.5 106.54 171.82 106.55 172.15C106.62 173.86 106.59 175.57 106.59 177.34Z" fill="white"/>
<path d="M96.3602 178.54C96.2202 177.96 95.9902 177.39 95.9402 176.8C95.8102 175.25 95.7402 173.7 95.7002 172.15C95.6902 171.9 95.9902 171.65 96.1502 171.4C96.3802 171.59 96.7802 171.76 96.8002 171.96C96.9402 174 97.0202 176.04 97.1002 178.09C97.1102 178.29 96.9402 178.49 96.8502 178.69C96.6802 178.64 96.5202 178.59 96.3602 178.54Z" fill="white"/>
<path d="M65.81 176.57C66.28 177.2 66.53 177.42 66.62 177.69C67.2 179.37 67.7801 181.06 68.2801 182.77C68.3701 183.08 68.1 183.5 68 183.87C67.74 183.65 67.3301 183.48 67.2301 183.19C66.6001 181.46 66.0201 179.72 65.4801 177.96C65.3901 177.68 65.62 177.3 65.81 176.57Z" fill="white"/>
</svg>
