<svg width="24" height="21" viewBox="0 0 24 21" fill="none" xmlns="http://www.w3.org/2000/svg">
<path fill-rule="evenodd" clip-rule="evenodd" d="M17.861 2.76767C17.9137 2.78305 17.967 2.79864 18.0211 2.81441L19.2231 3.16501C19.6863 3.30005 20.0922 3.41842 20.4142 3.54951C20.7623 3.69122 21.0814 3.87375 21.3253 4.16985C21.5692 4.46596 21.6662 4.78852 21.7098 5.12232C21.7501 5.43109 21.75 5.80547 21.75 6.23261V13.4186C21.75 14.0298 21.75 14.5452 21.6959 14.9526C21.6397 15.3759 21.5136 15.7944 21.161 16.132C20.9519 16.3323 20.6978 16.4925 20.4146 16.6028C19.9371 16.7887 19.4435 16.761 18.9667 16.6738C18.5078 16.5899 17.949 16.4269 17.2865 16.2336L17.2438 16.2212C16.1233 15.8944 15.7393 15.7925 15.3665 15.8037C15.218 15.8081 15.0703 15.8254 14.9257 15.8553C14.5627 15.9304 14.2229 16.1171 13.2401 16.6904L11.8577 17.4967C11.8103 17.5244 11.7635 17.5517 11.7173 17.5787C10.6558 18.1986 9.91754 18.6298 9.05448 18.7309C8.19141 18.8321 7.3495 18.5861 6.13896 18.2323C6.08632 18.217 6.03298 18.2014 5.97892 18.1856L4.77683 17.835C4.31373 17.7 3.90783 17.5816 3.5858 17.4505C3.23766 17.3088 2.91861 17.1263 2.67471 16.8302C2.4308 16.5341 2.33379 16.2115 2.29024 15.8777C2.24995 15.5689 2.24997 15.1945 2.25 14.7674L2.25 7.58139C2.24998 6.97026 2.24996 6.45484 2.3041 6.04739C2.36035 5.62407 2.48645 5.20559 2.83896 4.86801C3.04807 4.66776 3.30221 4.50748 3.58544 4.39723C4.06293 4.21136 4.55653 4.23902 5.03328 4.32619C5.49217 4.4101 6.05097 4.5731 6.71356 4.76638L6.75619 4.77881C7.87675 5.10564 8.26073 5.20747 8.63351 5.19633C8.78204 5.19189 8.9297 5.17459 9.07432 5.14467C9.43731 5.0696 9.77714 4.88296 10.7599 4.30966L12.1423 3.50327C12.1897 3.47561 12.2365 3.44829 12.2827 3.42134C13.3442 2.80137 14.0825 2.3702 14.9455 2.26907C15.8086 2.16794 16.6505 2.41394 17.861 2.76767ZM15.75 3.59226V14.5069C16.2857 14.5577 16.8498 14.7224 17.5931 14.9395C17.6342 14.9515 17.6759 14.9637 17.7182 14.9761C18.4348 15.1851 18.9103 15.3227 19.2735 15.3891C19.6287 15.454 19.7505 15.4248 19.8049 15.4036C19.8993 15.3669 19.984 15.3134 20.0537 15.2467C20.0938 15.2083 20.164 15.1164 20.2059 14.801C20.2488 14.4785 20.25 14.0403 20.25 13.3793V6.267C20.25 5.79532 20.2489 5.49666 20.2195 5.2712C20.1922 5.0625 20.1477 4.98491 20.1084 4.93729C20.0692 4.88966 19.9992 4.82814 19.7815 4.73954C19.5464 4.64382 19.2229 4.54844 18.7115 4.39928L17.5467 4.05955C16.6604 3.80104 16.1345 3.65394 15.75 3.59226ZM14.25 14.6647V3.8792C13.9388 4.03655 13.5397 4.26558 12.9744 4.59534L11.592 5.40172C11.5549 5.42335 11.5184 5.44469 11.4823 5.46576C10.794 5.86763 10.281 6.1672 9.75 6.33535V17.1208C10.0612 16.9635 10.4603 16.7344 11.0256 16.4047L12.408 15.5983C12.4451 15.5767 12.4816 15.5553 12.5177 15.5343C13.206 15.1324 13.719 14.8328 14.25 14.6647ZM8.25 17.4078V6.49316C7.71431 6.44235 7.15021 6.27758 6.40693 6.06048C6.36579 6.04846 6.32411 6.03628 6.28185 6.02396C5.5652 5.81494 5.08969 5.67736 4.72647 5.61094C4.37129 5.546 4.2495 5.57525 4.19515 5.59641C4.10074 5.63316 4.01603 5.68659 3.94632 5.75334C3.9062 5.79176 3.83597 5.88361 3.79406 6.19898C3.75121 6.52149 3.75 6.95972 3.75 7.6207V14.733C3.75 15.2047 3.75114 15.5034 3.78055 15.7288C3.80779 15.9375 3.85234 16.0151 3.89157 16.0627C3.9308 16.1104 4.00083 16.1719 4.21849 16.2605C4.45364 16.3562 4.77709 16.4516 5.28849 16.6007L6.45326 16.9405C7.33961 17.199 7.86547 17.3461 8.25 17.4078Z" fill="#00031B"/>
</svg>
