<svg width="214" height="323" viewBox="0 0 214 323" fill="none" xmlns="http://www.w3.org/2000/svg">
<g filter="url(#filter0_d_20_341)">
<path d="M4 125.15L210 41.8201V249.82H4V125.15Z" fill="#AA9D66"/>
<path d="M4 125.15L210 41.8201V249.82H4V125.15Z" fill="url(#paint0_linear_20_341)" fill-opacity="0.3"/>
<path d="M210 125.15L4 0V314.72H210V125.15Z" fill="#000C49"/>
<path d="M82.86 244.72C82.68 240.29 82.44 235.86 82.34 231.43C81.7 204.44 81.1 177.45 80.46 150.46C80.44 149.75 80.4 148.84 79.98 148.38C76.21 144.26 72.35 140.22 68.32 135.95C68.18 136.57 68.04 136.91 68.04 137.26C68.19 162.84 68.34 188.42 68.5 213.99C68.54 220.59 68.91 227.22 66.6 233.61C63.2 243 56.62 248.59 46.81 250.38C46.25 250.48 45.67 250.44 45 250C45.66 249.8 46.31 249.59 46.98 249.41C57.72 246.53 64.23 239.05 64.61 227.96C64.99 216.71 64.65 205.43 64.61 194.16C64.59 188.96 64.54 183.77 64.49 178.57C64.48 177.81 64.43 177.05 64.1 176.31C62.57 187.18 61.02 198.05 59.57 208.93C59.45 209.84 59.77 210.93 60.22 211.76C61.46 214.03 62.87 216.19 64.22 218.4C64.03 218.54 63.84 218.69 63.66 218.83C62.61 217.71 61.69 216.43 60.5 215.49C57.17 212.85 56.65 209.82 57.63 205.66C59.79 196.47 61.04 187.08 63.15 177.88C65.32 168.42 63.96 158.93 64.16 149.47C64.31 142.46 64.08 135.43 64.04 128.42C64.04 127.78 64.17 127.15 64.3 126C65.2 126.73 65.8 127.12 66.27 127.61C71.93 133.58 77.61 139.54 83.18 145.6C83.91 146.39 84.4 147.74 84.39 148.82C84.12 174.39 83.75 199.97 83.42 225.54C83.35 231.27 83.34 237.01 83.29 242.75C83.28 243.41 83.21 244.06 83.17 244.72C83.04 244.71 82.95 244.72 82.86 244.72Z" fill="white"/>
<path d="M139.76 158.5C135.55 162.81 131.72 166.69 127.97 170.64C127.53 171.1 127.36 171.97 127.34 172.66C126.85 191.48 126.4 210.29 125.94 229.11C125.81 234.35 125.64 239.59 125.5 244.83C125.31 244.84 125.11 244.86 124.92 244.87C124.88 243.81 124.82 242.75 124.8 241.69C124.33 218.62 123.88 195.55 123.37 172.48C123.33 170.74 123.76 169.43 125.01 168.17C130.67 162.48 136.25 156.7 141.86 150.96C142.31 150.5 142.8 150.09 143.27 149.65C143.46 149.71 143.65 149.78 143.84 149.84C143.17 173.21 142.49 196.58 141.82 219.95C141.59 219.95 141.35 219.95 141.12 219.95C140.66 199.67 140.21 179.37 139.76 158.5Z" fill="white"/>
<path d="M148.68 236.6C148.47 231.35 148.22 226.1 148.06 220.85C147.72 209.58 147.46 198.31 147.09 187.05C147.03 185.1 147.52 183.64 148.96 182.22C154.58 176.67 160.06 170.99 165.6 165.36C166.05 164.9 166.54 164.48 167.01 164.04C167.2 164.1 167.39 164.16 167.59 164.22C166.85 191.36 166.11 218.51 165.37 245.65C165.15 245.65 164.93 245.65 164.71 245.65C164.3 221.6 163.89 197.56 163.48 173.33C163.13 173.46 162.85 173.48 162.71 173.63C159.16 177.24 155.59 180.83 152.13 184.52C151.52 185.17 151.09 186.25 151.05 187.16C150.41 203.07 149.84 218.99 149.25 234.9C149.23 235.48 149.1 236.06 149.02 236.64C148.9 236.62 148.79 236.61 148.68 236.6Z" fill="white"/>
<path d="M112.04 218.56C111.61 228.67 111.2 238.13 110.79 247.6C110.59 247.61 110.38 247.62 110.18 247.63C109.65 239.89 109.13 232.15 108.58 224C105.85 225.76 103.29 227.32 100.86 229.06C100.39 229.39 100.32 230.38 100.2 231.09C99.72 233.99 99.29 236.89 98.84 239.8C98.64 239.8 98.44 239.8 98.24 239.8C98.03 237.71 97.85 235.62 97.6 233.53C96.96 228.29 96.95 228.28 101.41 225.41C104.77 223.21 108.15 221.05 112.04 218.56Z" fill="white"/>
<path d="M102.02 218.19C102.51 218.5 103.01 218.81 103.63 219.21C104.84 217.87 106.01 216.58 107.32 215.13C105.84 213.94 104.45 212.81 102.93 211.58C102.22 212.19 101.25 213.04 100.27 213.89C100.2 213.81 100.12 213.73 100.05 213.64C101.3 212.31 102.54 210.98 103.93 209.5C105.63 211.25 107.3 212.97 109.17 214.9C107.31 216.8 105.55 218.59 103.61 220.56C102.9 219.76 102.34 219.14 101.78 218.51C101.85 218.41 101.93 218.3 102.02 218.19Z" fill="white"/>
<path d="M48.14 211.15C49.79 209.51 51.3 208.02 52.99 206.35C53.71 207.32 54.27 208.08 54.83 208.84C54.76 208.9 54.69 208.97 54.63 209.03C54.13 208.64 53.62 208.26 52.99 207.77C52.01 208.78 51.08 209.73 50 210.85C51.06 211.92 52.07 212.95 53.24 214.13C54.08 213.41 54.87 212.73 55.65 212.06C55.73 212.14 55.82 212.22 55.9 212.3C54.82 213.35 53.73 214.4 52.48 215.62C51.17 214.26 49.74 212.79 48.14 211.15Z" fill="white"/>
</g>
<defs>
<filter id="filter0_d_20_341" x="0" y="0" width="214" height="322.72" filterUnits="userSpaceOnUse" color-interpolation-filters="sRGB">
<feFlood flood-opacity="0" result="BackgroundImageFix"/>
<feColorMatrix in="SourceAlpha" type="matrix" values="0 0 0 0 0 0 0 0 0 0 0 0 0 0 0 0 0 0 127 0" result="hardAlpha"/>
<feOffset dy="4"/>
<feGaussianBlur stdDeviation="2"/>
<feComposite in2="hardAlpha" operator="out"/>
<feColorMatrix type="matrix" values="0 0 0 0 0 0 0 0 0 0 0 0 0 0 0 0 0 0 0.25 0"/>
<feBlend mode="normal" in2="BackgroundImageFix" result="effect1_dropShadow_20_341"/>
<feBlend mode="normal" in="SourceGraphic" in2="effect1_dropShadow_20_341" result="shape"/>
</filter>
<linearGradient id="paint0_linear_20_341" x1="185.831" y1="76.9706" x2="144.824" y2="134.459" gradientUnits="userSpaceOnUse">
<stop stop-opacity="0"/>
<stop offset="0.1628" stop-color="#040404" stop-opacity="0.3338"/>
<stop offset="0.3325" stop-color="#110F0F" stop-opacity="0.6818"/>
<stop offset="0.4877" stop-color="#231F20"/>
</linearGradient>
</defs>
</svg>
