<svg width="276" height="230" viewBox="0 0 276 230" fill="none" xmlns="http://www.w3.org/2000/svg">
<path d="M98.7899 211.2C98.4799 203.32 98.0499 195.45 97.8599 187.57C96.7299 139.59 95.66 91.6001 94.52 43.6201C94.49 42.3601 94.4099 40.7301 93.6599 39.9201C86.9599 32.6001 80.0999 25.4101 72.9299 17.8101C72.6899 18.9101 72.4299 19.5201 72.4299 20.1401C72.6899 65.6101 72.9699 111.08 73.2399 156.56C73.3099 168.3 73.9699 180.07 69.8499 191.44C63.7999 208.14 52.1099 218.08 34.6599 221.25C33.6699 221.43 32.6299 221.35 31.4399 220.57C32.6099 220.22 33.7799 219.84 34.9599 219.53C54.0499 214.4 65.6399 201.11 66.3099 181.39C66.9899 161.39 66.3799 141.34 66.3099 121.31C66.2799 112.07 66.1799 102.83 66.1099 93.59C66.0999 92.24 66.0099 90.89 65.4099 89.57C62.6999 108.89 59.9399 128.21 57.3499 147.55C57.1299 149.16 57.6999 151.11 58.4999 152.57C60.6999 156.6 63.2199 160.45 65.6099 164.37C65.2799 164.63 64.9399 164.88 64.6099 165.14C62.7499 163.14 61.0999 160.88 58.9799 159.2C53.0599 154.51 52.1399 149.11 53.8799 141.72C57.7099 125.39 59.95 108.69 63.7 92.34C67.56 75.53 65.1399 58.66 65.4999 41.82C65.7699 29.35 65.3599 16.8701 65.2799 4.39008C65.2699 3.26008 65.5099 2.12009 65.7299 0.0900879C67.34 1.40009 68.3899 2.07008 69.2299 2.96008C79.2999 13.5801 89.3899 24.17 99.2899 34.95C100.58 36.36 101.46 38.7501 101.44 40.6801C100.96 86.1501 100.31 131.61 99.7199 177.08C99.5899 187.28 99.5699 197.47 99.4899 207.67C99.4799 208.84 99.35 210 99.28 211.17C99.12 211.17 98.9599 211.18 98.7899 211.2Z" fill="white"/>
<path d="M199.94 57.9202C192.46 65.5802 185.65 72.4701 178.98 79.5001C178.2 80.3201 177.89 81.8701 177.86 83.1001C176.99 116.55 176.19 150 175.36 183.45C175.13 192.77 174.83 202.09 174.57 211.4C174.23 211.43 173.89 211.45 173.54 211.47C173.46 209.58 173.36 207.7 173.32 205.81C172.48 164.8 171.68 123.78 170.77 82.7701C170.7 79.6801 171.46 77.3401 173.69 75.1001C183.76 64.9901 193.67 54.7101 203.64 44.5101C204.44 43.6901 205.31 42.9602 206.15 42.1802C206.49 42.2902 206.82 42.4101 207.16 42.5201C205.96 84.0701 204.77 125.62 203.57 167.17C203.16 167.17 202.74 167.17 202.32 167.17C201.55 131.1 200.76 95.0202 199.94 57.9202Z" fill="white"/>
<path d="M215.81 196.76C215.44 187.42 214.99 178.09 214.71 168.75C214.11 148.72 213.64 128.69 212.99 108.66C212.88 105.19 213.76 102.6 216.32 100.07C226.31 90.2099 236.05 80.1 245.9 70.1C246.7 69.28 247.57 68.53 248.41 67.75C248.75 67.86 249.09 67.9599 249.43 68.0699C248.11 116.33 246.79 164.58 245.48 212.84C245.09 212.84 244.7 212.84 244.31 212.83C243.59 170.08 242.86 127.33 242.13 84.27C241.51 84.5 241.01 84.5401 240.75 84.8101C234.44 91.2301 228.09 97.6 221.94 104.16C220.85 105.32 220.09 107.24 220.02 108.85C218.88 137.14 217.87 165.43 216.82 193.73C216.78 194.76 216.55 195.79 216.41 196.82C216.21 196.79 216.01 196.78 215.81 196.76Z" fill="white"/>
<path d="M0.169891 227.3C91.8599 226.8 183.56 226.29 275.25 225.79C275.25 226.29 275.26 226.79 275.26 227.28C183.55 229.05 91.8399 229.98 0.109863 228.67C0.129863 228.22 0.149891 227.76 0.169891 227.3Z" fill="white"/>
<path d="M150.66 164.68C149.89 182.65 149.16 199.48 148.44 216.3C148.08 216.32 147.72 216.34 147.35 216.36C146.42 202.6 145.48 188.83 144.5 174.34C139.65 177.47 135.1 180.25 130.77 183.33C129.94 183.92 129.81 185.68 129.6 186.94C128.74 192.09 127.98 197.26 127.18 202.42C126.82 202.42 126.47 202.42 126.11 202.42C125.73 198.71 125.42 194.99 124.97 191.28C123.84 181.96 123.81 181.95 131.74 176.84C137.74 172.96 143.76 169.11 150.66 164.68Z" fill="white"/>
<path d="M132.86 164.03C133.74 164.59 134.62 165.14 135.73 165.84C137.88 163.46 139.95 161.17 142.28 158.59C139.65 156.47 137.17 154.46 134.47 152.28C133.21 153.37 131.48 154.88 129.75 156.39C129.62 156.24 129.48 156.1 129.35 155.95C131.57 153.58 133.78 151.21 136.24 148.58C139.26 151.69 142.23 154.75 145.55 158.18C142.24 161.55 139.11 164.74 135.66 168.25C134.39 166.83 133.4 165.72 132.4 164.61C132.55 164.41 132.7 164.22 132.86 164.03Z" fill="white"/>
<path d="M37.0698 151.51C40.0098 148.59 42.6898 145.95 45.6898 142.97C46.9698 144.7 47.9598 146.05 48.9598 147.41C48.8398 147.52 48.7198 147.64 48.5998 147.75C47.6998 147.06 46.7998 146.37 45.6898 145.51C43.9498 147.31 42.2998 149 40.3698 150.98C42.2498 152.88 44.0598 154.71 46.1298 156.8C47.6198 155.52 49.0198 154.32 50.4198 153.11C50.5698 153.25 50.7198 153.39 50.8698 153.53C48.9498 155.4 47.0198 157.27 44.7998 159.43C42.4598 157.05 39.9198 154.43 37.0698 151.51Z" fill="white"/>
</svg>
