<svg width="167" height="193" viewBox="0 0 167 193" fill="none" xmlns="http://www.w3.org/2000/svg">
<path d="M59.9567 70.0999C59.3685 72.096 59.3825 74.2224 59.997 76.2105C60.6115 78.1985 61.7989 79.9588 63.409 81.2687C65.0192 82.5787 66.9797 83.3795 69.0427 83.5698C71.1058 83.7602 73.1787 83.3316 74.9993 82.3382C76.82 81.3449 78.3066 79.8313 79.2711 77.989C80.2357 76.1467 80.635 74.0584 80.4184 71.9881C80.2018 69.9178 79.3791 67.9585 78.0543 66.358C76.7296 64.7576 74.9623 63.5877 72.9759 62.9965C70.3119 62.2041 67.4439 62.5074 65.0025 63.8395C62.561 65.1716 60.7461 67.4234 59.9567 70.0999Z" fill="#E7E7E7"/>
<path d="M54.5787 44.5512C50.8425 46.5764 47.5434 49.3264 44.8724 52.6419C42.2014 55.9574 40.2117 59.7724 39.0185 63.8661C38.7865 64.6427 38.7094 65.4577 38.7917 66.2644C38.8739 67.071 39.1138 67.8534 39.4976 68.5666C39.8814 69.2799 40.4016 69.91 41.0283 70.4208C41.6551 70.9316 42.376 71.3131 43.1497 71.5433C43.9235 71.7735 44.7348 71.848 45.5373 71.7624C46.3398 71.6769 47.1175 71.433 47.826 71.0447C48.5344 70.6565 49.1596 70.1315 49.6657 69.4999C50.1718 68.8683 50.5488 68.1426 50.7751 67.3642C51.5223 64.8272 52.7597 62.463 54.4165 60.4065C56.0732 58.3501 58.117 56.6417 60.431 55.3791C62.7449 54.1164 65.2838 53.3242 67.9025 53.0476C70.5212 52.7711 73.1685 53.0156 75.6932 53.7673C76.4661 54.0003 77.2772 54.0778 78.08 53.9951C78.8827 53.9125 79.6614 53.6715 80.3712 53.2858C81.0811 52.9001 81.7082 52.3775 82.2165 51.7477C82.7249 51.118 83.1045 50.3936 83.3336 49.6162C83.5628 48.8387 83.6369 48.0234 83.5517 47.2171C83.4666 46.4107 83.2238 45.6292 82.8374 44.9174C82.451 44.2055 81.9286 43.5773 81.3 43.0688C80.6715 42.5603 79.9492 42.1815 79.1746 41.9541C75.1077 40.7308 70.8396 40.3304 66.6177 40.7762C62.3957 41.222 58.3037 42.5051 54.5787 44.5512Z" fill="#E7E7E7"/>
<path d="M44.9449 26.7249C38.8741 30.0159 33.5133 34.4842 29.1728 39.8711C24.8323 45.258 21.5984 51.4565 19.6581 58.1078C19.1964 59.6743 19.373 61.3609 20.1489 62.7967C20.9248 64.2324 22.2366 65.2996 23.7956 65.7636C25.3546 66.2275 27.0332 66.0501 28.4621 65.2705C29.8909 64.4908 30.953 63.1727 31.4147 61.6062C32.9148 56.5146 35.3983 51.7698 38.7235 47.6427C42.0487 43.5156 46.1505 40.0871 50.7945 37.553C55.4385 35.0189 60.5338 33.4288 65.7894 32.8736C71.0451 32.3183 76.3581 32.8088 81.4251 34.317C82.198 34.55 83.0091 34.6275 83.8119 34.5448C84.6146 34.4622 85.3933 34.2212 86.1031 33.8355C86.813 33.4498 87.44 32.9271 87.9484 32.2974C88.4568 31.6677 88.8364 30.9433 89.0655 30.1658C89.2947 29.3884 89.3688 28.5731 89.2836 27.7668C89.1985 26.9604 88.9557 26.1789 88.5693 25.4671C88.1829 24.7552 87.6605 24.127 87.0319 23.6185C86.4034 23.11 85.6811 22.7312 84.9065 22.5038C78.2987 20.517 71.3643 19.867 64.5048 20.5916C57.6454 21.3161 50.9971 23.4008 44.9449 26.7249Z" fill="#E7E7E7"/>
<path d="M90.6546 3.00957C81.4958 0.283515 71.8923 -0.603004 62.3925 0.400641C52.8927 1.40429 43.6827 4.27843 35.2884 8.85895C26.8942 13.4395 19.4801 19.6366 13.4697 27.0965C7.45924 34.5564 2.97012 43.1329 0.2587 52.3362C0.0267564 53.1129 -0.0503171 53.9278 0.0319083 54.7345C0.114134 55.5411 0.354036 56.3235 0.737855 57.0368C1.12167 57.75 1.64186 58.3801 2.26857 58.8909C2.89528 59.4017 3.61619 59.7832 4.38995 60.0134C5.1637 60.2436 5.97508 60.3181 6.77755 60.2326C7.58001 60.147 8.35777 59.9031 9.06621 59.5148C9.77466 59.1266 10.3998 58.6016 10.9059 57.97C11.412 57.3384 11.789 56.6127 12.0153 55.8344C14.2694 48.1826 18.0015 41.0521 22.9985 34.8498C27.9955 28.6476 34.1595 23.4952 41.1385 19.687C48.1175 15.8788 55.7748 13.4893 63.6729 12.655C71.5711 11.8208 79.5555 12.558 87.17 14.8247C88.7268 15.2805 90.3998 15.0982 91.8231 14.3177C93.2464 13.5371 94.3041 12.2219 94.7648 10.6598C95.2255 9.09771 95.0517 7.41582 94.2814 5.98212C93.5112 4.54843 92.2071 3.47964 90.6546 3.00957Z" fill="#E7E7E7"/>
<path d="M76.8921 112.547L54.6459 112.614C54.4912 112.615 54.3383 112.58 54.1996 112.511C54.0609 112.442 53.9403 112.342 53.8475 112.217C53.7546 112.093 53.6921 111.948 53.6651 111.795C53.6381 111.642 53.6472 111.485 53.6918 111.336L64.3546 75.6144L69.1084 59.4764C69.2321 59.0617 69.4967 58.7041 69.8552 58.4671C70.2137 58.2302 70.6429 58.1292 71.0669 58.182C74.0018 58.5183 77.8406 58.6415 82.5833 58.5519C103.284 58.2045 123.951 58.0308 144.585 58.0308C144.668 58.0307 144.751 58.0497 144.826 58.0862C144.901 58.1228 144.966 58.1759 145.017 58.2413C145.067 58.3066 145.101 58.3824 145.116 58.4626C145.131 58.5428 145.127 58.6252 145.104 58.7032L129.252 111.37C129.062 111.986 128.643 112.295 127.996 112.295L76.8921 112.547Z" fill="#124D2C"/>
<path d="M146.569 61.5303L160.011 106.621C160.045 106.745 160.049 106.875 160.022 107C159.995 107.126 159.938 107.244 159.856 107.344C159.773 107.444 159.667 107.524 159.546 107.578C159.426 107.631 159.294 107.656 159.161 107.651L153.213 107.522C152.42 107.501 152.024 107.114 152.024 106.363C152.007 103.899 152.075 101.645 151.497 99.2129C149.118 89.2823 146.79 79.4322 144.513 69.6627C143.742 66.3453 144.139 63.5862 145.702 61.3854C146.099 60.8379 146.387 60.8862 146.569 61.5303Z" fill="#124D2C"/>
<path d="M151.903 125.457C151.468 130.92 151.31 136.394 151.43 141.879C151.473 143.797 151.316 147.84 150.957 154.008C150.707 158.149 151.044 162.745 151.968 167.796C152.174 168.901 152.109 170.029 151.772 171.178C151.511 172.11 151.256 172.11 151.006 171.178C147.886 159.417 143.004 149.629 136.362 141.814C135.199 140.448 134.78 140.648 135.107 142.415C137.498 155.26 142.977 166.473 151.544 176.056C151.739 176.272 151.778 176.462 151.658 176.625C151.462 176.885 151.234 176.917 150.973 176.722C148.864 175.14 146.875 173.866 145.005 172.901C142.526 171.611 142.108 172.094 143.749 174.348C144.325 175.129 145.336 176.359 146.782 178.039C147.435 178.787 147.57 179.443 147.19 180.006L133.052 190.689C132.291 191.263 131.91 191.079 131.91 190.136C131.769 164.652 131.535 139.917 131.209 115.929C131.155 112.363 131.66 108.862 132.726 105.426C136.302 93.9032 139.689 82.6627 142.885 71.704C143.57 69.3301 144.157 69.3518 144.646 71.769C145.831 77.6223 147.168 83.5948 148.657 89.6866C149.984 95.1064 150.826 100.998 151.185 107.36C151.533 113.42 151.772 119.452 151.903 125.457ZM133.003 124.855C132.84 128.129 132.862 131.386 133.068 134.627C133.098 135.099 133.243 135.557 133.491 135.961C133.738 136.365 134.08 136.702 134.488 136.943C134.895 137.183 135.355 137.32 135.826 137.342C136.298 137.363 136.768 137.269 137.194 137.066C140.836 135.353 144.429 133.527 147.973 131.587C152.441 129.131 151.136 117.36 150.37 113.328C150.272 112.829 150.059 112.361 149.746 111.96C149.434 111.559 149.031 111.237 148.571 111.02C148.11 110.804 147.605 110.698 147.096 110.712C146.587 110.725 146.089 110.858 145.641 111.1C142.216 112.943 138.77 114.769 135.302 116.579C131.927 118.368 133.117 122.286 133.003 124.855Z" fill="white"/>
<path d="M132.317 124.859C132.435 122.275 131.204 118.333 134.695 116.534C138.281 114.712 141.845 112.875 145.387 111.021C145.85 110.778 146.365 110.644 146.892 110.63C147.418 110.616 147.94 110.723 148.417 110.941C148.893 111.159 149.309 111.483 149.632 111.886C149.956 112.289 150.177 112.761 150.277 113.262C151.07 117.319 152.419 129.161 147.798 131.631C144.133 133.583 140.417 135.421 136.651 137.144C136.21 137.348 135.724 137.443 135.237 137.421C134.749 137.4 134.273 137.262 133.852 137.02C133.431 136.778 133.077 136.439 132.821 136.032C132.565 135.626 132.415 135.165 132.384 134.69C132.17 131.43 132.148 128.153 132.317 124.859ZM146.415 130.814C146.69 130.671 146.92 130.459 147.081 130.2C147.241 129.94 147.326 129.644 147.326 129.341L147.376 114.374C147.379 114.085 147.305 113.8 147.16 113.547C147.014 113.294 146.804 113.082 146.549 112.931C146.293 112.781 146.002 112.698 145.704 112.69C145.406 112.682 145.11 112.75 144.847 112.886L134.846 118.006C134.571 118.148 134.341 118.36 134.181 118.619C134.02 118.879 133.936 119.175 133.936 119.478L133.919 134.527C133.919 134.815 133.996 135.098 134.142 135.349C134.288 135.599 134.499 135.809 134.754 135.957C135.009 136.106 135.299 136.187 135.596 136.195C135.893 136.202 136.186 136.134 136.448 135.999L146.415 130.814Z" fill="#00031B"/>
<path d="M82.2839 191.444L82.2991 191.445C82.7337 191.474 82.952 191.398 83.052 191.323C83.1258 191.267 83.207 191.159 83.203 190.874L83.203 190.87C83.1377 179.85 83.1268 168.83 83.1703 157.81C83.1813 153.268 83.7108 149.96 84.8353 147.984C86.9964 144.146 90.7043 142.172 95.8362 142.007C101.521 141.82 105.779 143.6 108.492 147.426L108.492 147.427C109.895 149.412 110.565 152.292 110.576 155.992C110.576 155.993 110.576 155.993 110.576 155.994L110.076 155.995C110.141 167.635 110.12 179.312 110.011 191.027L82.2839 191.444ZM82.2839 191.444L82.2686 191.444L61.1865 191.331H61.1838C61.0587 191.331 60.9352 191.307 60.8202 191.26C60.7051 191.212 60.6014 191.143 60.5147 191.057C60.4279 190.971 60.3597 190.868 60.3139 190.757C60.2681 190.645 60.2453 190.526 60.2467 190.406L60.2467 190.401L60.2631 182.765L60.2631 182.763L60.1815 118.985L60.1814 118.98L60.1161 113.417L60.1161 113.416C60.1117 113.071 60.1966 112.907 60.2795 112.824C60.3638 112.74 60.5344 112.653 60.8899 112.653L60.892 112.653L76.2096 112.588L76.2119 112.588L128.97 112.122C128.971 112.122 128.971 112.122 128.972 112.122C129.161 112.123 129.342 112.197 129.474 112.327C129.606 112.457 129.678 112.631 129.678 112.812V112.812L129.711 191.108C129.711 191.108 129.711 191.108 129.711 191.108C129.711 191.159 129.701 191.21 129.68 191.258L130.141 191.452L129.68 191.258C129.66 191.307 129.63 191.351 129.592 191.388C129.554 191.426 129.509 191.456 129.458 191.477L129.646 191.94L129.458 191.477C129.407 191.497 129.352 191.508 129.296 191.508H111.007C110.75 191.508 110.649 191.445 110.611 191.407C110.573 191.37 110.511 191.276 110.511 191.029L82.2839 191.444ZM84.797 120.351C84.7962 119.86 84.697 119.374 84.5055 118.921C84.314 118.468 84.034 118.057 83.6818 117.711C83.3296 117.366 82.9122 117.092 82.4536 116.906C81.9949 116.72 81.5038 116.625 81.0081 116.626L68.4013 116.647C67.9056 116.648 67.4149 116.745 66.9569 116.933C66.4989 117.121 66.0824 117.395 65.7314 117.742C65.3804 118.089 65.1018 118.501 64.9119 118.954C64.722 119.408 64.6247 119.894 64.6256 120.386C64.6256 120.386 64.6256 120.386 64.6256 120.386L64.6458 131.8C64.6467 132.291 64.7458 132.777 64.9373 133.23C65.1288 133.683 65.4088 134.094 65.7611 134.44C66.1132 134.785 66.5306 135.059 66.9893 135.245C67.448 135.431 67.9391 135.526 68.4347 135.525L81.0416 135.504C81.5372 135.503 82.028 135.406 82.486 135.218C82.9439 135.03 83.3605 134.756 83.7114 134.409C84.0624 134.062 84.341 133.65 84.5309 133.197C84.7208 132.743 84.8182 132.257 84.8173 131.765L84.797 120.351ZM123.879 120.337C123.881 119.358 123.487 118.419 122.787 117.728C122.088 117.037 121.14 116.649 120.152 116.647L107.513 116.626C106.525 116.624 105.576 117.009 104.874 117.697C104.171 118.386 103.775 119.323 103.773 120.303L103.752 131.814C103.751 132.793 104.144 133.732 104.844 134.423C105.543 135.114 106.492 135.502 107.479 135.503L120.119 135.525C121.106 135.527 122.056 135.142 122.758 134.454C123.46 133.765 123.857 132.828 123.858 131.848L123.879 120.337Z" fill="white" stroke="#00031B"/>
<path d="M146.19 130.979L136.618 136.233C136.366 136.371 136.084 136.439 135.798 136.432C135.513 136.424 135.235 136.341 134.99 136.191C134.745 136.041 134.543 135.829 134.402 135.574C134.262 135.32 134.188 135.033 134.188 134.742L134.204 119.493C134.204 119.186 134.286 118.886 134.44 118.623C134.594 118.36 134.815 118.145 135.079 118.001L144.684 112.813C144.937 112.675 145.221 112.607 145.507 112.615C145.794 112.623 146.073 112.707 146.319 112.859C146.564 113.011 146.766 113.226 146.905 113.483C147.045 113.739 147.117 114.028 147.114 114.321L147.065 129.487C147.065 129.794 146.984 130.094 146.83 130.357C146.676 130.62 146.455 130.835 146.19 130.979Z" fill="#124D2C"/>
<path d="M83.4788 131.195C83.4795 131.618 83.3967 132.038 83.2351 132.43C83.0734 132.821 82.836 133.177 82.5365 133.477C82.237 133.777 81.8812 134.015 81.4894 134.178C81.0977 134.341 80.6777 134.425 80.2534 134.426L67.8437 134.447C67.4194 134.448 66.9991 134.365 66.6068 134.204C66.2145 134.043 65.8579 133.806 65.5574 133.507C65.2568 133.208 65.0183 132.853 64.8552 132.462C64.6921 132.071 64.6078 131.651 64.6071 131.228L64.5872 119.836C64.5864 119.413 64.6692 118.993 64.8309 118.601C64.9926 118.21 65.2299 117.854 65.5294 117.554C65.8289 117.254 66.1848 117.016 66.5765 116.853C66.9682 116.69 67.3882 116.606 67.8125 116.605L80.2222 116.584C80.6465 116.583 81.0668 116.666 81.4591 116.827C81.8514 116.988 82.208 117.225 82.5085 117.524C82.8091 117.823 83.0477 118.178 83.2107 118.569C83.3738 118.96 83.4581 119.38 83.4589 119.803L83.4788 131.195ZM82.1311 119.86C82.1301 119.575 82.073 119.294 81.963 119.031C81.8531 118.769 81.6923 118.531 81.4901 118.33C81.2879 118.13 81.0482 117.971 80.7845 117.863C80.5208 117.755 80.2384 117.7 79.9534 117.701L70.4374 117.734C70.1524 117.735 69.8704 117.792 69.6075 117.902C69.3446 118.012 69.1059 118.172 68.9051 118.374C68.7043 118.576 68.5453 118.815 68.4372 119.078C68.329 119.342 68.2738 119.624 68.2748 119.908L68.314 131.075C68.3149 131.36 68.372 131.641 68.482 131.903C68.592 132.166 68.7526 132.404 68.9548 132.605C69.157 132.805 69.3969 132.964 69.6605 133.072C69.9242 133.18 70.2066 133.235 70.4916 133.234L80.0077 133.2C80.2926 133.199 80.5746 133.142 80.8375 133.033C81.1004 132.923 81.3391 132.763 81.5399 132.561C81.7407 132.359 81.8997 132.12 82.0079 131.856C82.116 131.593 82.1711 131.311 82.1701 131.027L82.1311 119.86Z" fill="#00031B"/>
<path d="M123.229 131.276C123.228 132.119 122.872 132.926 122.241 133.521C121.609 134.115 120.753 134.449 119.862 134.447L106.721 134.426C105.829 134.424 104.975 134.088 104.345 133.491C103.716 132.894 103.363 132.086 103.365 131.243L103.386 119.755C103.387 118.913 103.743 118.105 104.375 117.51C105.006 116.916 105.862 116.582 106.753 116.584L119.895 116.605C120.786 116.607 121.641 116.943 122.27 117.54C122.899 118.137 123.252 118.945 123.251 119.788L123.229 131.276ZM121.943 119.912C121.944 119.623 121.884 119.337 121.767 119.07C121.651 118.803 121.48 118.561 121.265 118.356C121.049 118.152 120.793 117.99 120.511 117.879C120.229 117.768 119.926 117.71 119.621 117.71L109.638 117.693C109.332 117.693 109.03 117.749 108.747 117.859C108.465 117.969 108.208 118.131 107.992 118.335C107.775 118.538 107.603 118.78 107.486 119.047C107.369 119.313 107.308 119.599 107.307 119.888L107.287 130.991C107.287 131.28 107.346 131.566 107.463 131.832C107.579 132.099 107.75 132.342 107.965 132.546C108.181 132.751 108.437 132.913 108.719 133.024C109.001 133.135 109.304 133.192 109.609 133.193L119.592 133.209C119.898 133.21 120.2 133.153 120.483 133.043C120.765 132.933 121.022 132.772 121.238 132.568C121.455 132.364 121.627 132.122 121.744 131.856C121.861 131.589 121.922 131.304 121.923 131.015L121.943 119.912Z" fill="#00031B"/>
<path d="M80.3438 117.996L70.686 118.03C69.4697 118.034 68.4871 119.018 68.4913 120.228L68.531 131.518C68.5352 132.728 69.5247 133.705 70.741 133.701L80.3988 133.667C81.6152 133.663 82.5978 132.679 82.5935 131.469L82.5539 120.179C82.5496 118.969 81.5602 117.992 80.3438 117.996Z" fill="#124D2C"/>
<path d="M119.457 118.005L109.865 117.988C108.631 117.986 107.628 118.979 107.626 120.207L107.606 131.433C107.604 132.66 108.603 133.657 109.837 133.659L119.43 133.676C120.664 133.678 121.667 132.685 121.669 131.457L121.689 120.231C121.691 119.004 120.692 118.007 119.457 118.005Z" fill="#124D2C"/>
<path d="M166.897 125.449C165.744 125.107 165.015 125.405 164.71 126.345C160.518 133.343 158.05 140.939 157.304 149.131C157.247 149.927 157.163 150.325 157.05 150.325C156.915 150.331 156.78 150.308 156.655 150.258C156.53 150.208 156.417 150.133 156.324 150.037C156.231 149.942 156.16 149.828 156.116 149.703C156.071 149.578 156.054 149.445 156.067 149.314C156.959 138.711 160.372 129.595 166.304 121.967C166.789 121.337 167.021 121.414 166.998 122.199L166.897 125.449Z" fill="#00031B"/>
<path d="M151.369 125.515L152.364 125.726L152.861 154.402C152.872 154.943 153.021 155.446 153.309 155.912C155.021 158.618 155.281 161.465 154.088 164.452L152.563 157.178C152.364 156.225 152.137 156.22 151.883 157.162C151.485 158.612 151.474 160.101 151.85 161.627C152.712 165.08 153.253 168.333 153.474 171.386C153.541 172.187 153.778 172.241 154.187 171.548C154.717 170.671 155.043 169.61 155.165 168.366L156.607 151.365C156.64 150.878 156.911 150.656 157.419 150.699C158.182 150.753 158.596 150.57 158.662 150.147C162.254 142.7 164.563 134.879 165.591 126.684C165.624 126.435 165.514 126.333 165.259 126.376C165.116 126.398 164.983 126.457 164.861 126.555C165.16 125.634 165.873 125.342 167 125.678C165.928 135.236 163.182 144.361 158.762 153.054C158.486 153.584 158.392 154.05 158.48 154.45C158.591 154.97 158.861 155.419 159.292 155.798C159.723 156.177 160.121 156.139 160.486 155.684C160.729 155.381 160.729 155.148 160.486 154.986C159.657 154.423 159.613 153.806 160.353 153.135L163.287 150.488C164.138 149.72 164.408 149.882 164.099 150.975C163.16 154.353 161.364 157.6 158.712 160.718C157.784 161.811 157.502 163.224 157.867 164.956C158.033 165.703 158.397 165.811 158.961 165.281L160.303 164.014C160.491 163.841 160.685 163.83 160.884 163.981L161.265 164.29C161.442 164.431 161.458 164.588 161.314 164.761C159.281 167.272 157.922 170.054 157.237 173.107C156.618 174.157 156.602 175.185 157.187 176.192C157.441 176.625 157.607 177.085 157.685 177.572L157.95 179.245C158.049 179.894 158.314 179.97 158.745 179.472C159.552 178.541 160.127 177.356 160.469 175.916L163.105 171.045C163.768 169.832 163.536 169.632 162.408 170.444C160.751 171.656 159.745 173.518 159.392 176.03C158.508 176.224 158.11 175.391 158.198 173.529C160.154 170.184 162.756 167.5 166.005 165.475C166.547 165.14 166.707 165.27 166.486 165.865L164 172.474L157.005 185.804C156.729 186.335 156.679 186.892 156.856 187.477C157.331 189.068 157.602 190.659 157.668 192.251C157.712 193.192 157.502 193.246 157.038 192.413C155.955 190.475 155.298 188.359 155.066 186.064C155.01 185.523 154.806 185.036 154.452 184.603C153.038 182.86 151.292 181.529 149.215 180.609C148.817 180.435 148.413 180.424 148.005 180.576L147.458 180.771C147.038 180.554 146.745 180.295 146.579 179.991C146.966 179.429 146.828 178.774 146.165 178.027C144.695 176.349 143.667 175.12 143.082 174.341C141.413 172.089 141.839 171.608 144.358 172.896C146.259 173.859 148.281 175.131 150.425 176.712C150.69 176.906 150.922 176.874 151.121 176.614C151.242 176.452 151.204 176.262 151.005 176.046C142.297 166.477 136.728 155.278 134.297 142.451C133.965 140.686 134.391 140.486 135.573 141.85C142.325 149.655 147.286 159.43 150.458 171.175C150.712 172.106 150.972 172.106 151.237 171.175C151.579 170.027 151.646 168.901 151.436 167.797C150.496 162.753 150.154 158.163 150.408 154.028C150.773 147.869 150.933 143.831 150.889 141.915C150.767 136.438 150.927 130.971 151.369 125.515ZM147.835 169.235C148.234 169.053 148.051 167.686 147.326 165.434C146.602 163.181 145.395 160.229 143.972 157.225C142.549 154.221 141.025 151.413 139.737 149.417C138.448 147.421 137.501 146.402 137.102 146.583C136.703 146.764 136.886 148.132 137.611 150.384C138.335 152.636 139.542 155.589 140.965 158.592C142.388 161.596 143.912 164.405 145.2 166.401C146.489 168.396 147.436 169.416 147.835 169.235ZM157.005 180.592C155.977 178.059 155.745 176.484 153.342 175.023C153.154 174.904 153.06 174.952 153.06 175.169L153.077 177.556C153.076 177.659 153.104 177.759 153.157 177.846C153.21 177.932 153.285 178 153.375 178.043C155.165 178.974 155.944 180.392 155.712 182.297C155.613 183.152 155.878 183.282 156.508 182.687C157.16 182.07 157.325 181.372 157.005 180.592Z" fill="#00031B"/>
<path d="M165.278 126.697C165.398 126.599 165.53 126.54 165.672 126.518C165.923 126.475 166.033 126.577 166 126.827C164.983 135.023 162.697 142.846 159.142 150.296C158.649 150.361 158.354 150.323 158.256 150.182C158.048 149.879 157.998 149.489 158.108 149.012C158.83 140.989 161.22 133.551 165.278 126.697Z" fill="#EDFAFF"/>
<path d="M87.7124 191.976C87.3793 191.972 87.0612 191.839 86.8272 191.605C86.5931 191.372 86.4619 191.057 86.4619 190.73L86.5107 156.309C86.5132 154.738 86.7908 153.183 87.3277 151.732C87.8646 150.282 88.6502 148.965 89.6396 147.856C90.629 146.748 91.8028 145.869 93.0939 145.271C94.3849 144.673 95.7679 144.368 97.1638 144.372H97.7484C100.563 144.38 103.259 145.645 105.244 147.889C107.229 150.134 108.341 153.173 108.336 156.341L108.288 190.762C108.288 190.927 108.254 191.09 108.19 191.242C108.125 191.395 108.03 191.533 107.911 191.649C107.792 191.765 107.65 191.856 107.494 191.918C107.339 191.979 107.173 192.01 107.005 192.008L87.7124 191.976Z" fill="white"/>
<path d="M141.276 158.473C144.194 164.722 147.221 169.482 148.038 169.105C148.856 168.728 147.153 163.356 144.236 157.107C141.319 150.858 138.291 146.097 137.474 146.475C136.657 146.852 138.359 152.224 141.276 158.473Z" fill="#EDFAFF"/>
<path d="M154.173 164.432L155.068 168.422C154.967 169.692 154.696 170.774 154.255 171.668C153.915 172.375 153.718 172.319 153.663 171.502C153.479 168.389 153.029 165.072 152.313 161.551C152 159.994 152.01 158.476 152.34 156.997C152.552 156.037 152.74 156.042 152.905 157.013L154.173 164.432Z" fill="#EDFAFF"/>
<path d="M160.095 176.017L159.045 176.129C159.39 173.667 160.37 171.841 161.985 170.653C163.084 169.857 163.31 170.053 162.664 171.242L160.095 176.017Z" fill="#EDFAFF"/>
<path d="M157.44 173.151C157.742 173.208 158 173.354 158.213 173.59C158.142 175.523 158.462 176.389 159.173 176.187L160.04 176.069C159.764 177.564 159.302 178.795 158.653 179.762C158.307 180.279 158.093 180.2 158.013 179.526L157.8 177.789C157.738 177.283 157.605 176.805 157.4 176.355C156.929 175.31 156.943 174.242 157.44 173.151Z" fill="#EDFAFF"/>
<path d="M156.903 180.662C157.214 181.426 157.053 182.111 156.422 182.717C155.811 183.301 155.554 183.173 155.65 182.334C155.875 180.465 155.12 179.075 153.385 178.161C153.298 178.119 153.225 178.052 153.174 177.968C153.123 177.883 153.096 177.785 153.096 177.684L153.08 175.342C153.08 175.13 153.171 175.082 153.353 175.199C155.683 176.632 155.907 178.177 156.903 180.662Z" fill="#EDFAFF"/>
</svg>
