<svg width="24" height="24" viewBox="0 0 24 24" fill="none" xmlns="http://www.w3.org/2000/svg">
<path d="M15.1007 15.359L14.5719 14.8272H14.5719L15.1007 15.359ZM15.5562 14.9062L16.085 15.438H16.085L15.5562 14.9062ZM17.9728 14.5894L17.6146 15.2483L17.9728 14.5894ZM19.8833 15.628L19.5251 16.2869L19.8833 15.628ZM20.4217 18.883L20.9505 19.4148L20.4217 18.883ZM19.0011 20.2954L18.4723 19.7636L19.0011 20.2954ZM17.6763 20.9651L17.7459 21.7119H17.7459L17.6763 20.9651ZM7.81536 16.7266L8.34418 16.1947L7.81536 16.7266ZM3.00289 7.74561L2.2541 7.78816L2.2541 7.78816L3.00289 7.74561ZM9.47752 9.19738L10.0063 9.72922H10.0063L9.47752 9.19738ZM9.63424 6.54348L10.2346 6.09401L9.63424 6.54348ZM8.37326 4.85908L7.77286 5.30855V5.30855L8.37326 4.85908ZM5.26145 4.57483L5.79027 5.10667H5.79027L5.26145 4.57483ZM3.69185 6.13552L3.16303 5.60368H3.16303L3.69185 6.13552ZM11.0631 13.4972L11.5919 12.9654L11.0631 13.4972ZM15.6295 15.8909L16.085 15.438L15.0273 14.3743L14.5719 14.8272L15.6295 15.8909ZM17.6146 15.2483L19.5251 16.2869L20.2415 14.9691L18.331 13.9305L17.6146 15.2483ZM19.8929 18.3511L18.4723 19.7636L19.5299 20.8273L20.9505 19.4148L19.8929 18.3511ZM17.6067 20.2184C16.1568 20.3535 12.4056 20.2331 8.34418 16.1947L7.28654 17.2584C11.7186 21.6653 15.9369 21.8805 17.7459 21.7119L17.6067 20.2184ZM8.34418 16.1947C4.4728 12.3453 3.83151 9.10765 3.75168 7.70305L2.2541 7.78816C2.35456 9.55599 3.14863 13.144 7.28654 17.2584L8.34418 16.1947ZM9.71952 10.0144L10.0063 9.72922L8.9487 8.66555L8.66189 8.95073L9.71952 10.0144ZM10.2346 6.09401L8.97365 4.40961L7.77286 5.30855L9.03385 6.99296L10.2346 6.09401ZM4.73263 4.04299L3.16303 5.60368L4.22067 6.66736L5.79027 5.10667L4.73263 4.04299ZM9.1907 9.48257C8.66189 8.95073 8.66117 8.95144 8.66045 8.95216C8.66021 8.9524 8.65949 8.95313 8.659 8.95362C8.65802 8.95461 8.65702 8.95561 8.65601 8.95664C8.65398 8.95871 8.65188 8.96086 8.64972 8.9631C8.64539 8.96759 8.64081 8.97245 8.63599 8.97769C8.62634 8.98816 8.61575 9.00014 8.60441 9.01367C8.58174 9.04072 8.55605 9.07403 8.52905 9.11388C8.47492 9.19377 8.41594 9.2994 8.36589 9.43224C8.26376 9.70329 8.20901 10.0606 8.27765 10.503C8.41189 11.3683 9.00782 12.5113 10.5343 14.0291L11.5919 12.9654C10.1634 11.545 9.82314 10.6806 9.75992 10.2731C9.72983 10.0792 9.76104 9.98371 9.76956 9.96111C9.77483 9.94713 9.77733 9.9457 9.77087 9.95525C9.7677 9.95992 9.76238 9.96723 9.75412 9.97708C9.74999 9.98201 9.74512 9.98759 9.73939 9.99381C9.73653 9.99692 9.73345 10.0002 9.73014 10.0036C9.72849 10.0053 9.72678 10.0071 9.72501 10.0089C9.72413 10.0098 9.72323 10.0107 9.72231 10.0116C9.72185 10.0121 9.72116 10.0128 9.72093 10.013C9.72023 10.0137 9.71952 10.0144 9.1907 9.48257ZM10.5343 14.0291C12.0613 15.5474 13.2096 16.1383 14.0763 16.2713C14.5192 16.3392 14.8763 16.285 15.1472 16.1841C15.28 16.1346 15.3858 16.0763 15.4658 16.0227C15.5058 15.9959 15.5392 15.9704 15.5663 15.9479C15.5799 15.9367 15.5919 15.9262 15.6024 15.9166C15.6077 15.9118 15.6126 15.9073 15.6171 15.903C15.6194 15.9008 15.6215 15.8987 15.6236 15.8967C15.6246 15.8957 15.6256 15.8947 15.6266 15.8937C15.6271 15.8932 15.6279 15.8925 15.6281 15.8923C15.6288 15.8916 15.6295 15.8909 15.1007 15.359C14.5719 14.8272 14.5726 14.8265 14.5733 14.8258C14.5735 14.8256 14.5742 14.8249 14.5747 14.8244C14.5756 14.8235 14.5765 14.8226 14.5774 14.8217C14.5793 14.82 14.581 14.8183 14.5827 14.8166C14.5862 14.8133 14.5895 14.8103 14.5926 14.8074C14.5988 14.8018 14.6044 14.7969 14.6094 14.7929C14.6192 14.7847 14.6265 14.7795 14.631 14.7764C14.6403 14.7702 14.6384 14.773 14.6236 14.7785C14.5991 14.7876 14.501 14.8189 14.3038 14.7886C13.8905 14.7253 13.02 14.3853 11.5919 12.9654L10.5343 14.0291ZM8.97365 4.40961C7.95434 3.04802 5.94996 2.83257 4.73263 4.04299L5.79027 5.10667C6.32195 4.578 7.26623 4.63181 7.77286 5.30855L8.97365 4.40961ZM3.75168 7.70305C3.73201 7.35694 3.89075 6.9954 4.22067 6.66736L3.16303 5.60368C2.62571 6.13795 2.20329 6.89425 2.2541 7.78816L3.75168 7.70305ZM18.4723 19.7636C18.1975 20.0369 17.9029 20.1908 17.6067 20.2184L17.7459 21.7119C18.4805 21.6434 19.0824 21.2723 19.5299 20.8273L18.4723 19.7636ZM10.0063 9.72922C10.9908 8.7503 11.064 7.2019 10.2346 6.09401L9.03385 6.99295C9.43734 7.53193 9.3773 8.23938 8.9487 8.66555L10.0063 9.72922ZM19.5251 16.2869C20.3429 16.7315 20.4703 17.7769 19.8929 18.3511L20.9505 19.4148C22.2908 18.0821 21.8775 15.8584 20.2415 14.9691L19.5251 16.2869ZM16.085 15.438C16.469 15.0562 17.0871 14.9616 17.6146 15.2483L18.331 13.9305C17.2474 13.3414 15.9026 13.5041 15.0273 14.3743L16.085 15.438Z" fill="#888888"/>
</svg>
