<svg width="32" height="32" viewBox="0 0 32 32" fill="none" xmlns="http://www.w3.org/2000/svg">
<rect width="32" height="32" rx="16" fill="#121B5F"/>
<path d="M19.271 17.894C19.0468 17.7458 18.8227 17.6717 18.5986 17.9681L17.7021 19.1536C17.478 19.3018 17.3285 19.3759 17.0297 19.2277C15.9091 18.6349 14.3402 17.9681 12.9954 15.7452C12.9207 15.4488 13.0701 15.3006 13.2195 15.1524L13.8919 14.115C14.0413 13.9668 13.9666 13.8186 13.8919 13.6705L12.9954 11.5216C12.7713 10.9289 12.5472 11.003 12.323 11.003H11.7254C11.5759 11.003 11.2771 11.0771 10.9783 11.3734C9.33466 13.0036 10.007 15.3006 11.2024 16.7825C11.4265 17.0789 12.9207 19.7464 16.1332 21.1542C18.5239 22.1916 19.0468 22.0434 19.7192 21.8952C20.541 21.8211 21.3628 21.1542 21.7364 20.4874C21.8111 20.2651 22.1846 19.3018 21.8858 19.1536" fill="white"/>
</svg>
