<svg width="60" height="60" viewBox="0 0 60 60" fill="none" xmlns="http://www.w3.org/2000/svg">
<path d="M45 32.5H40M45 20H25M45 40H40M25.5 50H44.5C47.3002 50 48.7005 50 49.77 49.455C50.7108 48.9757 51.4757 48.2108 51.955 47.27C52.5 46.2005 52.5 44.8002 52.5 42V18C52.5 15.1997 52.5 13.7996 51.955 12.7301C51.4757 11.7892 50.7108 11.0243 49.77 10.545C48.7005 10 47.3002 10 44.5 10H25.5C22.6997 10 21.2996 10 20.2301 10.545C19.2892 11.0243 18.5243 11.7892 18.045 12.7301C17.5 13.7996 17.5 15.1997 17.5 18V42C17.5 44.8002 17.5 46.2005 18.045 47.27C18.5243 48.2108 19.2892 48.9757 20.2301 49.455C21.2996 50 22.6997 50 25.5 50ZM32.5 36.25C32.5 38.321 30.821 40 28.75 40C26.679 40 25 38.321 25 36.25C25 34.179 26.679 32.5 28.75 32.5C30.821 32.5 32.5 34.179 32.5 36.25ZM12.5 50C9.73857 50 7.5 47.7615 7.5 45V15C7.5 12.2386 9.73857 10 12.5 10C15.2614 10 17.5 12.2386 17.5 15V45C17.5 47.7615 15.2614 50 12.5 50Z" stroke="#888888" stroke-width="5" stroke-linecap="round" stroke-linejoin="round"/>
</svg>
