<svg width="60" height="60" viewBox="0 0 60 60" fill="none" xmlns="http://www.w3.org/2000/svg">
<path d="M28.225 38.225C28.1175 38.3438 28.0173 38.469 27.925 38.6C27.8304 38.7394 27.7547 38.8907 27.7 39.05C27.6279 39.1917 27.5774 39.3434 27.55 39.5C27.5377 39.6664 27.5377 39.8336 27.55 40C27.5416 40.3279 27.6101 40.6533 27.75 40.95C27.8623 41.2602 28.0414 41.542 28.2747 41.7753C28.508 42.0086 28.7898 42.1877 29.1 42.3C29.3993 42.4323 29.7228 42.5006 30.05 42.5006C30.3772 42.5006 30.7008 42.4323 31 42.3C31.3103 42.1877 31.592 42.0086 31.8253 41.7753C32.0586 41.542 32.2377 41.2602 32.35 40.95C32.461 40.646 32.512 40.3234 32.5 40C32.5019 39.671 32.4389 39.3448 32.3144 39.0402C32.19 38.7356 32.0067 38.4586 31.775 38.225C31.5426 37.9907 31.2661 37.8047 30.9615 37.6778C30.6568 37.5509 30.33 37.4855 30 37.4855C29.67 37.4855 29.3432 37.5509 29.0386 37.6778C28.7339 37.8047 28.4574 37.9907 28.225 38.225ZM30 5C25.0555 5 20.222 6.46622 16.1108 9.21326C11.9995 11.9603 8.79521 15.8648 6.90302 20.4329C5.01083 25.0011 4.51575 30.0277 5.48038 34.8773C6.44501 39.7268 8.82603 44.1814 12.3223 47.6777C15.8187 51.174 20.2732 53.555 25.1228 54.5196C29.9723 55.4843 34.9989 54.9892 39.5671 53.097C44.1353 51.2048 48.0397 48.0005 50.7867 43.8893C53.5338 39.778 55 34.9445 55 30C55 26.717 54.3534 23.4661 53.097 20.4329C51.8406 17.3998 49.9991 14.6438 47.6777 12.3223C45.3562 10.0009 42.6002 8.15938 39.5671 6.90301C36.534 5.64664 33.2831 5 30 5ZM30 50C26.0444 50 22.1776 48.827 18.8886 46.6294C15.5996 44.4318 13.0362 41.3082 11.5224 37.6537C10.0087 33.9991 9.6126 29.9778 10.3843 26.0982C11.156 22.2186 13.0608 18.6549 15.8579 15.8579C18.6549 13.0608 22.2186 11.156 26.0982 10.3843C29.9778 9.61259 33.9992 10.0087 37.6537 11.5224C41.3082 13.0362 44.4318 15.5996 46.6294 18.8886C48.827 22.1776 50 26.0444 50 30C50 35.3043 47.8929 40.3914 44.1421 44.1421C40.3914 47.8929 35.3043 50 30 50ZM30 17.5C28.6827 17.4992 27.3883 17.8453 26.2473 18.5036C25.1062 19.1619 24.1587 20.1091 23.5 21.25C23.3191 21.5345 23.1977 21.8527 23.1429 22.1854C23.0882 22.5181 23.1014 22.8585 23.1816 23.186C23.2618 23.5135 23.4074 23.8213 23.6097 24.0911C23.812 24.3608 24.0668 24.5869 24.3587 24.7556C24.6506 24.9243 24.9736 25.0323 25.3083 25.0729C25.6431 25.1136 25.9825 25.0861 26.3064 24.9922C26.6302 24.8982 26.9316 24.7398 27.1926 24.5263C27.4536 24.3128 27.6687 24.0488 27.825 23.75C28.0453 23.3685 28.3624 23.052 28.7444 22.8324C29.1263 22.6129 29.5595 22.4983 30 22.5C30.6631 22.5 31.2989 22.7634 31.7678 23.2322C32.2366 23.7011 32.5 24.337 32.5 25C32.5 25.663 32.2366 26.2989 31.7678 26.7678C31.2989 27.2366 30.6631 27.5 30 27.5C29.337 27.5 28.7011 27.7634 28.2322 28.2322C27.7634 28.7011 27.5 29.337 27.5 30V32.5C27.5 33.163 27.7634 33.7989 28.2322 34.2678C28.7011 34.7366 29.337 35 30 35C30.6631 35 31.2989 34.7366 31.7678 34.2678C32.2366 33.7989 32.5 33.163 32.5 32.5V32.05C34.1534 31.4501 35.5434 30.2881 36.4269 28.7672C37.3105 27.2463 37.6314 25.4632 37.3335 23.7297C37.0357 21.9962 36.138 20.4225 34.7975 19.2838C33.457 18.145 31.7589 17.5136 30 17.5Z" fill="#888888"/>
</svg>
