<svg width="10" height="9" viewBox="0 0 10 9" fill="none" xmlns="http://www.w3.org/2000/svg">
<path fill-rule="evenodd" clip-rule="evenodd" d="M1.06098 2.42839C0.502253 2.42839 0.0493164 2.88133 0.0493164 3.44005V6.16989C0.0493164 6.34359 0.0493164 6.43044 0.0534367 6.50381C0.128178 7.83471 1.19062 8.89715 2.52151 8.97189C2.59488 8.97601 2.68173 8.97601 2.85544 8.97601H7.06462C7.23833 8.97601 7.32518 8.97601 7.39855 8.97189C8.72944 8.89715 9.79188 7.83471 9.86662 6.50381C9.87074 6.43044 9.87074 6.34359 9.87074 6.16989V3.44005C9.87074 2.88133 9.41781 2.42839 8.85908 2.42839C8.47589 2.42839 8.12559 2.21189 7.95422 1.86916L7.50633 0.973363C7.28339 0.527495 6.82768 0.24585 6.32919 0.24585H3.59088C3.09238 0.24585 2.63667 0.527494 2.41373 0.973363L1.96584 1.86916C1.79447 2.21189 1.44417 2.42839 1.06098 2.42839ZM5.39654 5.15656C5.39654 5.39764 5.20111 5.59307 4.96003 5.59307C4.71895 5.59307 4.52352 5.39764 4.52352 5.15656C4.52352 4.91549 4.71895 4.72006 4.96003 4.72006C5.20111 4.72006 5.39654 4.91549 5.39654 5.15656ZM7.14257 5.15656C7.14257 6.36195 6.16541 7.3391 4.96003 7.3391C3.75465 7.3391 2.77749 6.36195 2.77749 5.15656C2.77749 3.95118 3.75465 2.97402 4.96003 2.97402C6.16541 2.97402 7.14257 3.95118 7.14257 5.15656Z" fill="white"/>
</svg>
