<svg width="24" height="24" viewBox="0 0 24 24" fill="none" xmlns="http://www.w3.org/2000/svg">
<path d="M5.46689 4.39201C5.75949 4.6852 5.75902 5.16007 5.46583 5.45267C3.78722 7.12794 2.75 9.44211 2.75 12C2.75 14.5877 3.81163 16.9262 5.52503 18.6058C5.82082 18.8958 5.82554 19.3706 5.53557 19.6664C5.24561 19.9622 4.77076 19.9669 4.47497 19.677C2.48564 17.7268 1.25 15.007 1.25 12C1.25 9.02776 2.45721 6.3361 4.40623 4.39096C4.69941 4.09835 5.17429 4.09883 5.46689 4.39201Z" fill="#0A527C"/>
<path d="M18.6164 4.4644C18.9122 4.17443 19.387 4.17915 19.677 4.47494C21.5771 6.4132 22.75 9.07037 22.75 12C22.75 14.9644 21.5491 17.6498 19.609 19.5937C19.3164 19.8869 18.8415 19.8874 18.5484 19.5948C18.2552 19.3022 18.2547 18.8273 18.5473 18.5341C20.2182 16.8599 21.25 14.5512 21.25 12C21.25 9.47867 20.2422 7.19424 18.6059 5.525C18.3159 5.22922 18.3206 4.75436 18.6164 4.4644Z" fill="#0A527C"/>
<path d="M8.30923 7.48754C8.59226 7.78998 8.57652 8.26459 8.27408 8.54762C7.32517 9.43561 6.75 10.6502 6.75 11.9822C6.75 13.3297 7.33869 14.5572 8.30756 15.4478C8.61251 15.7282 8.63248 16.2026 8.35216 16.5076C8.07185 16.8125 7.59739 16.8325 7.29244 16.5522C6.03967 15.4006 5.25 13.7824 5.25 11.9822C5.25 10.203 6.02148 8.60125 7.24916 7.45238C7.5516 7.16936 8.02621 7.1851 8.30923 7.48754Z" fill="#0A527C"/>
<path d="M15.7429 7.52556C16.0292 7.22623 16.5039 7.21567 16.8033 7.50198C18.0005 8.64711 18.75 10.2286 18.75 11.9822C18.75 13.7568 17.9825 15.3548 16.7604 16.503C16.4586 16.7866 15.9839 16.7718 15.7003 16.47C15.4167 16.1681 15.4315 15.6934 15.7333 15.4098C16.6778 14.5224 17.25 13.3107 17.25 11.9822C17.25 10.6691 16.6911 9.47043 15.7664 8.58596C15.4671 8.29965 15.4566 7.82489 15.7429 7.52556Z" fill="#0A527C"/>
<path fill-rule="evenodd" clip-rule="evenodd" d="M12 9.25C10.4812 9.25 9.25 10.4812 9.25 12C9.25 13.5188 10.4812 14.75 12 14.75C13.5188 14.75 14.75 13.5188 14.75 12C14.75 10.4812 13.5188 9.25 12 9.25ZM10.75 12C10.75 11.3096 11.3096 10.75 12 10.75C12.6904 10.75 13.25 11.3096 13.25 12C13.25 12.6904 12.6904 13.25 12 13.25C11.3096 13.25 10.75 12.6904 10.75 12Z" fill="#0A527C"/>
</svg>
