<svg width="16" height="16" viewBox="0 0 16 16" fill="none" xmlns="http://www.w3.org/2000/svg">
<path d="M8.83337 4.66665C8.83337 4.94279 9.05723 5.16665 9.33337 5.16665H10.1263L8.64649 6.64643C8.45123 6.84169 8.45123 7.15827 8.64649 7.35353C8.84175 7.5488 9.15833 7.5488 9.35359 7.35353L10.8334 5.87375V6.66665C10.8334 6.94279 11.0572 7.16665 11.3334 7.16665C11.6095 7.16665 11.8334 6.94279 11.8334 6.66665V4.66665C11.8334 4.3905 11.6095 4.16665 11.3334 4.16665H9.33337C9.05723 4.16665 8.83337 4.3905 8.83337 4.66665Z" fill="#0A527C"/>
<path d="M7.35359 9.35353C7.54886 9.15827 7.54886 8.84169 7.35359 8.64643C7.15833 8.45116 6.84175 8.45116 6.64649 8.64643L5.16671 10.1262V9.33331C5.16671 9.05717 4.94285 8.83331 4.66671 8.83331C4.39057 8.83331 4.16671 9.05717 4.16671 9.33331V11.3333C4.16671 11.6095 4.39057 11.8333 4.66671 11.8333H6.66671C6.94285 11.8333 7.16671 11.6095 7.16671 11.3333C7.16671 11.0572 6.94285 10.8333 6.66671 10.8333H5.87381L7.35359 9.35353Z" fill="#0A527C"/>
<path fill-rule="evenodd" clip-rule="evenodd" d="M7.96179 0.833313C6.42286 0.833305 5.21684 0.833298 4.27584 0.959811C3.31269 1.0893 2.55267 1.35953 1.95613 1.95607C1.35959 2.55261 1.08936 3.31263 0.959872 4.27578C0.833359 5.21677 0.833366 6.4228 0.833374 7.96173V8.03823C0.833366 9.57716 0.833359 10.7832 0.959872 11.7242C1.08936 12.6873 1.35959 13.4473 1.95613 14.0439C2.55267 14.6404 3.31269 14.9107 4.27584 15.0401C5.21684 15.1667 6.42286 15.1667 7.96179 15.1666H8.03829C9.57722 15.1667 10.7832 15.1667 11.7242 15.0401C12.6874 14.9107 13.4474 14.6404 14.044 14.0439C14.6405 13.4473 14.9107 12.6873 15.0402 11.7242C15.1667 10.7832 15.1667 9.57716 15.1667 8.03823V7.96173C15.1667 6.4228 15.1667 5.21678 15.0402 4.27578C14.9107 3.31263 14.6405 2.55261 14.044 1.95607C13.4474 1.35953 12.6874 1.0893 11.7242 0.959811C10.7832 0.833298 9.57722 0.833305 8.03829 0.833313H7.96179ZM2.66324 2.66318C3.04301 2.28341 3.55682 2.06548 4.40909 1.95089C5.27574 1.83438 6.41456 1.83331 8.00004 1.83331C9.58552 1.83331 10.7243 1.83438 11.591 1.95089C12.4433 2.06548 12.9571 2.28341 13.3368 2.66318C13.7166 3.04295 13.9345 3.55676 14.0491 4.40903C14.1656 5.27568 14.1667 6.4145 14.1667 7.99998C14.1667 9.58546 14.1656 10.7243 14.0491 11.5909C13.9345 12.4432 13.7166 12.957 13.3368 13.3368C12.9571 13.7166 12.4433 13.9345 11.591 14.0491C10.7243 14.1656 9.58552 14.1666 8.00004 14.1666C6.41456 14.1666 5.27574 14.1656 4.40909 14.0491C3.55682 13.9345 3.04301 13.7166 2.66324 13.3368C2.28347 12.957 2.06554 12.4432 1.95095 11.5909C1.83444 10.7243 1.83337 9.58546 1.83337 7.99998C1.83337 6.4145 1.83444 5.27568 1.95095 4.40903C2.06554 3.55676 2.28347 3.04295 2.66324 2.66318Z" fill="#0A527C"/>
</svg>
