<svg width="32" height="32" viewBox="0 0 32 32" fill="none" xmlns="http://www.w3.org/2000/svg">
<rect width="32" height="32" rx="16" fill="#54D850"/>
<path d="M11.3541 23.4433C9.89796 23.8528 8.52908 22.5658 8.84758 21.087V21.087C8.95853 20.5719 8.85268 20.0386 8.61416 19.5687C7.79432 17.9537 7.50055 16.1142 7.78688 14.3117C8.11638 12.2374 9.19145 10.3546 10.8104 9.01655C12.4294 7.67852 14.4809 6.9772 16.5802 7.04419C18.6794 7.11117 20.6821 7.94186 22.2124 9.38038C23.7428 10.8189 24.6956 12.7664 24.8922 14.8575C25.0888 16.9486 24.5156 19.0396 23.2802 20.7381C22.0447 22.4367 20.232 23.626 18.182 24.0831C16.4006 24.4803 14.5465 24.3007 12.8839 23.5823C12.4002 23.3733 11.8614 23.3006 11.3541 23.4433V23.4433Z" stroke="white" stroke-width="2"/>
<path d="M19.2759 16.6949C19.0884 16.5699 18.9009 16.5074 18.7134 16.7574L18.3266 17.2732C18.0862 17.5937 17.7592 17.999 17.4009 17.8199V17.8199C16.5117 17.3456 15.2851 16.8152 14.2011 15.1618C14.0815 14.9793 13.9542 14.7338 14.07 14.5488V14.5488C14.1538 14.4149 14.2565 14.3154 14.3419 14.1825L14.5546 13.8517C14.7017 13.6228 14.8976 13.3758 14.7759 13.1324V13.1324L14.0259 11.3199C13.8384 10.8199 13.6509 10.8824 13.4634 10.8824H12.9634C12.8384 10.8824 12.5884 10.9449 12.3384 11.1949C10.9634 12.5699 11.5259 14.5074 12.5259 15.7574C12.7134 16.0074 13.9634 18.2574 16.6509 19.4449C18.6509 20.3199 19.0884 20.1949 19.6509 20.0699C19.9547 20.0423 20.2584 19.917 20.5299 19.7373C21.1885 19.3013 22.1699 18.1106 21.4634 17.7574V17.7574" fill="white"/>
</svg>
