<svg width="208" height="96" viewBox="0 0 208 96" fill="none" xmlns="http://www.w3.org/2000/svg">
<path d="M87.8556 20.0049L74.211 36.8877C74.0309 37.1107 73.803 37.29 73.5446 37.4123C73.2861 37.5346 73.0037 37.5967 72.7187 37.5939L11.6396 37.4174C11.0427 36.8661 11.0271 36.2404 11.5929 35.5405C20.907 23.9817 30.3081 12.33 39.7962 0.585377C39.9448 0.402675 40.1324 0.255328 40.3454 0.154057C40.5584 0.052786 40.7913 0.000141426 41.0273 0L101.575 0.0371744C101.791 0.038021 102.003 0.0993576 102.186 0.214086C102.369 0.328815 102.516 0.492268 102.609 0.685586C102.703 0.878904 102.739 1.09419 102.715 1.30663C102.69 1.51907 102.605 1.71999 102.47 1.8862L87.8556 20.0049Z" fill="#DEC166"/>
<path d="M100.007 47.3483L87.305 47.3872C87.2167 47.388 87.1294 47.3676 87.0502 47.3277C86.971 47.2878 86.9021 47.2296 86.8491 47.1576C86.7961 47.0857 86.7604 47.002 86.745 46.9135C86.7296 46.8249 86.7348 46.7339 86.7602 46.6478L92.8482 25.9727L95.5625 16.6324C95.6331 16.3924 95.7841 16.1854 95.9888 16.0483C96.1935 15.9111 96.4386 15.8527 96.6806 15.8833C98.3563 16.0779 100.548 16.1492 103.256 16.0973C115.075 15.8963 126.875 15.7957 138.656 15.7957C138.704 15.7957 138.751 15.8067 138.794 15.8278C138.837 15.849 138.874 15.8797 138.903 15.9175C138.931 15.9554 138.951 15.9992 138.96 16.0457C138.968 16.0921 138.966 16.1398 138.952 16.1849L129.902 46.6672C129.793 47.024 129.554 47.2024 129.185 47.2024L100.007 47.3483Z" fill="#00031B"/>
<path d="M140.177 17.8957L147.554 43.9123C147.573 43.9839 147.575 44.059 147.561 44.1315C147.546 44.204 147.515 44.2719 147.469 44.3298C147.424 44.3876 147.366 44.4337 147.3 44.4645C147.233 44.4953 147.161 44.5098 147.088 44.5069L143.824 44.4326C143.388 44.4202 143.171 44.1972 143.171 43.7636C143.161 42.342 143.199 41.0412 142.882 39.6381C141.576 33.9083 140.298 28.2249 139.048 22.588C138.626 20.6739 138.843 19.082 139.701 17.8121C139.919 17.4962 140.077 17.5241 140.177 17.8957Z" fill="#DEC166"/>
<path d="M166.095 17.9886L200.221 17.654C200.267 17.6531 200.314 17.6633 200.355 17.6838C200.397 17.7043 200.433 17.7346 200.46 17.7719C200.488 17.8093 200.506 17.8528 200.513 17.8985C200.52 17.9443 200.516 17.9912 200.501 18.035L194.569 35.3453C194.549 35.4032 194.512 35.4533 194.461 35.4884C194.411 35.5235 194.351 35.5417 194.289 35.5404L157.869 34.5927C157.821 34.5916 157.773 34.5783 157.73 34.5538C157.688 34.5294 157.653 34.4946 157.628 34.4529C157.602 34.4111 157.588 34.3637 157.587 34.315C157.585 34.2663 157.596 34.218 157.618 34.1745L165.834 18.1465C165.859 18.0985 165.896 18.0583 165.942 18.0303C165.988 18.0024 166.041 17.988 166.095 17.9886Z" fill="#00031B"/>
<path d="M200.305 20.9805L200.827 19.6054C200.849 19.5441 200.89 19.4912 200.943 19.4538C200.997 19.4163 201.06 19.3962 201.126 19.3962C201.191 19.3962 201.255 19.4163 201.308 19.4538C201.361 19.4912 201.402 19.5441 201.424 19.6054L207.094 33.5985C207.115 33.6477 207.123 33.7012 207.117 33.7542C207.111 33.8071 207.092 33.8577 207.061 33.9012C207.03 33.9448 206.989 33.9799 206.941 34.0034C206.893 34.0268 206.84 34.0378 206.787 34.0353L204.912 33.9609C204.848 33.9587 204.786 33.9371 204.734 33.8989C204.683 33.8608 204.644 33.8078 204.623 33.7472L200.305 21.1942C200.28 21.1252 200.28 21.0496 200.305 20.9805Z" fill="#00031B"/>
<path d="M87.8555 20.0048C87.7187 20.4755 87.815 20.7357 88.1446 20.7853L73.7538 38.4765C73.5549 38.7119 73.4585 38.9876 73.4647 39.3035L73.5113 50.6578L72.7559 50.918L72.7093 39.0154C72.7093 38.7119 72.5569 38.5601 72.2522 38.5601L20.5649 38.5509C20.2726 38.5509 20.1234 38.6964 20.1172 38.9876L20.0426 43.0294L19.2312 42.7971L19.3711 39.1269C19.3835 38.7924 19.2219 38.6221 18.8861 38.6159L11.7607 38.4765L11.6394 37.4173L72.7185 37.5938C73.0036 37.5966 73.2859 37.5345 73.5444 37.4122C73.8029 37.2899 74.0307 37.1106 74.2108 36.8877L87.8555 20.0048Z" fill="#00031B"/>
<path d="M142.835 54.5139C142.586 57.6358 142.496 60.764 142.565 63.8984C142.589 64.9948 142.499 67.3053 142.294 70.8299C142.151 73.1962 142.344 75.8227 142.872 78.7092C142.991 79.3411 142.953 79.9853 142.761 80.6419C142.611 81.1746 142.465 81.1746 142.322 80.6419C140.538 73.921 137.746 68.3274 133.947 63.8612C133.282 63.0807 133.042 63.1953 133.229 64.205C134.597 71.5454 137.73 77.9535 142.63 83.4294C142.742 83.5533 142.764 83.6617 142.695 83.7546C142.583 83.9033 142.453 83.9218 142.304 83.8103C141.097 82.9059 139.959 82.1781 138.89 81.6268C137.472 80.8897 137.233 81.1653 138.172 82.4537C138.501 82.8997 139.08 83.6028 139.907 84.563C140.28 84.9904 140.357 85.3652 140.14 85.6873L132.054 91.7919C131.618 92.1202 131.401 92.0148 131.401 91.4759C131.32 76.9129 131.186 62.7772 131 49.069C130.969 47.031 131.258 45.0302 131.867 43.0666C133.913 36.4819 135.85 30.0583 137.678 23.7958C138.069 22.4392 138.405 22.4516 138.685 23.8329C139.363 27.1779 140.127 30.591 140.979 34.0723C141.738 37.1695 142.22 40.5362 142.425 44.1723C142.624 47.635 142.761 51.0822 142.835 54.5139ZM132.026 54.1701C131.932 56.0408 131.945 57.9022 132.063 59.7543C132.08 60.0242 132.163 60.286 132.305 60.5167C132.446 60.7474 132.642 60.94 132.875 61.0776C133.108 61.2151 133.371 61.2935 133.64 61.3058C133.91 61.3181 134.179 61.2639 134.423 61.1481C136.506 60.1693 138.56 59.1256 140.587 58.0168C143.143 56.6138 142.397 49.8866 141.958 47.5823C141.903 47.2975 141.781 47.0298 141.602 46.8008C141.423 46.5717 141.193 46.3878 140.929 46.2639C140.666 46.14 140.377 46.0795 140.086 46.0874C139.795 46.0953 139.51 46.1713 139.254 46.3093C137.295 47.3624 135.324 48.4062 133.341 49.4406C131.41 50.4627 132.091 52.702 132.026 54.1701Z" fill="white"/>
<path d="M203.247 70.7937L203.247 70.7929C203.247 69.7087 202.983 68.3471 202.433 66.6954C201.778 64.7372 201.487 62.6916 201.559 60.5619C201.508 60.4971 201.466 60.4228 201.436 60.3385C201.365 60.1405 201.379 59.9425 201.423 59.7748C201.494 59.5025 201.666 59.2161 201.889 58.9265C201.869 57.6549 202.232 56.4704 202.969 55.3852C203.099 55.1934 203.167 54.9639 203.163 54.7276L203.163 54.7222C203.113 48.2957 203.119 41.8723 203.181 35.452L203.181 35.451C203.199 33.9334 202.879 32.2698 202.205 30.4555L202.205 30.4536C201.4 28.2614 200.643 26.0692 199.932 23.8768M203.247 70.7937L200.408 23.7215M203.247 70.7937C203.253 74.3925 203.259 78.0934 203.265 81.8966C203.265 82.0436 203.227 82.1892 203.152 82.3192C203.078 82.4488 202.97 82.5584 202.839 82.6367C202.839 82.637 202.838 82.6372 202.838 82.6375L201.457 83.4447L201.365 58.0806L203.247 70.7937ZM199.932 23.8768C199.932 23.8764 199.932 23.8761 199.932 23.8757L200.408 23.7215M199.932 23.8768C199.932 23.877 199.933 23.8773 199.933 23.8776L200.408 23.7215M199.932 23.8768C199.917 23.8291 199.901 23.7848 199.886 23.7437M200.408 23.7215C200.066 22.6809 199.717 22.6809 199.363 23.7215M199.886 23.7437C199.909 23.6846 199.93 23.6322 199.951 23.586C199.988 23.5056 200.018 23.4509 200.042 23.4159C200.054 23.3989 200.062 23.3892 200.065 23.3849C200.067 23.3835 200.067 23.3829 200.067 23.3829C200.067 23.3829 200.064 23.386 200.058 23.391C200.048 23.3982 200.028 23.4108 199.999 23.4217C199.969 23.433 199.932 23.441 199.89 23.441C199.848 23.441 199.811 23.4329 199.78 23.4215C199.75 23.4103 199.73 23.3974 199.72 23.3897C199.713 23.3844 199.71 23.3809 199.709 23.3807C199.709 23.3807 199.71 23.3812 199.711 23.3824C199.715 23.3864 199.722 23.3957 199.733 23.4125C199.756 23.447 199.786 23.5013 199.821 23.5815C199.842 23.6287 199.864 23.6827 199.886 23.7437ZM199.886 23.7437C199.87 23.7864 199.853 23.8326 199.836 23.8825L199.363 23.7215M199.363 23.7215L199.836 23.8827M199.363 23.7215L199.836 23.8827M199.836 23.8827L195.715 36.0058L195.241 35.8471L195.714 36.008L195.715 36.007L199.836 23.8827ZM189.809 36.5989L189.809 36.5982L189.309 36.5997L189.809 36.5991M189.809 36.5989L197.162 54.7741C195.017 55.821 193.947 57.3355 193.954 59.3177L193.454 59.3183C193.454 59.3185 193.454 59.3187 193.454 59.3189C193.466 69.762 193.463 79.2727 193.444 87.8512V87.8523C193.444 88.159 193.329 88.3668 193.059 88.5311L193.059 88.5313L189.976 90.4143L189.809 36.5991M189.809 36.5989C189.809 36.599 189.809 36.599 189.809 36.5991M189.809 36.5989L189.809 36.5991" fill="white" stroke="#00031B"/>
<path d="M93.6285 25.3103C93.8648 25.4961 94.0824 25.6107 94.2814 25.6541L88.3403 45.3988C88.3155 45.481 88.3104 45.5679 88.3255 45.6525C88.3405 45.7371 88.3754 45.817 88.4271 45.8857C88.4788 45.9544 88.546 46.01 88.6233 46.0481C88.7006 46.0862 88.7857 46.1057 88.872 46.1049L101.267 46.0678C100.253 46.2536 99.6845 46.4642 99.5601 46.6996L90.8119 46.7368C90.3207 46.7368 90.0782 46.9814 90.0844 47.4708L90.1217 50.6857C90.016 50.7291 89.9228 50.7601 89.8419 50.7786C89.6989 50.8034 89.5995 50.7476 89.5435 50.6114L89.3663 50.1468C89.4409 49.899 89.4688 49.6915 89.4502 49.5243C89.4067 49.1588 89.2139 49.0442 88.872 49.1805L85.16 50.6671C84.9369 50.7575 84.7459 50.9109 84.6113 51.1079C84.4768 51.3048 84.4048 51.5363 84.4046 51.7728L84.4139 89.2645C84.4139 89.63 84.5911 89.7786 84.9455 89.7105C86.7549 89.376 88.2191 88.6822 89.3383 87.6292C89.8046 87.7221 90.0813 87.6943 90.1684 87.5456L90.159 91.9591C90.1578 92.0673 90.1781 92.1745 90.2188 92.2748C90.2595 92.3751 90.3198 92.4664 90.3961 92.5433C90.4724 92.6202 90.5634 92.6812 90.6635 92.7229C90.7637 92.7646 90.8712 92.786 90.9798 92.786L103.02 92.8511C102.939 93.0555 102.939 93.2351 103.02 93.39L89.9259 93.3435C89.5341 93.3435 89.3383 93.1453 89.3383 92.7489L89.357 89.6362C89.3632 89.1964 89.158 89.057 88.7414 89.2181C84.7746 90.7915 80.8699 92.3865 77.0274 94.0032C75.3393 94.7094 73.7444 95.2297 71.8605 95.2297C54.5132 95.2545 37.2157 95.2607 19.9679 95.2483C19.8944 95.2483 19.8217 95.2339 19.7538 95.2059C19.6859 95.1779 19.6242 95.1368 19.5722 95.085C19.5202 95.0333 19.479 94.9718 19.4509 94.9042C19.4228 94.8366 19.4083 94.7641 19.4083 94.6908L19.3804 85.7337C19.7596 85.2567 20.0332 85.6532 20.201 86.923L20.0985 93.8825C20.0972 93.9394 20.1074 93.9959 20.1284 94.0489C20.1494 94.1018 20.1808 94.15 20.2208 94.1907C20.2608 94.2314 20.3085 94.2637 20.3611 94.2858C20.4138 94.3078 20.4704 94.3192 20.5275 94.3192L72.3082 94.3285C72.6439 94.3285 72.8087 94.1612 72.8024 93.8267L72.7652 92.6652C72.8957 92.5785 72.9796 92.4423 73.0169 92.2564C73.0418 92.1449 73.1102 92.0985 73.2221 92.1171C73.2905 92.1356 73.3714 92.1604 73.4646 92.1914C73.3465 92.8108 73.3745 93.4024 73.5486 93.9661C73.6543 94.3068 73.875 94.409 74.2108 94.2727L82.9403 90.7047C83.3072 90.5498 83.4906 90.2773 83.4906 89.887C83.5155 78.9167 83.531 66.3049 83.5372 52.0516C83.5372 50.1003 86.531 49.1061 88.2564 48.6694C88.788 48.53 89.2357 48.1119 89.3756 47.5916C89.4751 47.2075 89.329 46.9876 88.9373 46.9319L87.8554 46.7925C87.3704 46.7306 87.1963 46.4642 87.3331 45.9934L93.6285 25.3103Z" fill="#00031B"/>
<path d="M160.751 35.7912L188.246 36.0514C188.346 36.0538 188.44 36.0941 188.51 36.1635C188.58 36.2329 188.619 36.3261 188.619 36.4231L188.628 91.2065C188.628 91.3346 188.577 91.4575 188.486 91.5481C188.395 91.6387 188.272 91.6896 188.143 91.6896L161.637 91.7175C161.016 91.7175 160.708 91.4078 160.714 90.7883L160.779 85.0647L160.751 35.7912ZM172.922 57.1898V43.8935C173.252 41.4405 172.44 40.211 170.488 40.2048C169.021 40.1986 167.563 40.2233 166.114 40.2791C165.65 40.2959 165.211 40.4923 164.89 40.8268C164.568 41.1613 164.388 41.6078 164.389 42.0724V59.4941C164.388 59.6763 164.425 59.8566 164.497 60.0243C164.568 60.1919 164.672 60.3436 164.804 60.4702C164.935 60.5968 165.091 60.6957 165.261 60.7611C165.432 60.8265 165.614 60.857 165.797 60.8507L171.775 60.6649C172.08 60.6525 172.31 60.51 172.465 60.2375C172.944 59.3641 173.096 58.3482 172.922 57.1898ZM186.073 42.0259C186.073 41.5602 185.887 41.1135 185.556 40.7842C185.226 40.4548 184.777 40.2698 184.31 40.2698H179.292C178.825 40.2698 178.376 40.4548 178.046 40.7842C177.715 41.1135 177.53 41.5602 177.53 42.0259V59.0482C177.53 59.5139 177.715 59.9606 178.046 60.2899C178.376 60.6193 178.825 60.8043 179.292 60.8043H184.31C184.777 60.8043 185.226 60.6193 185.556 60.2899C185.887 59.9606 186.073 59.5139 186.073 59.0482V42.0259Z" fill="white"/>
<path d="M72.756 50.918L72.7654 92.6653L72.8027 93.8267C72.8089 94.1612 72.6441 94.3285 72.3084 94.3285L20.5277 94.3192C20.4706 94.3192 20.414 94.3079 20.3613 94.2858C20.3087 94.2637 20.261 94.2314 20.221 94.1907C20.181 94.1501 20.1496 94.1018 20.1286 94.0489C20.1076 93.996 20.0974 93.9394 20.0987 93.8825L20.2013 86.923L20.0427 43.0294L20.1174 38.9876C20.1236 38.6965 20.2728 38.5509 20.565 38.5509L72.2524 38.5602C72.557 38.5602 72.7094 38.712 72.7094 39.0155L72.756 50.918ZM28.0262 57.2178L67.0855 57.227C67.7905 57.227 68.4666 56.9471 68.965 56.4487C69.4635 55.9504 69.7436 55.2744 69.7436 54.5696V46.3094C69.7436 45.6785 69.492 45.0735 69.0443 44.6274C68.5965 44.1813 67.9892 43.9307 67.356 43.9307H28.0262C26.5837 43.6768 25.4614 43.7759 24.6593 44.2281C23.9505 44.6245 23.5868 45.5041 23.5682 46.8669C23.5122 49.7597 23.5153 52.6494 23.5775 55.536C23.5837 55.8457 23.7018 56.1059 23.9319 56.3165C24.8832 57.1837 26.2479 57.4841 28.0262 57.2178Z" fill="white"/>
<path d="M172.922 43.8936C172.63 43.8131 172.381 43.5962 172.176 43.2432C172.27 42.5432 172.186 41.9826 171.924 41.5614C171.738 41.2517 171.461 41.0937 171.094 41.0875L167.69 41.0411C167.53 41.0398 167.372 41.0699 167.223 41.1296C167.075 41.1893 166.94 41.2774 166.827 41.3888C166.713 41.5002 166.623 41.6328 166.562 41.7788C166.5 41.9248 166.468 42.0815 166.468 42.2397V58.8159C166.468 59.1815 166.613 59.5322 166.869 59.7916C167.126 60.051 167.475 60.1979 167.839 60.2004C168.872 60.2066 169.985 60.1973 171.178 60.1725C172.043 60.1539 172.385 59.4446 172.204 58.0447C172.36 56.7996 172.599 56.5147 172.922 57.1899C173.096 58.3482 172.944 59.3641 172.465 60.2375C172.31 60.5101 172.08 60.6526 171.775 60.6649L165.797 60.8508C165.614 60.857 165.432 60.8265 165.262 60.7612C165.091 60.6958 164.935 60.5969 164.804 60.4703C164.672 60.3437 164.568 60.192 164.497 60.0243C164.425 59.8566 164.389 59.6763 164.389 59.4942V42.0724C164.388 41.6079 164.568 41.1613 164.89 40.8268C165.212 40.4923 165.65 40.296 166.114 40.2791C167.563 40.2234 169.021 40.1986 170.488 40.2048C172.441 40.211 173.252 41.4406 172.922 43.8936Z" fill="#00031B"/>
<path d="M186.073 59.0484C186.073 59.5142 185.887 59.9608 185.557 60.2902C185.226 60.6195 184.778 60.8045 184.31 60.8045H179.293C178.825 60.8045 178.377 60.6195 178.046 60.2902C177.716 59.9608 177.53 59.5142 177.53 59.0484V42.0262C177.53 41.5604 177.716 41.1137 178.046 40.7844C178.377 40.4551 178.825 40.27 179.293 40.27H184.31C184.778 40.27 185.226 40.4551 185.557 40.7844C185.887 41.1137 186.073 41.5604 186.073 42.0262V59.0484ZM185.377 42.1978C185.377 42.044 185.346 41.8919 185.287 41.7499C185.228 41.608 185.141 41.4791 185.032 41.3706C184.922 41.262 184.793 41.176 184.65 41.1174C184.507 41.0588 184.354 41.0288 184.2 41.0291L180.843 41.0349C180.688 41.0352 180.535 41.0657 180.393 41.1248C180.251 41.1839 180.121 41.2704 180.012 41.3793C179.903 41.4882 179.817 41.6174 179.758 41.7595C179.699 41.9017 179.669 42.054 179.67 42.2077L179.699 59.0255C179.699 59.1792 179.73 59.3314 179.789 59.4733C179.849 59.6153 179.935 59.7442 180.045 59.8527C180.154 59.9612 180.284 60.0473 180.426 60.1058C180.569 60.1644 180.722 60.1944 180.876 60.1942L184.234 60.1883C184.388 60.1881 184.541 60.1575 184.683 60.0984C184.826 60.0393 184.955 59.9529 185.064 59.844C185.173 59.7351 185.259 59.6058 185.318 59.4637C185.377 59.3216 185.407 59.1693 185.407 59.0155L185.377 42.1978Z" fill="#00031B"/>
<path d="M184.2 41.0288L180.842 41.0347C180.193 41.0358 179.668 41.5609 179.669 42.2074L179.699 59.0252C179.7 59.6718 180.227 60.1951 180.876 60.1939L184.233 60.1881C184.882 60.187 185.408 59.6619 185.407 59.0153L185.377 42.1975C185.376 41.5509 184.849 41.0277 184.2 41.0288Z" fill="white"/>
<path d="M172.176 43.2432L172.204 58.0448C172.385 59.4447 172.043 60.154 171.178 60.1726C169.985 60.1973 168.872 60.2066 167.84 60.2004C167.475 60.198 167.126 60.051 166.869 59.7916C166.613 59.5323 166.468 59.1816 166.469 58.816V42.2397C166.468 42.0815 166.5 41.9249 166.562 41.7789C166.623 41.6328 166.713 41.5003 166.827 41.3889C166.94 41.2774 167.075 41.1894 167.223 41.1297C167.372 41.07 167.53 41.0399 167.69 41.0411L171.094 41.0876C171.461 41.0937 171.738 41.2517 171.925 41.5614C172.186 41.9827 172.27 42.5432 172.176 43.2432Z" fill="white"/>
<path d="M19.2313 42.7972L20.0427 43.0295L20.2012 86.9231C20.0333 85.6532 19.7598 85.2568 19.3805 85.7338C19.138 84.0427 19.0199 82.3361 19.0261 80.6141C19.0759 68.0023 19.1442 55.3966 19.2313 42.7972Z" fill="#00031B"/>
<path d="M172.176 43.2433C172.381 43.5963 172.63 43.8132 172.922 43.8937V57.19C172.599 56.5148 172.359 56.7997 172.204 58.0448L172.176 43.2433Z" fill="#888888"/>
<path d="M28.0261 43.9307C28.1318 44.2466 28.1256 44.5749 28.0075 44.9156C27.1619 45.0705 26.6924 45.5103 26.5992 46.235C26.4686 47.2447 26.453 49.5676 26.5525 53.2037C26.596 54.9134 27.0841 55.9727 28.0168 56.3815C28.1163 56.685 28.1194 56.9638 28.0261 57.2177C26.2479 57.4841 24.8831 57.1837 23.9318 56.3164C23.7017 56.1058 23.5836 55.8457 23.5774 55.5359C23.5152 52.6493 23.5121 49.7596 23.5681 46.8668C23.5867 45.5041 23.9504 44.6245 24.6593 44.228C25.4613 43.7758 26.5836 43.6767 28.0261 43.9307Z" fill="#00031B"/>
<path d="M28.0262 43.9309H67.356C67.9892 43.9309 68.5965 44.1815 69.0443 44.6276C69.492 45.0737 69.7436 45.6787 69.7436 46.3095V54.5698C69.7436 55.2746 69.4635 55.9505 68.965 56.4489C68.4666 56.9472 67.7905 57.2272 67.0855 57.2272L28.0262 57.2179C28.1194 56.9639 28.1163 56.6852 28.0168 56.3817L66.7777 56.3073C68.27 56.3011 69.0161 55.5578 69.0161 54.0773V46.7091C69.0161 46.2285 68.8245 45.7677 68.4834 45.4279C68.1423 45.0881 67.6798 44.8972 67.1974 44.8972L28.0076 44.9158C28.1257 44.5751 28.1319 44.2468 28.0262 43.9309Z" fill="#00031B"/>
<path d="M28.0075 44.9158L67.1974 44.8972C67.6797 44.8972 68.1423 45.0881 68.4834 45.4279C68.8244 45.7677 69.0161 46.2285 69.0161 46.7091V54.0773C69.0161 55.5578 68.2699 56.3011 66.7777 56.3073L28.0168 56.3817C27.0842 55.9728 26.5961 54.9136 26.5525 53.2039C26.4531 49.5678 26.4687 47.2449 26.5992 46.2352C26.6925 45.5105 27.1619 45.0706 28.0075 44.9158Z" fill="#00031B"/>
<path d="M132.026 54.1702C132.091 52.7021 131.41 50.4628 133.341 49.4408C135.324 48.4063 137.295 47.3625 139.254 46.3095C139.51 46.1714 139.795 46.0954 140.086 46.0875C140.377 46.0796 140.666 46.1401 140.929 46.264C141.193 46.3879 141.423 46.5719 141.602 46.8009C141.781 47.0299 141.903 47.2977 141.958 47.5824C142.397 49.8868 143.143 56.6139 140.587 58.0169C138.56 59.1257 136.505 60.1695 134.423 61.1482C134.179 61.264 133.91 61.3182 133.64 61.3059C133.371 61.2936 133.108 61.2153 132.875 61.0777C132.642 60.9401 132.446 60.7475 132.305 60.5168C132.163 60.2861 132.08 60.0244 132.063 59.7544C131.945 57.9023 131.932 56.0409 132.026 54.1702ZM139.823 57.5523C139.975 57.4715 140.102 57.351 140.191 57.2037C140.279 57.0564 140.326 56.8879 140.326 56.7161L140.354 48.2143C140.356 48.0498 140.314 47.8878 140.234 47.7441C140.154 47.6004 140.037 47.4799 139.896 47.3946C139.755 47.3093 139.594 47.2621 139.429 47.2576C139.264 47.253 139.101 47.2913 138.955 47.3687L133.425 50.277C133.272 50.3578 133.145 50.4783 133.057 50.6256C132.968 50.7729 132.921 50.9415 132.921 51.1132L132.912 59.6615C132.912 59.8252 132.954 59.9861 133.035 60.1285C133.116 60.2709 133.233 60.39 133.374 60.4742C133.514 60.5584 133.675 60.6048 133.839 60.609C134.003 60.6131 134.166 60.5748 134.311 60.4978L139.823 57.5523Z" fill="#00031B"/>
<path d="M103.039 92.3513L103.054 92.3523C103.235 92.3645 103.311 92.338 103.332 92.3283C103.336 92.3162 103.342 92.2876 103.341 92.2356L103.341 92.2316L103.039 92.3513ZM103.039 92.3513L103.023 92.3512L90.9826 92.2862H90.9799C90.9372 92.2862 90.895 92.2777 90.8557 92.2614C90.8163 92.245 90.7808 92.2211 90.7511 92.1912L90.3963 92.5434M103.039 92.3513L103.322 73.1238C103.322 73.1239 103.322 73.1239 103.322 73.1239L103.822 73.1251M103.822 73.1251C103.798 79.493 103.804 85.8608 103.841 92.2287C103.847 92.6809 103.574 92.8884 103.02 92.8512L90.9799 92.7862C90.8713 92.7862 90.7639 92.7647 90.6637 92.723C90.5635 92.6814 90.4726 92.6203 90.3963 92.5434M103.822 73.1251C103.829 70.5049 104.133 68.6589 104.736 67.5873M103.822 73.1251L103.322 73.1232L104.3 67.3431M90.3963 92.5434L90.7511 92.1912C90.7214 92.1612 90.698 92.1258 90.6822 92.0869C90.6665 92.0481 90.6587 92.0067 90.6591 91.9649L90.6592 91.9603L90.6685 87.5468L90.6685 87.5451L90.6219 50.6852L90.6218 50.6801L90.5846 47.4651L90.5845 47.4646C90.5835 47.3825 90.5933 47.3315 90.6025 47.303C90.6069 47.2893 90.611 47.2814 90.6132 47.2776C90.6154 47.2739 90.6167 47.2726 90.6169 47.2724C90.6172 47.2721 90.6185 47.2707 90.6223 47.2684C90.6263 47.266 90.6344 47.2618 90.6484 47.2571C90.6775 47.2474 90.7292 47.2369 90.812 47.2369L90.8142 47.2369L99.5624 47.1997L99.5647 47.1997L129.694 46.9303M90.3963 92.5434L129.694 46.9303M129.694 46.9303C129.695 46.9303 129.695 46.9303 129.696 46.9303C129.746 46.9307 129.794 46.9508 129.829 46.9859C129.865 47.0212 129.884 47.0687 129.884 47.1179V47.1181L129.903 92.3681M129.694 46.9303L129.903 92.3681M129.903 92.3681C129.903 92.3681 129.903 92.3681 129.903 92.3681C129.903 92.3703 129.903 92.3728 129.901 92.3752L130.363 92.5672M129.903 92.3681L130.363 92.5672M130.363 92.5672L129.901 92.3753C129.9 92.3777 129.899 92.3799 129.897 92.3818M130.363 92.5672L129.897 92.3818M129.897 92.3818C129.895 92.3837 129.893 92.3854 129.89 92.3866C129.889 92.3871 129.887 92.3874 129.886 92.3877C129.884 92.3882 129.883 92.3884 129.881 92.3884H119.435C119.406 92.3884 119.385 92.3865 119.37 92.3842C119.368 92.37 119.366 92.3501 119.366 92.3235C119.428 85.5517 119.441 78.8016 119.403 72.0731C119.403 72.0729 119.403 72.0726 119.403 72.0724L118.903 72.0752M129.897 92.3818L104.3 67.3431M118.903 72.0752C118.897 69.9629 118.518 68.3678 117.766 67.2899C116.286 65.1777 113.957 64.1742 110.78 64.2795M118.903 72.0752C118.941 78.8023 118.928 85.5511 118.866 92.3216L118.903 72.0752ZM110.78 64.2795L110.764 63.7798C110.764 63.7798 110.764 63.7798 110.763 63.7798L110.78 64.2795ZM110.78 64.2795C107.926 64.3724 105.912 65.475 104.736 67.5873M104.736 67.5873L104.301 67.3421C104.301 67.3424 104.3 67.3428 104.3 67.3431M104.736 67.5873L104.3 67.3442C104.3 67.3438 104.3 67.3435 104.3 67.3431M94.213 60.2774L94.4029 59.8149L94.213 60.2774C94.5012 60.3958 94.8099 60.4563 95.1214 60.4558L102.322 60.4434C102.633 60.4428 102.942 60.3811 103.229 60.2618C103.517 60.1425 103.779 59.9678 103.999 59.7476L103.645 59.394L103.999 59.7476C104.219 59.5274 104.394 59.2661 104.513 58.9785C104.632 58.6909 104.693 58.3827 104.692 58.0715C104.692 58.0715 104.692 58.0715 104.692 58.0715L104.68 51.4746C104.68 51.1634 104.618 50.8554 104.498 50.5682C104.378 50.2811 104.202 50.0204 103.981 49.801C103.76 49.5816 103.498 49.4078 103.21 49.2895C102.922 49.1712 102.613 49.1105 102.302 49.1111L95.1016 49.1235C94.79 49.1241 94.4815 49.1858 94.1938 49.3051C93.9061 49.4244 93.6446 49.5991 93.4243 49.8193C93.2041 50.0394 93.0295 50.3008 92.9105 50.5884C92.7915 50.876 92.7306 51.1842 92.7311 51.4954C92.7311 51.4954 92.7311 51.4954 92.7311 51.4954L92.7427 58.0923C92.7432 58.4035 92.8053 58.7115 92.9253 58.9987C93.0453 59.2858 93.2208 59.5465 93.4418 59.7659C93.6627 59.9853 93.9248 60.1591 94.213 60.2774ZM115.78 49.7928L116.132 50.1477L115.78 49.7928C115.339 50.2307 115.09 50.8255 115.089 51.4467L115.077 58.0995C115.076 58.7206 115.323 59.3164 115.762 59.7558C116.202 60.1951 116.798 60.4422 117.42 60.4433L124.639 60.4558C125.26 60.4569 125.857 60.2119 126.298 59.7741C126.739 59.3362 126.988 58.7413 126.989 58.1202L127.001 51.4674C127.002 50.8462 126.755 50.2505 126.316 49.8111C125.876 49.3718 125.28 49.1247 124.658 49.1236L117.44 49.1111C116.818 49.11 116.221 49.355 115.78 49.7928Z" fill="white" stroke="#00031B"/>
<path d="M139.823 57.5524L134.311 60.4978C134.166 60.5749 134.003 60.6131 133.839 60.609C133.675 60.6049 133.514 60.5585 133.373 60.4743C133.233 60.3901 133.116 60.2709 133.035 60.1285C132.954 59.9861 132.912 59.8253 132.912 59.6616L132.921 51.1133C132.921 50.9415 132.968 50.773 133.056 50.6257C133.145 50.4784 133.272 50.3579 133.425 50.2771L138.955 47.3688C139.101 47.2914 139.264 47.2531 139.429 47.2576C139.594 47.2622 139.755 47.3094 139.896 47.3947C140.037 47.48 140.154 47.6004 140.234 47.7441C140.314 47.8878 140.356 48.0499 140.354 48.2143L140.326 56.7161C140.326 56.8879 140.279 57.0564 140.191 57.2037C140.102 57.351 139.975 57.4715 139.823 57.5524Z" fill="#DEC166"/>
<path d="M89.3665 50.1471L89.3385 87.6295C88.2193 88.6825 86.7551 89.3763 84.9457 89.7108C84.5913 89.7789 84.4141 89.6303 84.4141 89.2648L84.4048 51.7731C84.405 51.5366 84.477 51.3051 84.6115 51.1082C84.7461 50.9112 84.9371 50.7578 85.1602 50.6674L88.8722 49.1808C89.2141 49.0445 89.4069 49.1591 89.4504 49.5245C89.469 49.6918 89.4411 49.8993 89.3665 50.1471Z" fill="#EDFAFF"/>
<path d="M104.192 58.0723C104.192 58.3175 104.144 58.5605 104.051 58.7873C103.957 59.014 103.819 59.2202 103.645 59.3939C103.472 59.5676 103.265 59.7056 103.038 59.7998C102.811 59.8941 102.567 59.9428 102.321 59.9432L95.1206 59.9557C94.8745 59.9561 94.6306 59.9083 94.403 59.8148C94.1754 59.7213 93.9685 59.5841 93.7941 59.411C93.6198 59.2379 93.4813 59.0322 93.3867 58.8058C93.2921 58.5794 93.2432 58.3366 93.2428 58.0913L93.2312 51.4944C93.2308 51.2491 93.2788 51.0062 93.3726 50.7794C93.4664 50.5526 93.6041 50.3465 93.7779 50.1728C93.9517 49.999 94.1581 49.8611 94.3854 49.7668C94.6127 49.6726 94.8563 49.6238 95.1025 49.6234L102.303 49.611C102.549 49.6105 102.793 49.6584 103.02 49.7519C103.248 49.8454 103.455 49.9826 103.629 50.1557C103.803 50.3288 103.942 50.5345 104.037 50.7609C104.131 50.9873 104.18 51.2301 104.18 51.4753L104.192 58.0723ZM103.41 51.508C103.41 51.3433 103.376 51.1803 103.313 51.0283C103.249 50.8764 103.156 50.7384 103.038 50.6223C102.921 50.5063 102.782 50.4144 102.629 50.3518C102.476 50.2893 102.312 50.2575 102.147 50.258L96.6255 50.2773C96.4601 50.2778 96.2965 50.3109 96.144 50.3744C95.9914 50.438 95.853 50.5309 95.7364 50.6477C95.6199 50.7646 95.5277 50.9032 95.465 51.0556C95.4022 51.208 95.3702 51.3713 95.3708 51.536L95.3935 58.0029C95.3941 58.1676 95.4272 58.3306 95.491 58.4826C95.5548 58.6346 95.648 58.7725 95.7653 58.8886C95.8826 59.0047 96.0218 59.0966 96.1748 59.1591C96.3277 59.2216 96.4916 59.2535 96.6569 59.2529L102.178 59.2336C102.343 59.2331 102.507 59.2001 102.66 59.1365C102.812 59.0729 102.951 58.9801 103.067 58.8632C103.184 58.7463 103.276 58.6077 103.339 58.4553C103.401 58.3029 103.433 58.1396 103.433 57.9749L103.41 51.508Z" fill="#00031B"/>
<path d="M126.489 58.1192C126.488 58.6071 126.293 59.0747 125.946 59.4191C125.599 59.7635 125.129 59.9565 124.639 59.9557L117.421 59.9432C116.931 59.9423 116.462 59.7477 116.116 59.402C115.77 59.0564 115.577 58.5882 115.577 58.1003L115.589 51.4475C115.59 50.9595 115.785 50.492 116.132 50.1475C116.479 49.8031 116.949 49.6101 117.439 49.611L124.658 49.6235C125.147 49.6244 125.617 49.819 125.962 50.1646C126.308 50.5102 126.502 50.9785 126.501 51.4664L126.489 58.1192ZM125.783 51.5382C125.783 51.3711 125.75 51.2055 125.686 51.0509C125.622 50.8964 125.528 50.7559 125.41 50.6375C125.291 50.5191 125.151 50.4251 124.996 50.3608C124.841 50.2966 124.675 50.2634 124.507 50.2631L119.023 50.2536C118.855 50.2533 118.689 50.2859 118.534 50.3496C118.379 50.4133 118.238 50.5068 118.119 50.6248C118 50.7428 117.906 50.883 117.841 51.0373C117.777 51.1917 117.743 51.3571 117.743 51.5243L117.732 57.9541C117.732 58.1213 117.764 58.2869 117.828 58.4414C117.892 58.596 117.986 58.7365 118.105 58.8549C118.223 58.9733 118.364 59.0673 118.519 59.1315C118.674 59.1958 118.84 59.229 119.007 59.2293L124.491 59.2387C124.659 59.239 124.825 59.2064 124.981 59.1427C125.136 59.079 125.277 58.9855 125.396 58.8675C125.514 58.7495 125.609 58.6093 125.673 58.455C125.738 58.3007 125.771 58.1352 125.771 57.968L125.783 51.5382Z" fill="#00031B"/>
<path d="M89.3664 50.1468L89.5436 50.6114C89.5996 50.7477 89.699 50.8034 89.842 50.7786C89.9229 50.7601 90.0161 50.7291 90.1218 50.6857L90.1684 87.5456C90.0814 87.6943 89.8047 87.7221 89.3384 87.6292L89.3664 50.1468Z" fill="#00031B"/>
<path d="M102.147 50.258L96.6253 50.2772C95.9299 50.2796 95.3682 50.8431 95.3706 51.5359L95.3933 58.0028C95.3957 58.6956 95.9614 59.2552 96.6567 59.2528L102.178 59.2336C102.873 59.2312 103.435 58.6676 103.433 57.9749L103.41 51.508C103.408 50.8152 102.842 50.2555 102.147 50.258Z" fill="#DEC166"/>
<path d="M124.507 50.2631L119.023 50.2536C118.318 50.2524 117.745 50.8213 117.743 51.5243L117.732 57.9541C117.731 58.6572 118.302 59.2281 119.008 59.2293L124.492 59.2388C125.197 59.2401 125.77 58.6711 125.772 57.9681L125.783 51.5383C125.784 50.8353 125.213 50.2644 124.507 50.2631Z" fill="#DEC166"/>
<path d="M73.5113 50.6578L73.4647 92.1914C73.3714 92.1604 73.2906 92.1356 73.2222 92.117C73.1103 92.0984 73.0418 92.1449 73.017 92.2564C72.9797 92.4423 72.8958 92.5785 72.7652 92.6652L72.7559 50.918L73.5113 50.6578Z" fill="#00031B"/>
<path d="M160.722 36.606C161.026 36.4953 161.348 36.7205 161.348 37.0442V90.2678C161.348 90.5253 161.139 90.7341 160.882 90.7341C160.624 90.7341 160.416 90.5253 160.416 90.2678V37.0442C160.416 36.8481 160.538 36.673 160.722 36.606Z" fill="#888888"/>
<path d="M151.63 54.6069C150.996 54.4148 150.595 54.5821 150.427 55.1086C148.12 59.0297 146.762 63.2852 146.351 67.8753C146.32 68.3213 146.273 68.5443 146.211 68.5443C146.137 68.5472 146.063 68.5344 145.994 68.5065C145.925 68.4787 145.863 68.4365 145.812 68.3829C145.761 68.3292 145.722 68.2654 145.697 68.1955C145.673 68.1256 145.664 68.0512 145.67 67.9775C146.162 62.0371 148.039 56.9298 151.304 52.6556C151.571 52.3025 151.698 52.3459 151.686 52.7857L151.63 54.6069Z" fill="#00031B"/>
<path d="M142.835 54.514L143.395 54.6348L143.674 71.0438C143.681 71.3535 143.765 71.6415 143.926 71.9079C144.89 73.4565 145.036 75.0856 144.365 76.7953L143.507 72.6326C143.395 72.0875 143.267 72.0844 143.124 72.6233C142.9 73.4534 142.894 74.3051 143.106 75.1785C143.59 77.1546 143.895 79.0159 144.019 80.7628C144.057 81.2211 144.19 81.2521 144.421 80.8557C144.719 80.354 144.902 79.7469 144.971 79.0345L145.782 69.3062C145.801 69.0275 145.953 68.9005 146.239 68.9252C146.668 68.9562 146.901 68.8509 146.939 68.6094C148.959 64.3476 150.259 59.8721 150.837 55.183C150.856 55.0405 150.794 54.9816 150.651 55.0064C150.57 55.0188 150.495 55.0529 150.427 55.1086C150.595 54.5821 150.996 54.4149 151.63 54.6069C151.027 60.0765 149.482 65.2984 146.995 70.2725C146.839 70.5761 146.786 70.8424 146.836 71.0716C146.898 71.3689 147.051 71.626 147.293 71.8428C147.536 72.0596 147.759 72.0379 147.965 71.7778C148.101 71.6043 148.101 71.4712 147.965 71.3782C147.498 71.0561 147.473 70.703 147.89 70.319L149.541 68.8044C150.02 68.3646 150.172 68.4576 149.998 69.0832C149.469 71.0159 148.459 72.8742 146.967 74.6582C146.444 75.2838 146.286 76.0922 146.491 77.0833C146.584 77.5107 146.789 77.5727 147.107 77.2692L147.862 76.5444C147.968 76.4453 148.077 76.4391 148.188 76.5258L148.403 76.7023C148.502 76.7829 148.512 76.8727 148.431 76.9718C147.287 78.4089 146.522 80.0008 146.137 81.7477C145.788 82.3485 145.779 82.937 146.109 83.5131C146.252 83.7609 146.345 84.0241 146.388 84.3029L146.538 85.2599C146.594 85.6316 146.743 85.675 146.985 85.39C147.439 84.8573 147.763 84.179 147.955 83.3552L149.438 80.5677C149.811 79.8739 149.681 79.7593 149.046 80.2239C148.114 80.9177 147.548 81.9831 147.349 83.4202C146.852 83.5317 146.628 83.0547 146.678 81.9893C147.778 80.0752 149.242 78.539 151.07 77.3806C151.375 77.1886 151.465 77.2629 151.341 77.6036L149.942 81.3853L146.006 89.0137C145.851 89.3172 145.823 89.6363 145.922 89.9708C146.189 90.8814 146.342 91.7919 146.379 92.7025C146.404 93.2414 146.286 93.2724 146.025 92.7954C145.415 91.6866 145.045 90.4756 144.915 89.1624C144.884 88.8527 144.769 88.5739 144.57 88.3261C143.774 87.3288 142.792 86.567 141.623 86.0404C141.399 85.9413 141.172 85.9351 140.942 86.0218L140.634 86.1333C140.398 86.0095 140.233 85.8608 140.14 85.6874C140.357 85.3653 140.28 84.9905 139.907 84.5631C139.08 83.6029 138.501 82.8998 138.172 82.4538C137.233 81.1654 137.472 80.8898 138.89 81.6269C139.959 82.1782 141.097 82.9061 142.303 83.8104C142.453 83.9219 142.583 83.9034 142.695 83.7547C142.764 83.6618 142.742 83.5534 142.63 83.4295C137.73 77.9536 134.597 71.5455 133.229 64.2051C133.042 63.1954 133.282 63.0808 133.947 63.8613C137.746 68.3275 140.538 73.9211 142.322 80.642C142.465 81.1747 142.611 81.1747 142.76 80.642C142.953 79.9854 142.99 79.3412 142.872 78.7093C142.344 75.8227 142.151 73.1963 142.294 70.83C142.499 67.3054 142.589 64.9949 142.565 63.8985C142.496 60.7641 142.586 57.6359 142.835 54.514ZM140.846 79.5318C141.071 79.428 140.968 78.6456 140.56 77.3568C140.152 76.068 139.473 74.3784 138.673 72.6596C137.872 70.9407 137.015 69.3335 136.29 68.1914C135.565 67.0493 135.031 66.466 134.807 66.5697C134.583 66.6735 134.686 67.4559 135.093 68.7447C135.501 70.0335 136.18 71.7231 136.981 73.4419C137.782 75.1608 138.639 76.768 139.364 77.9101C140.089 79.0522 140.622 79.6355 140.846 79.5318ZM146.006 86.0311C145.428 84.5817 145.297 83.6804 143.945 82.8441C143.839 82.776 143.786 82.8038 143.786 82.9277L143.796 84.2936C143.796 84.3527 143.811 84.4101 143.841 84.4594C143.871 84.5087 143.913 84.5478 143.964 84.5724C144.971 85.1051 145.409 85.9165 145.279 87.0068C145.223 87.4961 145.372 87.5704 145.726 87.2297C146.093 86.8767 146.186 86.4771 146.006 86.0311Z" fill="#00031B"/>
<path d="M150.427 55.1086C150.495 55.0529 150.57 55.0188 150.651 55.0064C150.794 54.9816 150.856 55.0405 150.837 55.1829C150.259 59.8721 148.96 64.3476 146.939 68.6094C146.659 68.6465 146.491 68.6248 146.435 68.5443C146.317 68.3709 146.289 68.1478 146.351 67.8753C146.762 63.2852 148.12 59.0297 150.427 55.1086Z" fill="#EDFAFF"/>
<path d="M194.588 87.6574C194.569 77.4985 194.551 68.145 194.532 59.5967C194.526 57.8932 195.328 56.5769 196.938 55.6477C197.031 55.5982 197.128 55.5517 197.227 55.5084C197.535 55.368 197.873 55.307 198.21 55.3309C198.547 55.3549 198.873 55.463 199.157 55.6453C199.442 55.8276 199.675 56.0783 199.837 56.3743C199.998 56.6703 200.082 57.002 200.081 57.3388L200.063 84.2752C200.063 84.4672 199.982 84.6097 199.82 84.7027L194.747 87.7503C194.731 87.7607 194.712 87.7665 194.693 87.7669C194.674 87.7674 194.655 87.7626 194.638 87.7529C194.622 87.7432 194.608 87.7292 194.599 87.7123C194.591 87.6954 194.587 87.6764 194.588 87.6574Z" fill="#DEC166"/>
<path d="M205.005 58.1657C206.293 59.7639 208.214 63.1274 207.374 65.3017C206.902 66.5096 206.485 66.4941 206.125 65.2552C205.459 62.9881 204.89 60.7178 204.418 58.4445C204.225 57.5277 204.421 57.4348 205.005 58.1657Z" fill="#EDFAFF"/>
<path d="M8.76698 70.9973C7.95868 69.7956 7.54208 68.2811 7.51721 66.4537C7.50477 65.7785 7.25296 65.2953 6.76176 65.0042C6.46953 64.837 6.24879 64.8989 6.09956 65.19C5.50267 66.3329 4.79389 67.1598 4.85918 68.5071C4.94623 70.1548 5.23846 71.8088 5.73587 73.4689C5.82914 73.7786 6.025 73.8746 6.32344 73.7569C7.46749 73.3109 8.24158 72.3229 8.64573 70.7929C9.44159 70.1548 10.1784 69.3589 10.8561 68.4049C12.0126 66.7696 13.4986 65.5741 15.3141 64.8184C15.3626 64.7993 15.4146 64.7909 15.4664 64.7936C15.5182 64.7963 15.5687 64.8102 15.6141 64.8341C15.6595 64.8581 15.6988 64.8915 15.7292 64.9322C15.7595 64.9728 15.7802 65.0196 15.7898 65.0692C16.3556 67.9187 16.1193 70.6132 15.081 73.1529C14.9566 73.4565 15.0561 73.5773 15.3794 73.5153C15.566 73.4843 15.7618 73.3357 15.967 73.0693C16.0331 72.983 16.1223 72.9174 16.2246 72.8801C16.3268 72.8429 16.4379 72.8355 16.5451 72.8588C16.6522 72.8821 16.7511 72.9351 16.8303 73.0118C16.9095 73.0885 16.9659 73.1857 16.9929 73.2923C17.7763 76.5134 16.8997 79.177 14.3629 81.2831C14.1266 81.4813 13.9618 81.7291 13.8685 82.0265C13.1224 84.4795 12.7774 87.0253 10.8468 88.9673C10.6789 89.1345 10.6385 89.3266 10.7255 89.5434L13.0944 95.5179C13.169 95.6975 13.1162 95.8214 12.9359 95.8896L12.6654 95.9917C12.6157 96.0103 12.5784 95.998 12.5535 95.9546C10.7939 92.5539 9.66854 89.0664 9.17735 85.4922C8.91621 83.606 7.85296 82.4353 6.93897 80.8278C5.94103 79.081 3.9918 77.9103 2.8633 76.1449C-0.93569 70.2354 -0.95434 64.3197 2.80734 58.3979C2.8364 58.3502 2.87584 58.3096 2.92278 58.2792C2.96973 58.2487 3.02299 58.2292 3.07853 58.2221C3.13407 58.215 3.19051 58.2204 3.24367 58.2379C3.29683 58.2555 3.34532 58.2847 3.38558 58.3235C7.01047 61.7057 8.80429 65.9303 8.76698 70.9973ZM4.01977 69.4735C3.27987 64.7409 2.9441 62.0557 3.0125 61.4176C3.19281 59.7328 2.90058 59.6491 2.13581 61.1668C1.27155 62.8888 0.873651 64.8152 0.942045 66.9461C0.960698 67.5284 1.19386 68.0116 1.64153 68.3956L3.33896 69.8544C3.91098 70.35 4.13791 70.223 4.01977 69.4735ZM4.70992 60.8044C4.66214 60.7193 4.58718 60.6527 4.49697 60.615C4.40676 60.5773 4.3065 60.5707 4.21212 60.5964C4.11774 60.622 4.03468 60.6784 3.97617 60.7565C3.91766 60.8346 3.88702 60.93 3.88919 61.0274L3.94515 65.7475C3.94711 65.8434 3.98068 65.9359 4.04066 66.0108C4.10065 66.0858 4.18378 66.139 4.27713 66.1623C4.37048 66.1855 4.46886 66.1775 4.5572 66.1395C4.64553 66.1015 4.71887 66.0356 4.76588 65.9519L6.06228 63.5733C6.09904 63.508 6.11835 63.4344 6.11835 63.3596C6.11835 63.2847 6.09904 63.2112 6.06228 63.1459L4.70992 60.8044ZM10.3711 77.808C14.0364 74.9834 15.9297 70.8115 15.3235 66.2586C15.2675 65.8249 15.0499 65.7166 14.6706 65.9334C10.2188 68.4483 8.46231 72.2827 9.40117 77.4364C9.41928 77.5391 9.46373 77.6352 9.53022 77.7157C9.59671 77.7962 9.68299 77.8581 9.78063 77.8955C9.87827 77.933 9.98392 77.9446 10.0874 77.9292C10.1909 77.9139 10.2886 77.8721 10.3711 77.808ZM5.54 76.9625L4.91514 73.7383C4.87161 73.5029 4.84673 73.2676 4.84051 73.0322C4.79388 71.3318 3.25498 70.5234 1.60419 69.5478C1.23113 69.3248 1.07569 69.427 1.13786 69.8544C1.56067 72.7038 2.82597 75.1816 4.93375 77.2877C5.48712 77.8452 5.68922 77.7368 5.54 76.9625ZM7.7317 77.6315C7.35242 78.9943 7.47991 80.3044 8.11411 81.5619C8.39391 82.1256 8.62395 82.107 8.80427 81.5061C9.27059 79.9328 9.09338 78.443 8.27265 77.0369C7.91202 76.275 7.75035 75.4851 7.78765 74.6675C7.80009 74.3515 7.66024 74.2494 7.36801 74.3609C7.0136 74.4848 6.69025 74.6768 6.39802 74.937C6.15553 75.1538 6.10581 75.4077 6.24882 75.6989C6.57835 76.3679 7.07263 77.0121 7.7317 77.6315ZM13.8086 80.2421C13.9495 80.2985 14.1202 80.277 14.3111 80.1788C14.5019 80.0806 14.7092 79.9076 14.9209 79.6698C15.1326 79.4319 15.3447 79.1337 15.5451 78.7924C15.7455 78.451 15.9302 78.0732 16.0887 77.6803C16.4088 76.8869 16.6029 76.0807 16.628 75.4391C16.6532 74.7975 16.5074 74.373 16.2228 74.259C16.0819 74.2026 15.9111 74.2241 15.7203 74.3223C15.5294 74.4205 15.3222 74.5935 15.1105 74.8314C14.8988 75.0692 14.6867 75.3673 14.4863 75.7087C14.2859 76.05 14.1012 76.4279 13.9427 76.8208C13.6226 77.6142 13.4286 78.4204 13.4034 79.062C13.3783 79.7036 13.524 80.1281 13.8086 80.2421ZM9.67162 79.462C9.3825 82.2773 9.93275 84.7675 10.3618 87.5271C10.3747 87.6 10.4098 87.6672 10.4623 87.7197C10.5148 87.7721 10.5822 87.8073 10.6553 87.8205C10.7285 87.8336 10.8039 87.8242 10.8715 87.7933C10.9391 87.7624 10.9956 87.7117 11.0333 87.6479C12.395 85.2445 13.0447 83.1941 12.9825 81.4968C12.8892 79.0067 12.9421 77.3682 13.1411 76.5815C13.1431 76.5684 13.1414 76.5548 13.1363 76.5423C13.1312 76.5299 13.123 76.5194 13.1127 76.5122C13.1024 76.5051 13.0907 76.5017 13.0791 76.5024C13.0674 76.5032 13.0565 76.5081 13.0478 76.5165L9.8675 79.0996C9.74936 79.1925 9.68406 79.3133 9.67162 79.462Z" fill="#00031B"/>
<path d="M202.067 60.349C201.744 60.1694 201.853 59.7513 202.394 59.0947C202.493 58.915 202.608 58.788 202.739 58.7137C202.811 58.6701 202.891 58.6429 202.975 58.634C203.058 58.6251 203.143 58.6348 203.222 58.6624C203.302 58.6899 203.374 58.7346 203.434 58.7933C203.494 58.852 203.54 58.9232 203.569 59.0017L204.744 62.2538C204.771 62.3216 204.776 62.3961 204.758 62.4668C204.741 62.5376 204.702 62.6013 204.647 62.6491C204.592 62.6969 204.523 62.7266 204.45 62.734C204.378 62.7414 204.304 62.7262 204.24 62.6905C203.152 62.1144 202.428 61.334 202.067 60.349Z" fill="#EDFAFF"/>
<path d="M4.01982 69.4735C4.13796 70.223 3.91103 70.35 3.33901 69.8544L1.64158 68.3956C1.19391 68.0116 0.960747 67.5284 0.942094 66.9462C0.8737 64.8153 1.2716 62.8888 2.13585 61.1668C2.90063 59.6492 3.19286 59.7328 3.01255 61.4177C2.94415 62.0557 3.27992 64.741 4.01982 69.4735Z" fill="#00031B"/>
<path d="M4.71 60.8042L6.06235 63.1457C6.09912 63.211 6.11843 63.2845 6.11843 63.3594C6.11843 63.4342 6.09912 63.5078 6.06235 63.5731L4.76596 65.9517C4.71895 66.0354 4.64561 66.1013 4.55728 66.1393C4.46894 66.1773 4.37056 66.1853 4.27721 66.1621C4.18386 66.1388 4.10073 66.0856 4.04074 66.0106C3.98075 65.9357 3.94719 65.8432 3.94522 65.7473L3.88927 61.0272C3.8871 60.9298 3.91773 60.8344 3.97625 60.7563C4.03476 60.6782 4.11782 60.6218 4.2122 60.5962C4.30658 60.5705 4.40684 60.5771 4.49705 60.6148C4.58726 60.6525 4.66222 60.7191 4.71 60.8042Z" fill="#00031B"/>
<path d="M206.237 67.9311C206.722 67.4851 207.169 67.0205 207.58 66.5374C207.903 66.1471 208.04 66.2029 207.99 66.7047L207.794 68.6652C207.763 69.0431 207.57 69.1669 207.216 69.0368C207.123 69.0059 207.032 68.9501 206.945 68.8696C206.815 68.7395 206.681 68.7364 206.544 68.8603C206.327 69.0585 206.277 69.3001 206.395 69.5851C206.538 69.9381 206.42 70.1178 206.041 70.124C205.73 70.1364 205.487 70.0094 205.313 69.743C204.107 67.9095 203.227 65.6113 202.674 62.8486C202.67 62.8411 202.669 62.8325 202.67 62.8242C202.672 62.8159 202.677 62.8085 202.683 62.803C202.69 62.7976 202.698 62.7946 202.706 62.7944C202.715 62.7943 202.723 62.797 202.73 62.8022C203.265 63.0561 203.886 63.403 204.595 63.8428C204.734 63.9332 204.839 64.0672 204.894 64.2238C205.279 65.4317 205.528 66.5931 205.64 67.7081C205.689 68.1851 205.888 68.2594 206.237 67.9311Z" fill="#EDFAFF"/>
<path d="M8.76698 70.9973C8.72967 70.9292 8.68925 70.861 8.64573 70.7929C8.24158 72.3229 7.46749 73.3109 6.32344 73.7569C6.025 73.8746 5.82914 73.7786 5.73587 73.4689C5.23846 71.8088 4.94623 70.1548 4.85918 68.5071C4.79389 67.1598 5.50267 66.3329 6.09956 65.19C6.24878 64.8989 6.46953 64.837 6.76176 65.0042C7.25296 65.2954 7.50477 65.7785 7.5172 66.4537C7.54207 68.2811 7.95868 69.7956 8.76698 70.9973Z" fill="#00031B"/>
<path d="M106.574 92.7676C106.383 92.7651 106.2 92.6877 106.065 92.552C105.931 92.4164 105.856 92.2334 105.856 92.0428L105.884 72.0287C105.885 71.1152 106.045 70.211 106.353 69.3677C106.661 68.5243 107.112 67.7585 107.681 67.1138C108.249 66.4692 108.923 65.9584 109.665 65.6108C110.406 65.2632 111.2 65.0855 112.002 65.0878H112.338C113.954 65.0926 115.502 65.8282 116.642 67.1331C117.783 68.438 118.421 70.2055 118.418 72.0473L118.391 92.0614C118.391 92.1574 118.371 92.2524 118.334 92.3409C118.297 92.4295 118.243 92.5098 118.174 92.5772C118.106 92.6446 118.024 92.6978 117.935 92.7337C117.846 92.7695 117.75 92.7873 117.654 92.7861L106.574 92.7676Z" fill="white"/>
<path d="M15.3233 66.2584C15.9296 70.8113 14.0363 74.9832 10.371 77.8079C10.2885 77.872 10.1907 77.9137 10.0873 77.9291C9.98379 77.9444 9.87814 77.9328 9.7805 77.8954C9.68286 77.858 9.59658 77.796 9.53009 77.7155C9.46359 77.6351 9.41914 77.5389 9.40104 77.4362C8.46217 72.2825 10.2186 68.4481 14.6705 65.9332C15.0497 65.7164 15.2674 65.8248 15.3233 66.2584Z" fill="#DEC166"/>
<path d="M136.981 73.4419C138.649 77.0213 140.379 79.7478 140.847 79.5318C141.314 79.3157 140.341 76.2389 138.673 72.6595C137.005 69.0801 135.274 66.3536 134.807 66.5697C134.34 66.7857 135.313 69.8625 136.981 73.4419Z" fill="#EDFAFF"/>
<path d="M4.93348 77.2876C2.82569 75.1815 1.56039 72.7038 1.13759 69.8544C1.07541 69.4269 1.23086 69.3248 1.60392 69.5478C3.2547 70.5234 4.7936 71.3318 4.84023 73.0321C4.84645 73.2675 4.87134 73.5029 4.91486 73.7382L5.53972 76.9625C5.68894 77.7368 5.48685 77.8451 4.93348 77.2876Z" fill="#00031B"/>
<path d="M205.64 74.1378L204.968 73.8311C204.695 73.7073 204.558 73.4967 204.558 73.1993L204.567 70.449C204.566 70.4171 204.574 70.3855 204.59 70.358C204.606 70.3304 204.629 70.308 204.658 70.2933C204.686 70.2787 204.718 70.2724 204.75 70.2753C204.782 70.2782 204.812 70.2901 204.838 70.3096C206.143 71.341 208.121 73.3573 207.272 75.0669C207.092 75.4324 206.88 75.4479 206.638 75.1134L206.33 74.7046C206.15 74.4506 205.92 74.2617 205.64 74.1378Z" fill="white"/>
<path d="M144.365 76.7953L144.971 79.0345C144.903 79.7469 144.719 80.354 144.421 80.8557C144.191 81.2521 144.057 81.2211 144.02 80.7628C143.895 79.0159 143.591 77.1546 143.106 75.1785C142.894 74.3051 142.901 73.4534 143.124 72.6233C143.267 72.0844 143.395 72.0875 143.507 72.6326L144.365 76.7953Z" fill="#EDFAFF"/>
<path d="M8.2726 77.037C7.68193 76.9998 7.5016 77.198 7.73165 77.6316C7.07258 77.0121 6.57831 76.368 6.24877 75.699C6.10577 75.4078 6.15548 75.1539 6.39797 74.9371C6.6902 74.6769 7.01356 74.4849 7.36796 74.361C7.66019 74.2495 7.80004 74.3516 7.78761 74.6676C7.7503 75.4852 7.91198 76.2751 8.2726 77.037Z" fill="#00031B"/>
<path d="M13.9427 76.821C13.2761 78.4732 13.2161 80.005 13.8087 80.2423C14.4013 80.4796 15.4221 79.3327 16.0888 77.6805C16.7555 76.0283 16.8155 74.4966 16.2229 74.2592C15.6303 74.0219 14.6094 75.1689 13.9427 76.821Z" fill="#00031B"/>
<path d="M205.08 77.0834C205.055 76.9223 204.9 76.848 204.614 76.8604L204.903 75.4667C204.984 75.0826 205.183 75.0052 205.5 75.2344C207.017 76.337 207.775 77.8298 207.775 79.7129C207.775 80.2147 207.614 80.2735 207.29 79.8894C206.488 78.9355 205.979 77.8019 205.761 76.4887C205.686 76.0737 205.515 76.0303 205.248 76.3586C205.08 76.563 205.024 76.8046 205.08 77.0834Z" fill="#00031B"/>
<path d="M10.3617 87.527C9.93271 84.7674 9.38245 82.2773 9.67157 79.4619C9.68401 79.3132 9.74932 79.1924 9.86745 79.0995L13.0478 76.5165C13.0564 76.5081 13.0674 76.5031 13.079 76.5024C13.0906 76.5016 13.1024 76.505 13.1127 76.5122C13.1229 76.5193 13.1311 76.5299 13.1362 76.5423C13.1413 76.5547 13.143 76.5684 13.1411 76.5815C12.9421 77.3682 12.8892 79.0066 12.9825 81.4968C13.0446 83.194 12.3949 85.2444 11.0333 87.6478C10.9955 87.7116 10.939 87.7624 10.8714 87.7932C10.8038 87.8241 10.7284 87.8336 10.6553 87.8204C10.5821 87.8072 10.5147 87.7721 10.4623 87.7196C10.4098 87.6672 10.3747 87.6 10.3617 87.527Z" fill="white"/>
<path d="M8.27265 77.0369C9.09338 78.443 9.27059 79.9328 8.80426 81.5062C8.62395 82.107 8.39391 82.1256 8.11411 81.5619C7.47991 80.3044 7.35242 78.9943 7.7317 77.6315C7.50164 77.1979 7.68197 76.9997 8.27265 77.0369Z" fill="white"/>
<path d="M147.955 83.3552L147.349 83.4202C147.548 81.9831 148.114 80.9177 149.047 80.2239C149.681 79.7593 149.811 79.8739 149.438 80.5677L147.955 83.3552Z" fill="#EDFAFF"/>
<path d="M146.137 81.7477C146.348 81.7787 146.528 81.8592 146.678 81.9893C146.628 83.0547 146.852 83.5317 147.349 83.4202L147.955 83.3552C147.763 84.179 147.439 84.8573 146.985 85.3901C146.743 85.675 146.594 85.6316 146.538 85.26L146.389 84.3029C146.345 84.0242 146.252 83.7609 146.109 83.5131C145.779 82.9371 145.789 82.3486 146.137 81.7477Z" fill="#EDFAFF"/>
<path d="M146.006 86.031C146.186 86.477 146.093 86.8765 145.726 87.2296C145.372 87.5703 145.223 87.496 145.279 87.0066C145.409 85.9164 144.971 85.1049 143.964 84.5722C143.913 84.5476 143.871 84.5085 143.841 84.4592C143.811 84.4099 143.796 84.3525 143.796 84.2935L143.786 82.9276C143.786 82.8037 143.839 82.7758 143.945 82.844C145.297 83.6802 145.428 84.5815 146.006 86.031Z" fill="#EDFAFF"/>
</svg>
