<svg width="208" height="96" viewBox="0 0 208 96" fill="none" xmlns="http://www.w3.org/2000/svg">
<path d="M87.8556 20.0049L74.211 36.8877C74.0309 37.1107 73.803 37.29 73.5446 37.4123C73.2861 37.5346 73.0037 37.5967 72.7187 37.5939L11.6396 37.4174C11.0427 36.8661 11.0271 36.2404 11.5929 35.5405C20.907 23.9817 30.3081 12.33 39.7962 0.585377C39.9448 0.402675 40.1324 0.255328 40.3454 0.154057C40.5584 0.052786 40.7913 0.000141426 41.0273 0L101.575 0.0371744C101.791 0.038021 102.003 0.0993576 102.186 0.214086C102.369 0.328815 102.516 0.492268 102.609 0.685586C102.703 0.878904 102.739 1.09419 102.715 1.30663C102.69 1.51907 102.605 1.71999 102.47 1.8862L87.8556 20.0049Z" fill="#DEC166"/>
<path d="M100.007 47.3482L87.305 47.3871C87.2167 47.3879 87.1294 47.3675 87.0502 47.3277C86.971 47.2878 86.9021 47.2295 86.8491 47.1576C86.7961 47.0856 86.7604 47.002 86.745 46.9134C86.7296 46.8248 86.7348 46.7339 86.7602 46.6477L92.8482 25.9726L95.5625 16.6324C95.6331 16.3923 95.7841 16.1853 95.9888 16.0482C96.1935 15.9111 96.4386 15.8526 96.6806 15.8832C98.3563 16.0778 100.548 16.1492 103.256 16.0973C115.075 15.8962 126.875 15.7957 138.656 15.7957C138.704 15.7956 138.751 15.8066 138.794 15.8278C138.837 15.8489 138.874 15.8797 138.903 15.9175C138.931 15.9553 138.951 15.9992 138.96 16.0456C138.968 16.092 138.966 16.1397 138.952 16.1848L129.902 46.6672C129.793 47.0239 129.554 47.2023 129.185 47.2023L100.007 47.3482Z" fill="#00031B"/>
<path d="M140.177 17.8958L147.554 43.9124C147.573 43.984 147.575 44.0591 147.561 44.1316C147.546 44.2041 147.515 44.272 147.469 44.3298C147.424 44.3877 147.366 44.4338 147.3 44.4646C147.233 44.4954 147.161 44.5099 147.088 44.507L143.824 44.4327C143.388 44.4203 143.171 44.1973 143.171 43.7637C143.161 42.3421 143.199 41.0413 142.882 39.6382C141.576 33.9084 140.298 28.225 139.048 22.5881C138.626 20.674 138.843 19.0821 139.701 17.8122C139.919 17.4963 140.077 17.5242 140.177 17.8958Z" fill="#DEC166"/>
<path d="M166.095 17.9886L200.221 17.6541C200.267 17.6531 200.314 17.6633 200.355 17.6839C200.397 17.7044 200.433 17.7346 200.46 17.772C200.488 17.8094 200.506 17.8528 200.513 17.8986C200.52 17.9444 200.516 17.9912 200.501 18.0351L194.569 35.3454C194.549 35.4033 194.512 35.4534 194.461 35.4885C194.411 35.5236 194.351 35.5418 194.289 35.5405L157.869 34.5928C157.821 34.5917 157.773 34.5784 157.73 34.5539C157.688 34.5295 157.653 34.4947 157.628 34.453C157.602 34.4112 157.588 34.3638 157.587 34.3151C157.585 34.2664 157.596 34.2181 157.618 34.1746L165.834 18.1466C165.859 18.0986 165.896 18.0583 165.942 18.0304C165.988 18.0025 166.041 17.988 166.095 17.9886Z" fill="#00031B"/>
<path d="M200.305 20.9806L200.827 19.6054C200.849 19.5442 200.89 19.4912 200.943 19.4538C200.997 19.4163 201.06 19.3962 201.126 19.3962C201.191 19.3962 201.255 19.4163 201.308 19.4538C201.361 19.4912 201.402 19.5442 201.424 19.6054L207.094 33.5986C207.115 33.6477 207.123 33.7013 207.117 33.7542C207.111 33.8071 207.092 33.8577 207.061 33.9012C207.03 33.9448 206.989 33.9799 206.941 34.0034C206.893 34.0268 206.84 34.0378 206.787 34.0353L204.912 33.961C204.848 33.9587 204.786 33.9371 204.734 33.8989C204.683 33.8608 204.644 33.8079 204.623 33.7472L200.305 21.1943C200.28 21.1252 200.28 21.0496 200.305 20.9806Z" fill="#00031B"/>
<path d="M87.8555 20.0049C87.7187 20.4757 87.815 20.7358 88.1446 20.7854L73.7538 38.4766C73.5549 38.712 73.4585 38.9877 73.4647 39.3036L73.5113 50.658L72.7559 50.9181L72.7093 39.0156C72.7093 38.712 72.5569 38.5602 72.2522 38.5602L20.5649 38.551C20.2726 38.551 20.1234 38.6965 20.1172 38.9877L20.0426 43.0295L19.2312 42.7972L19.3711 39.1271C19.3835 38.7926 19.2219 38.6222 18.8861 38.616L11.7607 38.4766L11.6394 37.4174L72.7185 37.5939C73.0036 37.5967 73.2859 37.5347 73.5444 37.4124C73.8029 37.29 74.0307 37.1107 74.2108 36.8878L87.8555 20.0049Z" fill="#00031B"/>
<path d="M142.835 54.5139C142.586 57.6359 142.496 60.7641 142.565 63.8985C142.589 64.9949 142.499 67.3053 142.294 70.83C142.151 73.1962 142.344 75.8227 142.872 78.7093C142.991 79.3411 142.953 79.9854 142.761 80.642C142.611 81.1747 142.465 81.1747 142.322 80.642C140.538 73.921 137.746 68.3275 133.947 63.8613C133.282 63.0808 133.042 63.1954 133.229 64.2051C134.597 71.5454 137.73 77.9536 142.63 83.4295C142.742 83.5533 142.764 83.6617 142.695 83.7546C142.583 83.9033 142.453 83.9219 142.304 83.8104C141.097 82.906 139.959 82.1782 138.89 81.6269C137.472 80.8897 137.233 81.1654 138.172 82.4538C138.501 82.8998 139.08 83.6029 139.907 84.563C140.28 84.9904 140.357 85.3652 140.14 85.6873L132.054 91.7919C131.618 92.1202 131.401 92.0149 131.401 91.476C131.32 76.9129 131.186 62.7772 131 49.069C130.969 47.031 131.258 45.0303 131.867 43.0666C133.913 36.482 135.85 30.0584 137.678 23.7958C138.069 22.4392 138.405 22.4516 138.685 23.833C139.363 27.178 140.127 30.5911 140.979 34.0723C141.738 37.1696 142.22 40.5362 142.425 44.1723C142.624 47.635 142.761 51.0822 142.835 54.5139ZM132.026 54.1701C131.932 56.0408 131.945 57.9022 132.063 59.7544C132.08 60.0243 132.163 60.2861 132.305 60.5168C132.446 60.7475 132.642 60.9401 132.875 61.0776C133.108 61.2152 133.371 61.2935 133.64 61.3058C133.91 61.3181 134.179 61.264 134.423 61.1481C136.506 60.1694 138.56 59.1256 140.587 58.0168C143.143 56.6138 142.397 49.8867 141.958 47.5824C141.903 47.2976 141.781 47.0299 141.602 46.8008C141.423 46.5718 141.193 46.3879 140.929 46.2639C140.666 46.14 140.377 46.0796 140.086 46.0875C139.795 46.0954 139.51 46.1714 139.254 46.3094C137.295 47.3624 135.324 48.4062 133.341 49.4407C131.41 50.4628 132.091 52.7021 132.026 54.1701Z" fill="white"/>
<path d="M203.247 70.7936L203.247 70.7928C203.247 69.7086 202.983 68.347 202.433 66.6953C201.778 64.7371 201.487 62.6915 201.559 60.5618C201.508 60.497 201.466 60.4227 201.436 60.3384C201.365 60.1404 201.379 59.9424 201.423 59.7747C201.494 59.5024 201.666 59.216 201.889 58.9264C201.869 57.6548 202.232 56.4703 202.969 55.3851C203.099 55.1933 203.167 54.9638 203.163 54.7275L203.163 54.7221C203.113 48.2956 203.119 41.8722 203.181 35.4519L203.181 35.4509C203.199 33.9333 202.879 32.2697 202.205 30.4554L202.205 30.4535C201.4 28.2613 200.643 26.0691 199.932 23.8767M203.247 70.7936L200.408 23.7214M203.247 70.7936C203.253 74.3924 203.259 78.0933 203.265 81.8965C203.265 82.0435 203.227 82.1891 203.152 82.3191C203.078 82.4487 202.97 82.5583 202.839 82.6366C202.839 82.6369 202.838 82.6371 202.838 82.6374L201.457 83.4446L201.365 58.0805L203.247 70.7936ZM199.932 23.8767C199.932 23.8763 199.932 23.876 199.932 23.8756L200.408 23.7214M199.932 23.8767C199.932 23.877 199.933 23.8772 199.933 23.8775L200.408 23.7214M199.932 23.8767C199.917 23.829 199.901 23.7847 199.886 23.7436M200.408 23.7214C200.066 22.6808 199.717 22.6808 199.363 23.7214M199.886 23.7436C199.909 23.6845 199.93 23.6321 199.951 23.5859C199.988 23.5055 200.018 23.4508 200.042 23.4158C200.054 23.3988 200.062 23.3891 200.065 23.3848C200.067 23.3834 200.067 23.3828 200.067 23.3828C200.067 23.3828 200.064 23.3859 200.058 23.3909C200.048 23.3981 200.028 23.4107 199.999 23.4216C199.969 23.4329 199.932 23.4409 199.89 23.4409C199.848 23.4409 199.811 23.4328 199.78 23.4214C199.75 23.4102 199.73 23.3973 199.72 23.3896C199.713 23.3843 199.71 23.3808 199.709 23.3806C199.709 23.3806 199.71 23.3811 199.711 23.3823C199.715 23.3863 199.722 23.3956 199.733 23.4124C199.756 23.4469 199.786 23.5012 199.821 23.5814C199.842 23.6286 199.864 23.6826 199.886 23.7436ZM199.886 23.7436C199.87 23.7863 199.853 23.8325 199.836 23.8824L199.363 23.7214M199.363 23.7214L199.836 23.8826M199.363 23.7214L199.836 23.8826M199.836 23.8826L195.715 36.0057L195.241 35.847L195.714 36.0079L195.715 36.0069L199.836 23.8826ZM189.809 36.5988L189.809 36.5981L189.309 36.5996L189.809 36.599M189.809 36.5988L197.162 54.774C195.017 55.8209 193.947 57.3354 193.954 59.3176L193.454 59.3182C193.454 59.3184 193.454 59.3186 193.454 59.3188C193.466 69.7619 193.463 79.2726 193.444 87.8511V87.8522C193.444 88.1589 193.329 88.3667 193.059 88.531L193.059 88.5312L189.976 90.4142L189.809 36.599M189.809 36.5988C189.809 36.5989 189.809 36.5989 189.809 36.599M189.809 36.5988L189.809 36.599" fill="white" stroke="#00031B"/>
<path d="M93.6285 25.3103C93.8648 25.4961 94.0824 25.6107 94.2814 25.6541L88.3403 45.3988C88.3155 45.481 88.3104 45.5679 88.3255 45.6525C88.3405 45.7371 88.3754 45.817 88.4271 45.8857C88.4788 45.9544 88.546 46.01 88.6233 46.0481C88.7006 46.0862 88.7857 46.1057 88.872 46.1049L101.267 46.0678C100.253 46.2536 99.6845 46.4642 99.5601 46.6996L90.8119 46.7368C90.3207 46.7368 90.0782 46.9814 90.0844 47.4708L90.1217 50.6857C90.016 50.7291 89.9228 50.7601 89.8419 50.7786C89.6989 50.8034 89.5995 50.7476 89.5435 50.6114L89.3663 50.1468C89.4409 49.899 89.4688 49.6915 89.4502 49.5243C89.4067 49.1588 89.2139 49.0442 88.872 49.1805L85.16 50.6671C84.9369 50.7575 84.7459 50.9109 84.6113 51.1079C84.4768 51.3048 84.4048 51.5363 84.4046 51.7728L84.4139 89.2645C84.4139 89.63 84.5911 89.7786 84.9455 89.7105C86.7549 89.376 88.2191 88.6822 89.3383 87.6292C89.8046 87.7221 90.0813 87.6943 90.1684 87.5456L90.159 91.9591C90.1578 92.0673 90.1781 92.1745 90.2188 92.2748C90.2595 92.3751 90.3198 92.4664 90.3961 92.5433C90.4724 92.6202 90.5634 92.6812 90.6635 92.7229C90.7637 92.7646 90.8712 92.786 90.9798 92.786L103.02 92.8511C102.939 93.0555 102.939 93.2351 103.02 93.39L89.9259 93.3435C89.5341 93.3435 89.3383 93.1453 89.3383 92.7489L89.357 89.6362C89.3632 89.1964 89.158 89.057 88.7414 89.2181C84.7746 90.7915 80.8699 92.3865 77.0274 94.0032C75.3393 94.7094 73.7444 95.2297 71.8605 95.2297C54.5132 95.2545 37.2157 95.2607 19.9679 95.2483C19.8944 95.2483 19.8217 95.2339 19.7538 95.2059C19.6859 95.1779 19.6242 95.1368 19.5722 95.085C19.5202 95.0333 19.479 94.9718 19.4509 94.9042C19.4228 94.8366 19.4083 94.7641 19.4083 94.6908L19.3804 85.7337C19.7596 85.2567 20.0332 85.6532 20.201 86.923L20.0985 93.8825C20.0972 93.9394 20.1074 93.9959 20.1284 94.0489C20.1494 94.1018 20.1808 94.15 20.2208 94.1907C20.2608 94.2314 20.3085 94.2637 20.3611 94.2858C20.4138 94.3078 20.4704 94.3192 20.5275 94.3192L72.3082 94.3285C72.6439 94.3285 72.8087 94.1612 72.8024 93.8267L72.7652 92.6652C72.8957 92.5785 72.9796 92.4423 73.0169 92.2564C73.0418 92.1449 73.1102 92.0985 73.2221 92.1171C73.2905 92.1356 73.3714 92.1604 73.4646 92.1914C73.3465 92.8108 73.3745 93.4024 73.5486 93.9661C73.6543 94.3068 73.875 94.409 74.2108 94.2727L82.9403 90.7047C83.3072 90.5498 83.4906 90.2773 83.4906 89.887C83.5155 78.9167 83.531 66.3049 83.5372 52.0516C83.5372 50.1003 86.531 49.1061 88.2564 48.6694C88.788 48.53 89.2357 48.1119 89.3756 47.5916C89.4751 47.2075 89.329 46.9876 88.9373 46.9319L87.8554 46.7925C87.3704 46.7306 87.1963 46.4642 87.3331 45.9934L93.6285 25.3103Z" fill="#00031B"/>
<path d="M160.751 35.7913L188.246 36.0514C188.346 36.0538 188.44 36.0941 188.51 36.1635C188.58 36.233 188.619 36.3261 188.619 36.4231L188.628 91.2065C188.628 91.3346 188.577 91.4575 188.486 91.5481C188.395 91.6387 188.272 91.6896 188.143 91.6896L161.637 91.7175C161.016 91.7175 160.708 91.4078 160.714 90.7884L160.779 85.0647L160.751 35.7913ZM172.922 57.1899V43.8936C173.252 41.4406 172.44 40.211 170.488 40.2048C169.021 40.1986 167.563 40.2234 166.114 40.2791C165.65 40.2959 165.211 40.4923 164.89 40.8268C164.568 41.1613 164.388 41.6078 164.389 42.0724V59.4942C164.388 59.6763 164.425 59.8566 164.497 60.0243C164.568 60.192 164.672 60.3436 164.804 60.4702C164.935 60.5968 165.091 60.6958 165.261 60.7611C165.432 60.8265 165.614 60.857 165.797 60.8508L171.775 60.6649C172.08 60.6525 172.31 60.5101 172.465 60.2375C172.944 59.3641 173.096 58.3482 172.922 57.1899ZM186.073 42.0259C186.073 41.5602 185.887 41.1135 185.556 40.7842C185.226 40.4548 184.777 40.2698 184.31 40.2698H179.292C178.825 40.2698 178.376 40.4548 178.046 40.7842C177.715 41.1135 177.53 41.5602 177.53 42.0259V59.0482C177.53 59.5139 177.715 59.9606 178.046 60.2899C178.376 60.6193 178.825 60.8043 179.292 60.8043H184.31C184.777 60.8043 185.226 60.6193 185.556 60.2899C185.887 59.9606 186.073 59.5139 186.073 59.0482V42.0259Z" fill="white"/>
<path d="M72.756 50.9179L72.7654 92.6651L72.8027 93.8266C72.8089 94.1611 72.6441 94.3284 72.3084 94.3284L20.5277 94.3191C20.4706 94.3191 20.414 94.3077 20.3613 94.2857C20.3087 94.2636 20.261 94.2313 20.221 94.1906C20.181 94.1499 20.1496 94.1017 20.1286 94.0488C20.1076 93.9959 20.0974 93.9393 20.0987 93.8824L20.2013 86.9229L20.0427 43.0293L20.1174 38.9875C20.1236 38.6964 20.2728 38.5508 20.565 38.5508L72.2524 38.5601C72.557 38.5601 72.7094 38.7118 72.7094 39.0154L72.756 50.9179ZM28.0262 57.2176L67.0855 57.2269C67.7905 57.2269 68.4666 56.947 68.965 56.4486C69.4635 55.9502 69.7436 55.2743 69.7436 54.5695V46.3093C69.7436 45.6784 69.492 45.0734 69.0443 44.6273C68.5965 44.1812 67.9892 43.9306 67.356 43.9306H28.0262C26.5837 43.6766 25.4614 43.7758 24.6593 44.2279C23.9505 44.6244 23.5868 45.504 23.5682 46.8668C23.5122 49.7596 23.5153 52.6493 23.5775 55.5359C23.5837 55.8456 23.7018 56.1057 23.9319 56.3164C24.8832 57.1836 26.2479 57.484 28.0262 57.2176Z" fill="white"/>
<path d="M172.922 43.8936C172.63 43.813 172.381 43.5962 172.176 43.2431C172.27 42.5432 172.186 41.9826 171.924 41.5614C171.738 41.2516 171.461 41.0937 171.094 41.0875L167.69 41.041C167.53 41.0398 167.372 41.0699 167.223 41.1296C167.075 41.1893 166.94 41.2774 166.827 41.3888C166.713 41.5002 166.623 41.6328 166.562 41.7788C166.5 41.9248 166.468 42.0815 166.468 42.2397V58.8159C166.468 59.1815 166.613 59.5322 166.869 59.7916C167.126 60.0509 167.475 60.1979 167.839 60.2003C168.872 60.2065 169.985 60.1972 171.178 60.1725C172.043 60.1539 172.385 59.4446 172.204 58.0447C172.36 56.7996 172.599 56.5147 172.922 57.1899C173.096 58.3482 172.944 59.3641 172.465 60.2375C172.31 60.5101 172.08 60.6525 171.775 60.6649L165.797 60.8508C165.614 60.857 165.432 60.8265 165.262 60.7611C165.091 60.6958 164.935 60.5968 164.804 60.4702C164.672 60.3436 164.568 60.192 164.497 60.0243C164.425 59.8566 164.389 59.6763 164.389 59.4942V42.0724C164.388 41.6078 164.568 41.1613 164.89 40.8268C165.212 40.4923 165.65 40.296 166.114 40.2791C167.563 40.2234 169.021 40.1986 170.488 40.2048C172.441 40.211 173.252 41.4406 172.922 43.8936Z" fill="#00031B"/>
<path d="M186.073 59.0484C186.073 59.5142 185.887 59.9608 185.557 60.2902C185.226 60.6195 184.778 60.8045 184.31 60.8045H179.293C178.825 60.8045 178.377 60.6195 178.046 60.2902C177.716 59.9608 177.53 59.5142 177.53 59.0484V42.0261C177.53 41.5604 177.716 41.1137 178.046 40.7844C178.377 40.4551 178.825 40.27 179.293 40.27H184.31C184.778 40.27 185.226 40.4551 185.557 40.7844C185.887 41.1137 186.073 41.5604 186.073 42.0261V59.0484ZM185.377 42.1978C185.377 42.044 185.346 41.8918 185.287 41.7499C185.228 41.608 185.141 41.4791 185.032 41.3705C184.922 41.262 184.793 41.176 184.65 41.1174C184.507 41.0588 184.354 41.0288 184.2 41.0291L180.843 41.0349C180.688 41.0352 180.535 41.0657 180.393 41.1248C180.251 41.1839 180.121 41.2704 180.012 41.3793C179.903 41.4882 179.817 41.6174 179.758 41.7595C179.699 41.9017 179.669 42.054 179.67 42.2077L179.699 59.0254C179.699 59.1792 179.73 59.3314 179.789 59.4733C179.849 59.6153 179.935 59.7442 180.045 59.8527C180.154 59.9612 180.284 60.0472 180.426 60.1058C180.569 60.1644 180.722 60.1944 180.876 60.1941L184.234 60.1883C184.388 60.188 184.541 60.1575 184.683 60.0984C184.826 60.0393 184.955 59.9529 185.064 59.844C185.173 59.7351 185.259 59.6058 185.318 59.4637C185.377 59.3215 185.407 59.1693 185.407 59.0155L185.377 42.1978Z" fill="#00031B"/>
<path d="M184.2 41.0287L180.842 41.0346C180.193 41.0357 179.668 41.5608 179.669 42.2074L179.699 59.0252C179.7 59.6718 180.227 60.195 180.876 60.1939L184.233 60.188C184.882 60.1869 185.408 59.6618 185.407 59.0152L185.377 42.1974C185.376 41.5509 184.849 41.0276 184.2 41.0287Z" fill="white"/>
<path d="M172.176 43.2432L172.204 58.0447C172.385 59.4446 172.043 60.1539 171.178 60.1725C169.985 60.1973 168.872 60.2066 167.84 60.2004C167.475 60.1979 167.126 60.051 166.869 59.7916C166.613 59.5322 166.468 59.1815 166.469 58.8159V42.2397C166.468 42.0815 166.5 41.9248 166.562 41.7788C166.623 41.6328 166.713 41.5002 166.827 41.3888C166.94 41.2774 167.075 41.1893 167.223 41.1296C167.372 41.0699 167.53 41.0398 167.69 41.0411L171.094 41.0875C171.461 41.0937 171.738 41.2517 171.925 41.5614C172.186 41.9826 172.27 42.5432 172.176 43.2432Z" fill="white"/>
<path d="M19.2313 42.7971L20.0427 43.0294L20.2012 86.923C20.0333 85.6532 19.7598 85.2567 19.3805 85.7337C19.138 84.0426 19.0199 82.3361 19.0261 80.614C19.0759 68.0022 19.1442 55.3966 19.2313 42.7971Z" fill="#00031B"/>
<path d="M172.176 43.2432C172.381 43.5962 172.63 43.8131 172.922 43.8936V57.1899C172.599 56.5147 172.359 56.7996 172.204 58.0447L172.176 43.2432Z" fill="#888888"/>
<path d="M28.0261 43.9307C28.1318 44.2466 28.1256 44.5749 28.0075 44.9156C27.1619 45.0705 26.6924 45.5103 26.5992 46.235C26.4686 47.2447 26.453 49.5676 26.5525 53.2038C26.596 54.9134 27.0841 55.9727 28.0168 56.3815C28.1163 56.685 28.1194 56.9638 28.0261 57.2177C26.2479 57.4841 24.8831 57.1837 23.9318 56.3165C23.7017 56.1058 23.5836 55.8457 23.5774 55.536C23.5152 52.6494 23.5121 49.7597 23.5681 46.8669C23.5867 45.5041 23.9504 44.6245 24.6593 44.228C25.4613 43.7759 26.5836 43.6767 28.0261 43.9307Z" fill="#00031B"/>
<path d="M28.0262 43.9309H67.356C67.9892 43.9309 68.5965 44.1815 69.0443 44.6276C69.492 45.0737 69.7436 45.6787 69.7436 46.3096V54.5698C69.7436 55.2746 69.4635 55.9505 68.965 56.4489C68.4666 56.9473 67.7905 57.2272 67.0855 57.2272L28.0262 57.2179C28.1194 56.964 28.1163 56.6852 28.0168 56.3817L66.7777 56.3074C68.27 56.3012 69.0161 55.5578 69.0161 54.0774V46.7091C69.0161 46.2286 68.8245 45.7677 68.4834 45.4279C68.1423 45.0881 67.6798 44.8972 67.1974 44.8972L28.0076 44.9158C28.1257 44.5751 28.1319 44.2468 28.0262 43.9309Z" fill="#00031B"/>
<path d="M28.0075 44.9158L67.1974 44.8972C67.6797 44.8972 68.1423 45.0881 68.4834 45.4279C68.8244 45.7677 69.0161 46.2286 69.0161 46.7091V54.0773C69.0161 55.5578 68.2699 56.3011 66.7777 56.3073L28.0168 56.3817C27.0842 55.9728 26.5961 54.9136 26.5525 53.2039C26.4531 49.5678 26.4687 47.2449 26.5992 46.2352C26.6925 45.5105 27.1619 45.0707 28.0075 44.9158Z" fill="#00031B"/>
<path d="M132.026 54.1703C132.091 52.7022 131.41 50.4629 133.341 49.4408C135.324 48.4064 137.295 47.3626 139.254 46.3095C139.51 46.1715 139.795 46.0955 140.086 46.0876C140.377 46.0797 140.666 46.1402 140.929 46.2641C141.193 46.388 141.423 46.5719 141.602 46.801C141.781 47.03 141.903 47.2977 141.958 47.5825C142.397 49.8868 143.143 56.614 140.587 58.017C138.56 59.1258 136.505 60.1695 134.423 61.1483C134.179 61.2641 133.91 61.3183 133.64 61.306C133.371 61.2937 133.108 61.2153 132.875 61.0778C132.642 60.9402 132.446 60.7476 132.305 60.5169C132.163 60.2862 132.08 60.0244 132.063 59.7545C131.945 57.9024 131.932 56.041 132.026 54.1703ZM139.823 57.5524C139.975 57.4716 140.102 57.3511 140.191 57.2038C140.279 57.0565 140.326 56.8879 140.326 56.7162L140.354 48.2143C140.356 48.0499 140.314 47.8878 140.234 47.7441C140.154 47.6004 140.037 47.48 139.896 47.3947C139.755 47.3094 139.594 47.2622 139.429 47.2576C139.264 47.2531 139.101 47.2914 138.955 47.3688L133.425 50.2771C133.272 50.3579 133.145 50.4784 133.057 50.6257C132.968 50.773 132.921 50.9415 132.921 51.1133L132.912 59.6616C132.912 59.8253 132.954 59.9861 133.035 60.1286C133.116 60.271 133.233 60.3901 133.374 60.4743C133.514 60.5585 133.675 60.6049 133.839 60.609C134.003 60.6132 134.166 60.5749 134.311 60.4979L139.823 57.5524Z" fill="#00031B"/>
<path d="M103.039 92.3512L103.054 92.3522C103.235 92.3644 103.311 92.3379 103.332 92.3282C103.336 92.3161 103.342 92.2875 103.341 92.2355L103.341 92.2315L103.039 92.3512ZM103.039 92.3512L103.023 92.3511L90.9826 92.2861H90.9799C90.9372 92.2861 90.895 92.2776 90.8557 92.2613C90.8163 92.2449 90.7808 92.221 90.7511 92.1911L90.3963 92.5433M103.039 92.3512L103.322 73.1237C103.322 73.1238 103.322 73.1238 103.322 73.1238L103.822 73.125M103.822 73.125C103.798 79.4929 103.804 85.8607 103.841 92.2286C103.847 92.6808 103.574 92.8883 103.02 92.8511L90.9799 92.7861C90.8713 92.7861 90.7639 92.7646 90.6637 92.7229C90.5635 92.6813 90.4726 92.6202 90.3963 92.5433M103.822 73.125C103.829 70.5048 104.133 68.6588 104.736 67.5872M103.822 73.125L103.322 73.1231L104.3 67.343M90.3963 92.5433L90.7511 92.1911C90.7214 92.1611 90.698 92.1257 90.6822 92.0868C90.6665 92.048 90.6587 92.0066 90.6591 91.9648L90.6592 91.9602L90.6685 87.5467L90.6685 87.545L90.6219 50.6851L90.6218 50.68L90.5846 47.465L90.5845 47.4645C90.5835 47.3824 90.5933 47.3314 90.6025 47.3029C90.6069 47.2892 90.611 47.2813 90.6132 47.2775C90.6154 47.2738 90.6167 47.2725 90.6169 47.2723C90.6172 47.272 90.6185 47.2706 90.6223 47.2683C90.6263 47.2659 90.6344 47.2617 90.6484 47.257C90.6775 47.2473 90.7292 47.2368 90.812 47.2368L90.8142 47.2368L99.5624 47.1996L99.5647 47.1996L129.694 46.9302M90.3963 92.5433L129.694 46.9302M129.694 46.9302C129.695 46.9302 129.695 46.9302 129.696 46.9302C129.746 46.9306 129.794 46.9507 129.829 46.9858C129.865 47.0211 129.884 47.0686 129.884 47.1178V47.118L129.903 92.368M129.694 46.9302L129.903 92.368M129.903 92.368C129.903 92.368 129.903 92.368 129.903 92.368C129.903 92.3703 129.903 92.3727 129.901 92.3751L130.363 92.5671M129.903 92.368L130.363 92.5671M130.363 92.5671L129.901 92.3752C129.9 92.3776 129.899 92.3798 129.897 92.3817M130.363 92.5671L129.897 92.3817M129.897 92.3817C129.895 92.3836 129.893 92.3853 129.89 92.3865C129.889 92.387 129.887 92.3873 129.886 92.3876C129.884 92.3881 129.883 92.3883 129.881 92.3883H119.435C119.406 92.3883 119.385 92.3864 119.37 92.3841C119.368 92.3699 119.366 92.35 119.366 92.3234C119.428 85.5516 119.441 78.8015 119.403 72.073C119.403 72.0728 119.403 72.0725 119.403 72.0723L118.903 72.0751M129.897 92.3817L104.3 67.343M118.903 72.0751C118.897 69.9628 118.518 68.3677 117.766 67.2898C116.286 65.1776 113.957 64.1741 110.78 64.2794M118.903 72.0751C118.941 78.8022 118.928 85.551 118.866 92.3215L118.903 72.0751ZM110.78 64.2794L110.764 63.7797C110.764 63.7797 110.764 63.7797 110.763 63.7797L110.78 64.2794ZM110.78 64.2794C107.926 64.3723 105.912 65.4749 104.736 67.5872M104.736 67.5872L104.301 67.342C104.301 67.3423 104.3 67.3427 104.3 67.343M104.736 67.5872L104.3 67.3441C104.3 67.3437 104.3 67.3434 104.3 67.343M94.213 60.2773L94.4029 59.8148L94.213 60.2773C94.5012 60.3957 94.8099 60.4563 95.1214 60.4557L102.322 60.4433C102.633 60.4427 102.942 60.381 103.229 60.2617C103.517 60.1424 103.779 59.9677 103.999 59.7475L103.645 59.3939L103.999 59.7475C104.219 59.5273 104.394 59.266 104.513 58.9784C104.632 58.6908 104.693 58.3826 104.692 58.0714C104.692 58.0714 104.692 58.0714 104.692 58.0714L104.68 51.4745C104.68 51.1633 104.618 50.8553 104.498 50.5681C104.378 50.281 104.202 50.0203 103.981 49.8009C103.76 49.5815 103.498 49.4077 103.21 49.2894C102.922 49.1711 102.613 49.1104 102.302 49.111L95.1016 49.1234C94.79 49.124 94.4815 49.1857 94.1938 49.305C93.9061 49.4243 93.6446 49.599 93.4243 49.8192C93.2041 50.0393 93.0295 50.3007 92.9105 50.5883C92.7915 50.8759 92.7306 51.1841 92.7311 51.4953C92.7311 51.4953 92.7311 51.4953 92.7311 51.4953L92.7427 58.0922C92.7432 58.4034 92.8053 58.7114 92.9253 58.9986C93.0453 59.2857 93.2208 59.5464 93.4418 59.7658C93.6627 59.9852 93.9248 60.159 94.213 60.2773ZM115.78 49.7927L116.132 50.1476L115.78 49.7927C115.339 50.2306 115.09 50.8254 115.089 51.4466L115.077 58.0994C115.076 58.7205 115.323 59.3163 115.762 59.7557C116.202 60.195 116.798 60.4421 117.42 60.4432L124.639 60.4557C125.26 60.4568 125.857 60.2118 126.298 59.774C126.739 59.3361 126.988 58.7412 126.989 58.1201L127.001 51.4673C127.002 50.8461 126.755 50.2504 126.316 49.811C125.876 49.3717 125.28 49.1246 124.658 49.1235L117.44 49.111C116.818 49.1099 116.221 49.3549 115.78 49.7927Z" fill="white" stroke="#00031B"/>
<path d="M139.823 57.5524L134.311 60.4979C134.166 60.5749 134.003 60.6132 133.839 60.6091C133.675 60.605 133.514 60.5585 133.373 60.4743C133.233 60.3901 133.116 60.271 133.035 60.1286C132.954 59.9862 132.912 59.8253 132.912 59.6617L132.921 51.1134C132.921 50.9416 132.968 50.7731 133.056 50.6258C133.145 50.4785 133.272 50.358 133.425 50.2771L138.955 47.3688C139.101 47.2914 139.264 47.2531 139.429 47.2577C139.594 47.2622 139.755 47.3095 139.896 47.3948C140.037 47.4801 140.154 47.6005 140.234 47.7442C140.314 47.8879 140.356 48.0499 140.354 48.2144L140.326 56.7162C140.326 56.888 140.279 57.0565 140.191 57.2038C140.102 57.3511 139.975 57.4716 139.823 57.5524Z" fill="#DEC166"/>
<path d="M89.3665 50.1471L89.3385 87.6295C88.2193 88.6825 86.7551 89.3763 84.9457 89.7108C84.5913 89.7789 84.4141 89.6303 84.4141 89.2648L84.4048 51.7731C84.405 51.5366 84.477 51.3051 84.6115 51.1082C84.7461 50.9112 84.9371 50.7578 85.1602 50.6674L88.8722 49.1808C89.2141 49.0445 89.4069 49.1591 89.4504 49.5246C89.469 49.6918 89.4411 49.8993 89.3665 50.1471Z" fill="#EDFAFF"/>
<path d="M104.192 58.0724C104.192 58.3177 104.144 58.5606 104.051 58.7874C103.957 59.0141 103.819 59.2203 103.645 59.394C103.472 59.5678 103.265 59.7057 103.038 59.7999C102.811 59.8942 102.567 59.9429 102.321 59.9434L95.1206 59.9558C94.8745 59.9562 94.6306 59.9084 94.403 59.8149C94.1754 59.7215 93.9685 59.5842 93.7941 59.4111C93.6198 59.238 93.4813 59.0323 93.3867 58.8059C93.2921 58.5795 93.2432 58.3367 93.2428 58.0914L93.2312 51.4945C93.2308 51.2492 93.2788 51.0063 93.3726 50.7795C93.4664 50.5528 93.6041 50.3466 93.7779 50.1729C93.9517 49.9991 94.1581 49.8612 94.3854 49.767C94.6127 49.6727 94.8563 49.624 95.1025 49.6235L102.303 49.6111C102.549 49.6107 102.793 49.6586 103.02 49.752C103.248 49.8455 103.455 49.9827 103.629 50.1558C103.803 50.3289 103.942 50.5346 104.037 50.761C104.131 50.9874 104.18 51.2302 104.18 51.4755L104.192 58.0724ZM103.41 51.5081C103.41 51.3434 103.376 51.1804 103.313 51.0285C103.249 50.8765 103.156 50.7385 103.038 50.6225C102.921 50.5064 102.782 50.4145 102.629 50.352C102.476 50.2895 102.312 50.2576 102.147 50.2582L96.6255 50.2774C96.4601 50.278 96.2965 50.311 96.144 50.3745C95.9914 50.4381 95.853 50.531 95.7364 50.6479C95.6199 50.7647 95.5277 50.9033 95.465 51.0558C95.4022 51.2082 95.3702 51.3714 95.3708 51.5361L95.3935 58.003C95.3941 58.1677 95.4272 58.3307 95.491 58.4827C95.5548 58.6347 95.648 58.7726 95.7653 58.8887C95.8826 59.0048 96.0218 59.0967 96.1748 59.1592C96.3277 59.2217 96.4916 59.2536 96.6569 59.253L102.178 59.2338C102.343 59.2332 102.507 59.2002 102.66 59.1366C102.812 59.073 102.951 58.9802 103.067 58.8633C103.184 58.7464 103.276 58.6078 103.339 58.4554C103.401 58.303 103.433 58.1397 103.433 57.975L103.41 51.5081Z" fill="#00031B"/>
<path d="M126.489 58.1193C126.488 58.6072 126.293 59.0748 125.946 59.4192C125.599 59.7636 125.129 59.9567 124.639 59.9558L117.421 59.9433C116.931 59.9424 116.462 59.7478 116.116 59.4022C115.77 59.0566 115.577 58.5883 115.577 58.1004L115.589 51.4476C115.59 50.9597 115.785 50.4921 116.132 50.1477C116.479 49.8033 116.949 49.6102 117.439 49.6111L124.658 49.6236C125.147 49.6245 125.617 49.8191 125.962 50.1647C126.308 50.5103 126.502 50.9786 126.501 51.4665L126.489 58.1193ZM125.783 51.5383C125.783 51.3712 125.75 51.2056 125.686 51.051C125.622 50.8965 125.528 50.756 125.41 50.6376C125.291 50.5192 125.151 50.4252 124.996 50.3609C124.841 50.2967 124.675 50.2635 124.507 50.2632L119.023 50.2537C118.855 50.2534 118.689 50.286 118.534 50.3497C118.379 50.4134 118.238 50.507 118.119 50.6249C118 50.7429 117.906 50.8831 117.841 51.0374C117.777 51.1918 117.743 51.3573 117.743 51.5244L117.732 57.9542C117.732 58.1214 117.764 58.287 117.828 58.4415C117.892 58.5961 117.986 58.7366 118.105 58.855C118.223 58.9734 118.364 59.0674 118.519 59.1317C118.674 59.1959 118.84 59.2291 119.007 59.2294L124.491 59.2389C124.659 59.2392 124.825 59.2065 124.981 59.1428C125.136 59.0791 125.277 58.9856 125.396 58.8676C125.514 58.7496 125.609 58.6094 125.673 58.4551C125.738 58.3008 125.771 58.1353 125.771 57.9682L125.783 51.5383Z" fill="#00031B"/>
<path d="M89.3664 50.1467L89.5436 50.6113C89.5996 50.7476 89.699 50.8034 89.842 50.7786C89.9229 50.76 90.0161 50.729 90.1218 50.6857L90.1684 87.5455C90.0814 87.6942 89.8047 87.722 89.3384 87.6291L89.3664 50.1467Z" fill="#00031B"/>
<path d="M102.147 50.2579L96.6253 50.2771C95.9299 50.2795 95.3682 50.8431 95.3706 51.5359L95.3933 58.0028C95.3957 58.6955 95.9614 59.2552 96.6567 59.2528L102.178 59.2336C102.873 59.2311 103.435 58.6676 103.433 57.9748L103.41 51.5079C103.408 50.8151 102.842 50.2555 102.147 50.2579Z" fill="#DEC166"/>
<path d="M124.507 50.2632L119.023 50.2537C118.318 50.2525 117.745 50.8214 117.743 51.5244L117.732 57.9542C117.731 58.6572 118.302 59.2282 119.008 59.2294L124.492 59.2389C125.197 59.2401 125.77 58.6712 125.772 57.9682L125.783 51.5384C125.784 50.8354 125.213 50.2644 124.507 50.2632Z" fill="#DEC166"/>
<path d="M73.5113 50.6577L73.4647 92.1913C73.3714 92.1603 73.2906 92.1355 73.2222 92.1169C73.1103 92.0983 73.0418 92.1448 73.017 92.2563C72.9797 92.4422 72.8958 92.5784 72.7652 92.6651L72.7559 50.9179L73.5113 50.6577Z" fill="#00031B"/>
<path d="M160.722 36.606C161.026 36.4953 161.348 36.7205 161.348 37.0442V90.2678C161.348 90.5254 161.139 90.7341 160.882 90.7341C160.624 90.7341 160.416 90.5254 160.416 90.2678V37.0442C160.416 36.8482 160.538 36.6731 160.722 36.606Z" fill="#888888"/>
<path d="M151.63 54.6068C150.996 54.4148 150.595 54.582 150.427 55.1085C148.12 59.0296 146.762 63.2851 146.351 67.8752C146.32 68.3212 146.273 68.5442 146.211 68.5442C146.137 68.5472 146.063 68.5343 145.994 68.5064C145.925 68.4786 145.863 68.4365 145.812 68.3828C145.761 68.3292 145.722 68.2653 145.697 68.1954C145.673 68.1255 145.664 68.0512 145.67 67.9774C146.162 62.037 148.039 56.9297 151.304 52.6555C151.571 52.3024 151.698 52.3458 151.686 52.7856L151.63 54.6068Z" fill="#00031B"/>
<path d="M142.835 54.5139L143.395 54.6347L143.674 71.0437C143.681 71.3534 143.765 71.6415 143.926 71.9078C144.89 73.4564 145.036 75.0856 144.365 76.7952L143.507 72.6325C143.395 72.0874 143.267 72.0844 143.124 72.6233C142.9 73.4534 142.894 74.3051 143.106 75.1785C143.59 77.1545 143.895 79.0159 144.019 80.7627C144.057 81.2211 144.19 81.2521 144.421 80.8557C144.719 80.3539 144.902 79.7468 144.971 79.0345L145.782 69.3062C145.801 69.0274 145.953 68.9004 146.239 68.9252C146.668 68.9562 146.901 68.8509 146.939 68.6093C148.959 64.3476 150.259 59.8721 150.837 55.1829C150.856 55.0404 150.794 54.9816 150.651 55.0064C150.57 55.0188 150.495 55.0528 150.427 55.1086C150.595 54.582 150.996 54.4148 151.63 54.6068C151.027 60.0765 149.482 65.2984 146.995 70.2725C146.839 70.576 146.786 70.8424 146.836 71.0716C146.898 71.3689 147.051 71.626 147.293 71.8428C147.536 72.0596 147.759 72.0379 147.965 71.7777C148.101 71.6043 148.101 71.4711 147.965 71.3782C147.498 71.0561 147.473 70.703 147.89 70.3189L149.541 68.8044C150.02 68.3646 150.172 68.4576 149.998 69.0832C149.469 71.0159 148.459 72.8742 146.967 74.6582C146.444 75.2838 146.286 76.0922 146.491 77.0833C146.584 77.5107 146.789 77.5726 147.107 77.2691L147.862 76.5443C147.968 76.4452 148.077 76.439 148.188 76.5257L148.403 76.7023C148.502 76.7828 148.512 76.8727 148.431 76.9718C147.287 78.4089 146.522 80.0008 146.137 81.7476C145.788 82.3485 145.779 82.937 146.109 83.5131C146.252 83.7608 146.345 84.0241 146.388 84.3028L146.538 85.2599C146.594 85.6315 146.743 85.6749 146.985 85.39C147.439 84.8573 147.763 84.179 147.955 83.3551L149.438 80.5676C149.811 79.8739 149.681 79.7593 149.046 80.2238C148.114 80.9176 147.548 81.9831 147.349 83.4202C146.852 83.5317 146.628 83.0547 146.678 81.9892C147.778 80.0751 149.242 78.539 151.07 77.3806C151.375 77.1886 151.465 77.2629 151.341 77.6036L149.942 81.3853L146.006 89.0137C145.851 89.3172 145.823 89.6362 145.922 89.9707C146.189 90.8813 146.342 91.7919 146.379 92.7025C146.404 93.2414 146.286 93.2723 146.025 92.7954C145.415 91.6866 145.045 90.4756 144.915 89.1624C144.884 88.8527 144.769 88.5739 144.57 88.3261C143.774 87.3288 142.792 86.5669 141.623 86.0404C141.399 85.9413 141.172 85.9351 140.942 86.0218L140.634 86.1333C140.398 86.0094 140.233 85.8608 140.14 85.6873C140.357 85.3652 140.28 84.9904 139.907 84.563C139.08 83.6029 138.501 82.8998 138.172 82.4538C137.233 81.1654 137.472 80.8897 138.89 81.6269C139.959 82.1782 141.097 82.906 142.303 83.8104C142.453 83.9219 142.583 83.9033 142.695 83.7546C142.764 83.6617 142.742 83.5534 142.63 83.4295C137.73 77.9536 134.597 71.5454 133.229 64.2051C133.042 63.1954 133.282 63.0808 133.947 63.8613C137.746 68.3275 140.538 73.921 142.322 80.642C142.465 81.1747 142.611 81.1747 142.76 80.642C142.953 79.9854 142.99 79.3411 142.872 78.7093C142.344 75.8227 142.151 73.1962 142.294 70.83C142.499 67.3053 142.589 64.9949 142.565 63.8985C142.496 60.7641 142.586 57.6359 142.835 54.5139ZM140.846 79.5318C141.071 79.4279 140.968 78.6455 140.56 77.3567C140.152 76.0679 139.473 74.3783 138.673 72.6595C137.872 70.9407 137.015 69.3334 136.29 68.1914C135.565 67.0493 135.031 66.4659 134.807 66.5696C134.583 66.6735 134.686 67.4558 135.093 68.7446C135.501 70.0334 136.18 71.7231 136.981 73.4419C137.782 75.1607 138.639 76.768 139.364 77.9101C140.089 79.0521 140.622 79.6355 140.846 79.5318ZM146.006 86.0311C145.428 84.5816 145.297 83.6803 143.945 82.8441C143.839 82.7759 143.786 82.8038 143.786 82.9277L143.796 84.2936C143.796 84.3526 143.811 84.4101 143.841 84.4593C143.871 84.5086 143.913 84.5478 143.964 84.5723C144.971 85.105 145.409 85.9165 145.279 87.0067C145.223 87.4961 145.372 87.5704 145.726 87.2297C146.093 86.8766 146.186 86.4771 146.006 86.0311Z" fill="#00031B"/>
<path d="M150.427 55.1087C150.495 55.0529 150.57 55.0189 150.651 55.0065C150.794 54.9817 150.856 55.0406 150.837 55.183C150.259 59.8722 148.96 64.3477 146.939 68.6094C146.659 68.6466 146.491 68.6249 146.435 68.5444C146.317 68.3709 146.289 68.1479 146.351 67.8754C146.762 63.2853 148.12 59.0297 150.427 55.1087Z" fill="#EDFAFF"/>
<path d="M194.588 87.6575C194.569 77.4986 194.551 68.145 194.532 59.5968C194.526 57.8933 195.328 56.577 196.938 55.6478C197.031 55.5983 197.128 55.5518 197.227 55.5085C197.535 55.3681 197.873 55.3071 198.21 55.331C198.547 55.3549 198.873 55.463 199.157 55.6454C199.442 55.8277 199.675 56.0784 199.837 56.3744C199.998 56.6703 200.082 57.002 200.081 57.3389L200.063 84.2753C200.063 84.4673 199.982 84.6098 199.82 84.7027L194.747 87.7504C194.731 87.7608 194.712 87.7666 194.693 87.767C194.674 87.7675 194.655 87.7626 194.638 87.753C194.622 87.7433 194.608 87.7292 194.599 87.7124C194.591 87.6955 194.587 87.6765 194.588 87.6575Z" fill="#DEC166"/>
<path d="M205.005 58.1658C206.293 59.764 208.214 63.1275 207.374 65.3018C206.902 66.5097 206.485 66.4942 206.125 65.2553C205.459 62.9882 204.89 60.7179 204.418 58.4446C204.225 57.5278 204.421 57.4349 205.005 58.1658Z" fill="#EDFAFF"/>
<path d="M8.76698 70.9973C7.95868 69.7955 7.54208 68.281 7.51721 66.4536C7.50477 65.7785 7.25296 65.2953 6.76176 65.0042C6.46953 64.8369 6.24879 64.8988 6.09956 65.19C5.50267 66.3328 4.79389 67.1598 4.85918 68.5071C4.94623 70.1548 5.23846 71.8087 5.73587 73.4688C5.82914 73.7785 6.025 73.8745 6.32344 73.7568C7.46749 73.3109 8.24158 72.3228 8.64573 70.7928C9.44159 70.1548 10.1784 69.3588 10.8561 68.4049C12.0126 66.7695 13.4986 65.574 15.3141 64.8183C15.3626 64.7993 15.4146 64.7908 15.4664 64.7936C15.5182 64.7963 15.5687 64.8101 15.6141 64.8341C15.6595 64.858 15.6988 64.8915 15.7292 64.9321C15.7595 64.9728 15.7802 65.0196 15.7898 65.0692C16.3556 67.9186 16.1193 70.6132 15.081 73.1529C14.9566 73.4564 15.0561 73.5772 15.3794 73.5153C15.566 73.4843 15.7618 73.3356 15.967 73.0693C16.0331 72.9829 16.1223 72.9173 16.2246 72.8801C16.3268 72.8428 16.4379 72.8354 16.5451 72.8587C16.6522 72.882 16.7511 72.9351 16.8303 73.0118C16.9095 73.0885 16.9659 73.1857 16.9929 73.2923C17.7763 76.5134 16.8997 79.1769 14.3629 81.283C14.1266 81.4813 13.9618 81.7291 13.8685 82.0264C13.1224 84.4794 12.7774 87.0253 10.8468 88.9672C10.6789 89.1345 10.6385 89.3265 10.7255 89.5433L13.0944 95.5178C13.169 95.6974 13.1162 95.8214 12.9359 95.8895L12.6654 95.9917C12.6157 96.0103 12.5784 95.9979 12.5535 95.9545C10.7939 92.5538 9.66854 89.0663 9.17735 85.4922C8.91621 83.606 7.85296 82.4352 6.93897 80.8278C5.94103 79.0809 3.9918 77.9102 2.8633 76.1448C-0.93569 70.2353 -0.95434 64.3197 2.80734 58.3978C2.8364 58.3501 2.87584 58.3095 2.92278 58.2791C2.96973 58.2487 3.02299 58.2292 3.07853 58.2221C3.13407 58.2149 3.19051 58.2203 3.24367 58.2379C3.29683 58.2554 3.34532 58.2847 3.38558 58.3235C7.01047 61.7056 8.80429 65.9302 8.76698 70.9973ZM4.01977 69.4734C3.27987 64.7409 2.9441 62.0556 3.0125 61.4176C3.19281 59.7327 2.90058 59.6491 2.13581 61.1667C1.27155 62.8888 0.873651 64.8152 0.942045 66.9461C0.960698 67.5283 1.19386 68.0115 1.64153 68.3956L3.33896 69.8544C3.91098 70.3499 4.13791 70.2229 4.01977 69.4734ZM4.70992 60.8043C4.66214 60.7193 4.58718 60.6526 4.49697 60.6149C4.40676 60.5772 4.3065 60.5707 4.21212 60.5963C4.11774 60.622 4.03468 60.6783 3.97617 60.7564C3.91766 60.8345 3.88702 60.9299 3.88919 61.0273L3.94515 65.7475C3.94711 65.8433 3.98068 65.9358 4.04066 66.0108C4.10065 66.0857 4.18378 66.139 4.27713 66.1622C4.37048 66.1855 4.46886 66.1775 4.5572 66.1395C4.64553 66.1015 4.71887 66.0355 4.76588 65.9519L6.06228 63.5732C6.09904 63.508 6.11835 63.4344 6.11835 63.3595C6.11835 63.2847 6.09904 63.2111 6.06228 63.1458L4.70992 60.8043ZM10.3711 77.808C14.0364 74.9833 15.9297 70.8114 15.3235 66.2585C15.2675 65.8249 15.0499 65.7165 14.6706 65.9333C10.2188 68.4483 8.46231 72.2826 9.40117 77.4363C9.41928 77.539 9.46373 77.6352 9.53022 77.7157C9.59671 77.7961 9.68299 77.8581 9.78063 77.8955C9.87827 77.9329 9.98392 77.9445 10.0874 77.9292C10.1909 77.9138 10.2886 77.8721 10.3711 77.808ZM5.54 76.9625L4.91514 73.7382C4.87161 73.5029 4.84673 73.2675 4.84051 73.0321C4.79388 71.3318 3.25498 70.5234 1.60419 69.5478C1.23113 69.3248 1.07569 69.4269 1.13786 69.8544C1.56067 72.7038 2.82597 75.1816 4.93375 77.2877C5.48712 77.8451 5.68922 77.7368 5.54 76.9625ZM7.7317 77.6314C7.35242 78.9942 7.47991 80.3044 8.11411 81.5618C8.39391 82.1255 8.62395 82.1069 8.80427 81.5061C9.27059 79.9327 9.09338 78.4429 8.27265 77.0368C7.91202 76.2749 7.75035 75.4851 7.78765 74.6674C7.80009 74.3515 7.66024 74.2493 7.36801 74.3608C7.0136 74.4847 6.69025 74.6767 6.39802 74.9369C6.15553 75.1537 6.10581 75.4077 6.24882 75.6988C6.57835 76.3678 7.07263 77.012 7.7317 77.6314ZM13.8086 80.242C13.9495 80.2985 14.1202 80.2769 14.3111 80.1788C14.5019 80.0806 14.7092 79.9076 14.9209 79.6697C15.1326 79.4318 15.3447 79.1337 15.5451 78.7923C15.7455 78.451 15.9302 78.0731 16.0887 77.6803C16.4088 76.8869 16.6029 76.0807 16.628 75.4391C16.6532 74.7975 16.5074 74.373 16.2228 74.259C16.0819 74.2025 15.9111 74.224 15.7203 74.3222C15.5294 74.4204 15.3222 74.5934 15.1105 74.8313C14.8988 75.0692 14.6867 75.3673 14.4863 75.7086C14.2859 76.05 14.1012 76.4279 13.9427 76.8207C13.6226 77.6141 13.4286 78.4203 13.4034 79.0619C13.3783 79.7035 13.524 80.128 13.8086 80.242ZM9.67162 79.4619C9.3825 82.2773 9.93275 84.7674 10.3618 87.527C10.3747 87.6 10.4098 87.6672 10.4623 87.7196C10.5148 87.7721 10.5822 87.8072 10.6553 87.8204C10.7285 87.8336 10.8039 87.8241 10.8715 87.7932C10.9391 87.7624 10.9956 87.7116 11.0333 87.6478C12.395 85.2444 13.0447 83.1941 12.9825 81.4968C12.8892 79.0066 12.9421 77.3682 13.1411 76.5815C13.1431 76.5684 13.1414 76.5547 13.1363 76.5423C13.1312 76.5299 13.123 76.5193 13.1127 76.5122C13.1024 76.505 13.0907 76.5016 13.0791 76.5024C13.0674 76.5031 13.0565 76.5081 13.0478 76.5165L9.8675 79.0995C9.74936 79.1924 9.68406 79.3133 9.67162 79.4619Z" fill="#00031B"/>
<path d="M202.067 60.3491C201.744 60.1694 201.853 59.7513 202.394 59.0947C202.493 58.9151 202.608 58.7881 202.739 58.7137C202.811 58.6701 202.891 58.6429 202.975 58.6341C203.058 58.6252 203.143 58.6349 203.222 58.6624C203.302 58.6899 203.374 58.7347 203.434 58.7934C203.494 58.852 203.54 58.9232 203.569 59.0018L204.744 62.2538C204.771 62.3217 204.776 62.3961 204.758 62.4668C204.741 62.5376 204.702 62.6013 204.647 62.6491C204.592 62.697 204.523 62.7266 204.45 62.734C204.378 62.7415 204.304 62.7263 204.24 62.6905C203.152 62.1145 202.428 61.334 202.067 60.3491Z" fill="#EDFAFF"/>
<path d="M4.01982 69.4734C4.13796 70.2229 3.91103 70.3499 3.33901 69.8543L1.64158 68.3955C1.19391 68.0115 0.960747 67.5283 0.942094 66.946C0.8737 64.8152 1.2716 62.8887 2.13585 61.1667C2.90063 59.649 3.19286 59.7327 3.01255 61.4175C2.94415 62.0556 3.27992 64.7409 4.01982 69.4734Z" fill="#00031B"/>
<path d="M4.71 60.8042L6.06235 63.1457C6.09912 63.211 6.11843 63.2845 6.11843 63.3594C6.11843 63.4342 6.09912 63.5078 6.06235 63.5731L4.76596 65.9517C4.71895 66.0354 4.64561 66.1013 4.55728 66.1393C4.46894 66.1773 4.37056 66.1853 4.27721 66.1621C4.18386 66.1388 4.10073 66.0856 4.04074 66.0107C3.98075 65.9357 3.94719 65.8432 3.94522 65.7473L3.88927 61.0272C3.8871 60.9298 3.91773 60.8344 3.97625 60.7563C4.03476 60.6782 4.11782 60.6218 4.2122 60.5962C4.30658 60.5706 4.40684 60.5771 4.49705 60.6148C4.58726 60.6525 4.66222 60.7192 4.71 60.8042Z" fill="#00031B"/>
<path d="M206.237 67.9311C206.722 67.4851 207.169 67.0206 207.58 66.5374C207.903 66.1472 208.04 66.203 207.99 66.7047L207.794 68.6652C207.763 69.0431 207.57 69.1669 207.216 69.0368C207.123 69.0059 207.032 68.9501 206.945 68.8696C206.815 68.7395 206.681 68.7364 206.544 68.8603C206.327 69.0585 206.277 69.3001 206.395 69.5851C206.538 69.9382 206.42 70.1178 206.041 70.124C205.73 70.1364 205.487 70.0094 205.313 69.743C204.107 67.9095 203.227 65.6114 202.674 62.8487C202.67 62.8411 202.669 62.8325 202.67 62.8242C202.672 62.816 202.677 62.8085 202.683 62.8031C202.69 62.7976 202.698 62.7946 202.706 62.7944C202.715 62.7943 202.723 62.797 202.73 62.8022C203.265 63.0562 203.886 63.4031 204.595 63.8429C204.734 63.9332 204.839 64.0672 204.894 64.2238C205.279 65.4317 205.528 66.5932 205.64 67.7082C205.689 68.1851 205.888 68.2594 206.237 67.9311Z" fill="#EDFAFF"/>
<path d="M8.76698 70.9972C8.72967 70.9291 8.68925 70.8609 8.64573 70.7928C8.24158 72.3228 7.46749 73.3108 6.32344 73.7568C6.025 73.8745 5.82914 73.7785 5.73587 73.4688C5.23846 71.8087 4.94623 70.1548 4.85918 68.507C4.79389 67.1598 5.50267 66.3328 6.09956 65.19C6.24878 64.8988 6.46953 64.8369 6.76176 65.0041C7.25296 65.2953 7.50477 65.7784 7.5172 66.4536C7.54207 68.281 7.95868 69.7955 8.76698 70.9972Z" fill="#00031B"/>
<path d="M106.574 92.7677C106.383 92.7652 106.2 92.6877 106.065 92.5521C105.931 92.4164 105.856 92.2335 105.856 92.0429L105.884 72.0288C105.885 71.1153 106.045 70.2111 106.353 69.3677C106.661 68.5244 107.112 67.7585 107.681 67.1139C108.249 66.4693 108.923 65.9585 109.665 65.6109C110.406 65.2632 111.2 65.0855 112.002 65.0879H112.338C113.954 65.0927 115.502 65.8283 116.642 67.1332C117.783 68.4381 118.421 70.2056 118.418 72.0474L118.391 92.0615C118.391 92.1574 118.371 92.2525 118.334 92.341C118.297 92.4296 118.243 92.5099 118.174 92.5773C118.106 92.6447 118.024 92.6979 117.935 92.7337C117.846 92.7696 117.75 92.7874 117.654 92.7862L106.574 92.7677Z" fill="white"/>
<path d="M15.3233 66.2583C15.9296 70.8112 14.0363 74.9831 10.371 77.8078C10.2885 77.8719 10.1907 77.9136 10.0873 77.929C9.98379 77.9443 9.87814 77.9327 9.7805 77.8953C9.68286 77.8579 9.59658 77.7959 9.53009 77.7155C9.46359 77.635 9.41914 77.5388 9.40104 77.4361C8.46217 72.2824 10.2186 68.448 14.6705 65.9331C15.0497 65.7163 15.2674 65.8247 15.3233 66.2583Z" fill="#DEC166"/>
<path d="M136.981 73.4419C138.649 77.0213 140.379 79.7479 140.847 79.5318C141.314 79.3157 140.341 76.2389 138.673 72.6595C137.005 69.0801 135.274 66.3536 134.807 66.5697C134.34 66.7857 135.313 69.8626 136.981 73.4419Z" fill="#EDFAFF"/>
<path d="M4.93348 77.2877C2.82569 75.1816 1.56039 72.7038 1.13759 69.8544C1.07541 69.427 1.23086 69.3248 1.60392 69.5478C3.2547 70.5234 4.7936 71.3318 4.84023 73.0322C4.84645 73.2675 4.87134 73.5029 4.91486 73.7383L5.53972 76.9625C5.68894 77.7368 5.48685 77.8452 4.93348 77.2877Z" fill="#00031B"/>
<path d="M205.64 74.1378L204.968 73.8312C204.695 73.7073 204.558 73.4967 204.558 73.1993L204.567 70.449C204.566 70.4171 204.574 70.3856 204.59 70.358C204.606 70.3304 204.629 70.308 204.658 70.2933C204.686 70.2787 204.718 70.2725 204.75 70.2753C204.782 70.2782 204.812 70.2901 204.838 70.3096C206.143 71.341 208.121 73.3573 207.272 75.067C207.092 75.4324 206.88 75.4479 206.638 75.1134L206.33 74.7046C206.15 74.4506 205.92 74.2617 205.64 74.1378Z" fill="white"/>
<path d="M144.365 76.7953L144.971 79.0345C144.903 79.7469 144.719 80.3539 144.421 80.8557C144.191 81.2521 144.057 81.2211 144.02 80.7627C143.895 79.0159 143.591 77.1545 143.106 75.1785C142.894 74.3051 142.901 73.4534 143.124 72.6233C143.267 72.0844 143.395 72.0875 143.507 72.6326L144.365 76.7953Z" fill="#EDFAFF"/>
<path d="M8.2726 77.037C7.68193 76.9998 7.5016 77.198 7.73165 77.6316C7.07258 77.0122 6.57831 76.368 6.24877 75.699C6.10577 75.4079 6.15548 75.1539 6.39797 74.9371C6.6902 74.6769 7.01356 74.4849 7.36796 74.361C7.66019 74.2495 7.80004 74.3517 7.78761 74.6676C7.7503 75.4853 7.91198 76.2751 8.2726 77.037Z" fill="#00031B"/>
<path d="M13.9427 76.821C13.2761 78.4732 13.2161 80.0049 13.8087 80.2423C14.4013 80.4796 15.4221 79.3327 16.0888 77.6805C16.7555 76.0283 16.8155 74.4966 16.2229 74.2592C15.6303 74.0219 14.6094 75.1688 13.9427 76.821Z" fill="#00031B"/>
<path d="M205.08 77.0835C205.055 76.9224 204.9 76.8481 204.614 76.8605L204.903 75.4667C204.984 75.0827 205.183 75.0053 205.5 75.2344C207.017 76.337 207.775 77.8299 207.775 79.713C207.775 80.2148 207.614 80.2736 207.29 79.8895C206.488 78.9356 205.979 77.802 205.761 76.4888C205.686 76.0738 205.515 76.0304 205.248 76.3587C205.08 76.5631 205.024 76.8047 205.08 77.0835Z" fill="#00031B"/>
<path d="M10.3617 87.527C9.93271 84.7674 9.38245 82.2772 9.67157 79.4619C9.68401 79.3132 9.74932 79.1924 9.86745 79.0995L13.0478 76.5164C13.0564 76.508 13.0674 76.5031 13.079 76.5023C13.0906 76.5015 13.1024 76.505 13.1127 76.5121C13.1229 76.5193 13.1311 76.5298 13.1362 76.5422C13.1413 76.5547 13.143 76.5683 13.1411 76.5814C12.9421 77.3681 12.8892 79.0066 12.9825 81.4967C13.0446 83.194 12.3949 85.2443 11.0333 87.6478C10.9955 87.7116 10.939 87.7623 10.8714 87.7932C10.8038 87.824 10.7284 87.8335 10.6553 87.8203C10.5821 87.8072 10.5147 87.772 10.4623 87.7196C10.4098 87.6671 10.3747 87.5999 10.3617 87.527Z" fill="white"/>
<path d="M8.27265 77.0369C9.09338 78.443 9.27059 79.9328 8.80426 81.5061C8.62395 82.107 8.39391 82.1256 8.11411 81.5619C7.47991 80.3044 7.35242 78.9943 7.7317 77.6315C7.50164 77.1979 7.68197 76.9997 8.27265 77.0369Z" fill="white"/>
<path d="M147.955 83.3551L147.349 83.4202C147.548 81.983 148.114 80.9176 149.047 80.2238C149.681 79.7593 149.811 79.8738 149.438 80.5676L147.955 83.3551Z" fill="#EDFAFF"/>
<path d="M146.137 81.7478C146.348 81.7788 146.528 81.8593 146.678 81.9894C146.628 83.0548 146.852 83.5318 147.349 83.4203L147.955 83.3553C147.763 84.1791 147.439 84.8574 146.985 85.3902C146.743 85.6751 146.594 85.6317 146.538 85.2601L146.389 84.303C146.345 84.0242 146.252 83.761 146.109 83.5132C145.779 82.9372 145.789 82.3487 146.137 81.7478Z" fill="#EDFAFF"/>
<path d="M146.006 86.0309C146.186 86.4769 146.093 86.8764 145.726 87.2295C145.372 87.5702 145.223 87.4959 145.279 87.0065C145.409 85.9163 144.971 85.1048 143.964 84.5721C143.913 84.5476 143.871 84.5084 143.841 84.4592C143.811 84.4099 143.796 84.3524 143.796 84.2934L143.786 82.9275C143.786 82.8036 143.839 82.7758 143.945 82.8439C145.297 83.6801 145.428 84.5814 146.006 86.0309Z" fill="#EDFAFF"/>
</svg>
