<svg width="160" height="142" viewBox="0 0 160 142" fill="none" xmlns="http://www.w3.org/2000/svg">
<path d="M129.639 39.9617C129.514 40.0527 129.236 40.0527 128.805 39.9617C129.146 39.0754 129.06 38.3652 128.55 37.8312C118.503 27.2634 108.291 16.5821 97.9149 5.78708C97.6843 5.5457 97.3737 5.39582 97.0395 5.36455C96.7052 5.33328 96.3694 5.42269 96.0928 5.61662L71.1117 23.4625L70.1922 24.0079L59.4301 31.6439C59.322 31.7196 59.1975 31.7686 59.0669 31.7868C58.9362 31.805 58.8031 31.7919 58.6785 31.7487C58.5538 31.7054 58.4412 31.6332 58.3499 31.538C58.2585 31.4428 58.191 31.3272 58.1529 31.2008L57.9826 30.6213C57.6988 29.7008 57.9486 28.9679 58.7319 28.4225C69.3918 21.1273 80.7273 13.4117 92.7382 5.27571C94.9178 3.80986 97.0862 2.95762 99.2431 2.719C108.734 1.69631 118.259 0.792947 127.817 0.00888915C128.12 -0.0180408 128.425 0.0163693 128.714 0.110061C129.004 0.203753 129.272 0.354831 129.503 0.554333L159.32 26.4453C159.553 26.6461 159.735 26.8987 159.852 27.183C159.969 27.4674 160.018 27.7757 159.994 28.0834C159.971 28.3911 159.877 28.6898 159.718 28.9558C159.56 29.2217 159.342 29.4477 159.082 29.6156C158.049 30.2747 156.914 30.786 155.676 31.1496C147.888 33.4564 140.089 35.729 132.279 37.9675C130.803 38.3993 129.923 39.0641 129.639 39.9617ZM128.26 1.35544C128.195 1.29944 128.119 1.25704 128.037 1.2307C127.955 1.20436 127.869 1.19462 127.783 1.20204L99.754 4.11668C99.6331 4.12805 99.5179 4.17321 99.4214 4.24703C99.325 4.32085 99.2513 4.42033 99.2086 4.53411C99.166 4.64789 99.1563 4.77139 99.1804 4.89047C99.2046 5.00956 99.2617 5.11945 99.3453 5.20756L129.742 37.0642C129.824 37.1489 129.927 37.2095 130.041 37.2396C130.155 37.2696 130.276 37.2679 130.389 37.2346L158.384 28.8997C158.494 28.8663 158.594 28.8038 158.672 28.7187C158.751 28.6337 158.805 28.5292 158.829 28.4161C158.854 28.303 158.847 28.1855 158.811 28.0757C158.774 27.9659 158.709 27.8679 158.622 27.7918L128.26 1.35544Z" fill="#00031B"/>
<path d="M128.26 1.35601L158.622 27.7924C158.709 27.8685 158.774 27.9665 158.81 28.0763C158.847 28.186 158.853 28.3036 158.829 28.4166C158.805 28.5297 158.75 28.6342 158.672 28.7193C158.594 28.8043 158.494 28.8668 158.384 28.9003L130.388 37.2351C130.275 37.2684 130.155 37.2702 130.041 37.2401C129.927 37.2101 129.823 37.1495 129.741 37.0647L99.3451 5.20813C99.2615 5.12001 99.2044 5.01012 99.1802 4.89104C99.156 4.77196 99.1658 4.64845 99.2084 4.53467C99.251 4.4209 99.3248 4.32141 99.4212 4.2476C99.5177 4.17378 99.6329 4.12861 99.7538 4.11724L127.783 1.20261C127.869 1.19518 127.955 1.20493 128.037 1.23127C128.119 1.25761 128.195 1.30001 128.26 1.35601Z" fill="#DEC166"/>
<path d="M110.891 36.8087C110.891 38.6911 110.52 40.5552 109.8 42.2943C109.081 44.0335 108.026 45.6137 106.696 46.9448C105.366 48.2759 103.787 49.3318 102.05 50.0522C100.312 50.7726 98.4501 51.1433 96.5694 51.1433C92.7712 51.1433 89.1286 49.6331 86.4428 46.9448C83.7571 44.2566 82.2483 40.6105 82.2483 36.8087C82.2483 33.0069 83.7571 29.3609 86.4428 26.6726C89.1286 23.9844 92.7712 22.4741 96.5694 22.4741C98.4501 22.4741 100.312 22.8449 102.05 23.5653C103.787 24.2857 105.366 25.3415 106.696 26.6726C108.026 28.0037 109.081 29.5839 109.8 31.3231C110.52 33.0623 110.891 34.9262 110.891 36.8087ZM97.7264 49.2807C99.1528 49.3655 100.584 49.13 101.939 48.5877C103.294 48.0453 104.545 47.2066 105.622 46.1195C106.699 45.0325 107.58 43.7183 108.214 42.2521C108.849 40.7858 109.226 39.1962 109.322 37.574C109.418 35.9518 109.233 34.3288 108.776 32.7977C108.319 31.2665 107.599 29.8572 106.659 28.6501C105.718 27.4431 104.575 26.462 103.294 25.7629C102.013 25.0637 100.619 24.6602 99.1928 24.5754C97.7664 24.4905 96.335 24.726 94.9803 25.2684C93.6255 25.8108 92.3741 26.6495 91.2973 27.7366C90.2206 28.8236 89.3397 30.1378 88.7048 31.604C88.07 33.0703 87.6936 34.6598 87.5974 36.282C87.5011 37.9042 87.6867 39.5272 88.1436 41.0584C88.6005 42.5895 89.3198 43.9989 90.2604 45.2059C91.2009 46.4129 92.3443 47.3941 93.6254 48.0932C94.9064 48.7924 96.2999 49.1958 97.7264 49.2807ZM91.5971 47.9901C84.7175 42.3824 84.411 31.7294 91.5971 26.1217C91.9263 25.8717 91.9717 25.5763 91.7333 25.2354L91.4608 24.8604C91.3473 24.6899 91.2054 24.6558 91.0351 24.7581C84.4393 28.7579 82.1802 34.2407 84.2577 41.2063C85.3021 44.6607 87.6294 47.189 91.2394 48.7912C91.2962 48.8139 91.3473 48.8139 91.3927 48.7912C91.5743 48.7003 91.6879 48.5866 91.7333 48.4503C91.79 48.2571 91.7447 48.1037 91.5971 47.9901Z" fill="#D1D1D1"/>
<path d="M71.1118 23.4624C71.8611 29.8712 71.7306 36.2232 70.7202 42.5184C70.0958 41.9502 69.1876 41.7912 67.9956 42.0412L68.5746 41.8878C69.006 41.7741 69.233 41.49 69.2557 41.0355L70.1923 24.0078L71.1118 23.4624Z" fill="#E7E7E7"/>
<path d="M128.805 39.9622C129.236 40.0531 129.514 40.0531 129.639 39.9622L130.099 114.465C130.11 115.374 130.547 115.698 131.41 115.436L132.125 115.215C132.999 114.953 133.437 114.368 133.437 113.459L133.471 53.581C133.471 53.1812 133.608 52.7941 133.86 52.4862C134.112 52.1783 134.462 51.9687 134.85 51.8935L145.629 49.7459C146.469 49.5755 146.889 49.9163 146.889 50.7685L146.702 106.471C146.702 107.403 147.122 107.67 147.962 107.272L148.371 107.084C149.109 106.721 149.472 106.13 149.461 105.312L148.149 34.951C148.147 34.8503 148.165 34.7501 148.201 34.6562C148.238 34.5623 148.292 34.4765 148.362 34.4037C148.431 34.3309 148.514 34.2725 148.607 34.2319C148.699 34.1913 148.798 34.1692 148.899 34.167H149.375C149.455 34.167 149.495 34.2068 149.495 34.2863L151.436 104.988C151.481 106.533 150.806 107.641 149.409 108.312C143.904 110.982 138.381 113.664 132.841 116.357C130.32 117.584 127.67 118.203 124.888 118.215C93.3737 118.294 62.075 118.306 30.9919 118.249C30.8041 118.249 30.6181 118.212 30.4446 118.14C30.271 118.068 30.1133 117.962 29.9805 117.829C29.8477 117.696 29.7423 117.539 29.6704 117.365C29.5986 117.191 29.5615 117.005 29.5615 116.817L29.6297 58.558C29.6297 57.8194 29.9873 57.5467 30.7025 57.7399L31.2474 57.8933C31.4858 57.9615 31.605 58.1205 31.605 58.3705L31.6561 114.669C31.6554 115.015 31.7858 115.347 32.0204 115.598C32.255 115.849 32.5757 115.998 32.9162 116.016C35.1526 116.163 37.4629 116.232 39.8469 116.22C68.9319 116.107 98.0396 116.158 127.17 116.374C127.429 116.374 127.678 116.272 127.862 116.09C128.047 115.909 128.153 115.661 128.158 115.402L128.805 39.9622ZM135.19 111.959C135.189 112.071 135.216 112.181 135.269 112.279C135.321 112.378 135.398 112.462 135.491 112.523C135.584 112.584 135.691 112.621 135.803 112.629C135.914 112.638 136.025 112.619 136.127 112.573L144.488 108.908C144.603 108.856 144.701 108.773 144.771 108.667C144.84 108.561 144.878 108.438 144.88 108.312L145.203 52.1151C145.204 52.0147 145.181 51.9155 145.137 51.8251C145.094 51.7347 145.03 51.6553 144.951 51.593C144.873 51.5307 144.781 51.487 144.683 51.4653C144.585 51.4435 144.484 51.4442 144.386 51.4674L135.701 53.5128C135.556 53.5473 135.426 53.6301 135.333 53.7477C135.241 53.8652 135.19 54.0107 135.19 54.1605V111.959Z" fill="#E7E7E7"/>
<path d="M67.9954 42.0418C69.1874 41.7918 70.0956 41.9509 70.72 42.5191C70.8222 44.144 70.3965 45.0872 69.4428 45.3485C58.3855 48.462 45.0124 52.2971 29.3233 56.8537C28.2788 57.1605 27.3876 56.9105 26.6497 56.1037C26.4113 55.8424 26.2865 55.5185 26.2751 55.1322C26.2694 54.762 26.3868 54.4005 26.6087 54.1043C26.8306 53.8081 27.1445 53.5941 27.5012 53.4959L67.9954 42.0418Z" fill="#00031B"/>
<path d="M124.497 72.2958C124.497 72.7071 124.334 73.1016 124.043 73.3925C123.752 73.6834 123.358 73.8468 122.947 73.8468H39.3023C39.0988 73.8468 38.8973 73.8067 38.7093 73.7288C38.5213 73.6508 38.3505 73.5366 38.2066 73.3925C38.0627 73.2485 37.9485 73.0775 37.8707 72.8893C37.7928 72.7011 37.7527 72.4995 37.7527 72.2958V62.0008C37.7527 61.7971 37.7928 61.5954 37.8707 61.4072C37.9485 61.219 38.0627 61.048 38.2066 60.904C38.3505 60.7599 38.5213 60.6457 38.7093 60.5677C38.8973 60.4898 39.0988 60.4497 39.3023 60.4497H122.947C123.358 60.4497 123.752 60.6131 124.043 60.904C124.334 61.1948 124.497 61.5894 124.497 62.0008V72.2958ZM122.845 62.6996C122.845 62.6391 122.833 62.5793 122.81 62.5235C122.787 62.4677 122.753 62.4169 122.71 62.3742C122.668 62.3314 122.617 62.2976 122.561 62.2744C122.505 62.2513 122.446 62.2394 122.385 62.2394H44.8366C44.7147 62.2394 44.5977 62.2879 44.5115 62.3742C44.4253 62.4605 44.3769 62.5775 44.3769 62.6996V71.3924C44.3769 71.5145 44.4253 71.6315 44.5115 71.7178C44.5977 71.8041 44.7147 71.8526 44.8366 71.8526H122.385C122.446 71.8526 122.505 71.8407 122.561 71.8176C122.617 71.7945 122.668 71.7605 122.71 71.7178C122.753 71.6751 122.787 71.6244 122.81 71.5685C122.833 71.5127 122.845 71.4528 122.845 71.3924V62.6996ZM42.0238 63.13C42.0249 62.8226 41.9039 62.5274 41.6875 62.3093C41.4711 62.0912 41.177 61.9681 40.87 61.967L40.7337 61.9665C40.5817 61.966 40.431 61.9954 40.2903 62.0532C40.1496 62.1109 40.0217 62.1959 39.9138 62.3031C39.8058 62.4104 39.7201 62.5378 39.6614 62.6782C39.6027 62.8186 39.5722 62.9692 39.5717 63.1214L39.5438 71.1665C39.5428 71.4739 39.6637 71.7691 39.8801 71.9872C40.0965 72.2053 40.3906 72.3284 40.6976 72.3295L40.8339 72.33C40.986 72.3306 41.1366 72.3011 41.2773 72.2434C41.418 72.1856 41.546 72.1007 41.6539 71.9934C41.7618 71.8862 41.8475 71.7587 41.9062 71.6183C41.9649 71.4779 41.9954 71.3273 41.9959 71.1751L42.0238 63.13Z" fill="#E7E7E7"/>
<path d="M5.70457 129.029C8.85514 129.029 11.4092 126.472 11.4092 123.319C11.4092 120.165 8.85514 117.609 5.70457 117.609C2.554 117.609 0 120.165 0 123.319C0 126.472 2.554 129.029 5.70457 129.029Z" fill="#DEC166"/>
<path d="M22.1881 142C24.4734 142 26.326 140.146 26.326 137.858C26.326 135.571 24.4734 133.716 22.1881 133.716C19.9027 133.716 18.05 135.571 18.05 137.858C18.05 140.146 19.9027 142 22.1881 142Z" fill="#00031B"/>
</svg>
