<svg width="60" height="60" viewBox="0 0 60 60" fill="none" xmlns="http://www.w3.org/2000/svg">
<g clip-path="url(#clip0_508_2277)">
<path d="M7.5 12.4875C7.5 9.7325 9.7325 7.5 12.4875 7.5H47.5125C50.2675 7.5 52.5 9.7325 52.5 12.4875V47.5125C52.5 48.8353 51.9745 50.1039 51.0392 51.0392C50.1039 51.9745 48.8353 52.5 47.5125 52.5H12.4875C11.1647 52.5 9.89614 51.9745 8.9608 51.0392C8.02547 50.1039 7.5 48.8353 7.5 47.5125V12.4875ZM15.8925 45H44.6175C43.0066 42.6835 40.8588 40.7914 38.3577 39.4854C35.8566 38.1793 33.0766 37.4981 30.255 37.5C27.4334 37.4981 24.6534 38.1793 22.1523 39.4854C19.6512 40.7914 17.5034 42.6835 15.8925 45ZM30 32.5C31.1491 32.5 32.2869 32.2737 33.3485 31.8339C34.4101 31.3942 35.3747 30.7497 36.1872 29.9372C36.9997 29.1247 37.6442 28.1601 38.0839 27.0985C38.5237 26.0369 38.75 24.8991 38.75 23.75C38.75 22.6009 38.5237 21.4631 38.0839 20.4015C37.6442 19.3399 36.9997 18.3753 36.1872 17.5628C35.3747 16.7503 34.4101 16.1058 33.3485 15.6661C32.2869 15.2263 31.1491 15 30 15C27.6794 15 25.4538 15.9219 23.8128 17.5628C22.1719 19.2038 21.25 21.4294 21.25 23.75C21.25 26.0706 22.1719 28.2962 23.8128 29.9372C25.4538 31.5781 27.6794 32.5 30 32.5Z" fill="#888888"/>
</g>
<defs>
<clipPath id="clip0_508_2277">
<rect width="60" height="60" fill="white"/>
</clipPath>
</defs>
</svg>
