<svg width="60" height="60" viewBox="0 0 60 60" fill="none" xmlns="http://www.w3.org/2000/svg">
<path d="M9.37501 45C9.37501 43.9645 8.53553 43.125 7.50001 43.125C6.46448 43.125 5.62501 43.9645 5.62501 45H9.37501ZM5.62501 35C5.62501 36.0355 6.46448 36.875 7.50001 36.875C8.53553 36.875 9.37501 36.0355 9.37501 35H5.62501ZM17.5 21.875C19.91 21.875 21.5289 21.879 22.7365 22.0414C23.8902 22.1965 24.3839 22.4645 24.7097 22.7903L27.3613 20.1387C26.2228 19 24.8057 18.5358 23.2362 18.3248C21.7207 18.121 19.804 18.125 17.5 18.125V21.875ZM29.375 30C29.375 27.696 29.379 25.7793 29.1753 24.2638C28.9643 22.6943 28.5 21.2773 27.3613 20.1387L24.7097 22.7903C25.0355 23.1161 25.3035 23.6098 25.4588 24.7635C25.621 25.971 25.625 27.59 25.625 30H29.375ZM17.5 18.125C15.196 18.125 13.2794 18.121 11.7638 18.3248C10.1943 18.5358 8.77733 19 7.63866 20.1387L10.2903 22.7903C10.6161 22.4645 11.1098 22.1965 12.2635 22.0414C13.4711 21.879 15.09 21.875 17.5 21.875V18.125ZM9.37501 30C9.37501 27.59 9.37898 25.971 9.54136 24.7635C9.69646 23.6098 9.96451 23.1161 10.2903 22.7903L7.63866 20.1387C6.49998 21.2773 6.03581 22.6943 5.82478 24.2638C5.62103 25.7793 5.62501 27.696 5.62501 30H9.37501ZM9.37501 55V45H5.62501V55H9.37501ZM9.37501 35V30H5.62501V35H9.37501Z" fill="#888888"/>
<path d="M17.5 55V40C17.5 35.286 17.5 32.929 18.9645 31.4645C20.4289 30 22.786 30 27.5 30H32.5C37.214 30 39.571 30 41.0355 31.4645C42.2145 32.6433 42.4443 34.4005 42.4893 37.5M42.5 55V48.125" stroke="#888888" stroke-width="3.75" stroke-linecap="round"/>
<path d="M52.5 19.4318C52.5 16.0796 52.5 14.4036 51.6097 13.1188C50.7192 11.834 49.15 11.2455 46.0112 10.0685C39.873 7.76667 36.804 6.61577 34.652 8.10714C32.5 9.59849 32.5 12.8762 32.5 19.4318V30.0016M52.5 55.0016V30.0016" stroke="#888888" stroke-width="3.75" stroke-linecap="round"/>
<path d="M10 20V16.25C10 13.893 10 12.7145 10.7322 11.9822C11.4645 11.25 12.643 11.25 15 11.25H20C22.357 11.25 23.5355 11.25 24.2678 11.9822C25 12.7145 25 13.893 25 16.25V20" stroke="#888888" stroke-width="3.75" stroke-linecap="round"/>
<path d="M17.5 10V5" stroke="#888888" stroke-width="3.75" stroke-linecap="round"/>
<path d="M55 55H5" stroke="#888888" stroke-width="3.75" stroke-linecap="round"/>
<path d="M25 37.5H26.25M35 37.5H31.25" stroke="#888888" stroke-width="3.75" stroke-linecap="round"/>
<path d="M25 45H35" stroke="#888888" stroke-width="3.75" stroke-linecap="round"/>
</svg>
