<svg width="60" height="60" viewBox="0 0 60 60" fill="none" xmlns="http://www.w3.org/2000/svg">
<path d="M16.4849 12.7129C17.4202 11.7333 18.1306 11.2451 19.4468 10.8475C25.0045 9.16853 25.9259 18.5911 21.7264 21.1282C16.3166 24.3962 12.3087 17.0768 16.1174 13.7204" stroke="#888888" stroke-opacity="0.9" stroke-width="2.4" stroke-linecap="round" stroke-linejoin="round"/>
<path d="M40.107 15.1233C41.5287 13.9558 43.9834 13.3762 45.8511 14.1236C51.8803 16.5363 48.5832 24.6553 42.5407 23.8494C38.4679 23.3062 38.6923 15.8454 41.8594 14.5779" stroke="#888888" stroke-opacity="0.9" stroke-width="2.4" stroke-linecap="round" stroke-linejoin="round"/>
<path d="M28.4093 28.0673C29.7275 27.0206 32.0039 26.501 33.7355 27.171C39.3263 29.3342 36.269 36.6134 30.666 35.8907C26.8895 35.4038 27.0974 28.7147 30.0342 27.5784" stroke="#888888" stroke-opacity="0.9" stroke-width="2.4" stroke-linecap="round" stroke-linejoin="round"/>
<path d="M13.0508 40.8852C13.2647 40.4685 13.0508 31.65 15.9758 26.25C16.5507 29.0501 16.9058 38.28 16.4258 39.9M24.7017 35.3997C23.7858 34.3538 22.5183 27.764 22.4258 26.85C22.0008 28.95 21.4058 36.555 21.5258 39.375" stroke="#888888" stroke-opacity="0.9" stroke-width="2.4" stroke-linecap="round" stroke-linejoin="round"/>
<path d="M48.7897 42.2352C46.9639 42.5241 45.7577 42.7016 45.1712 42.7679C42.127 43.1115 41.0833 43.0917 40.7639 43.0917C40.1464 43.0917 44.1247 26.3477 45.1712 26.3477C45.8689 26.3477 48.7897 36.675 53.1749 42.7679" stroke="#888888" stroke-opacity="0.9" stroke-width="2.4" stroke-linecap="round" stroke-linejoin="round"/>
<path d="M16.3542 39.7773C16.0577 41.7584 15.9093 44.1195 15.9093 46.8611C15.9093 49.6025 16.0577 52.1889 16.3542 54.6201L14.6152 54.9518" stroke="#888888" stroke-opacity="0.9" stroke-width="2.4" stroke-linecap="round" stroke-linejoin="round"/>
<path d="M21.4492 39.75C21.8992 41.2454 22.1242 43.2531 22.1242 45.7733C22.1242 48.2936 21.8992 50.9858 21.4492 53.85H22.7992" stroke="#888888" stroke-opacity="0.9" stroke-width="2.4" stroke-linecap="round" stroke-linejoin="round"/>
<path d="M24.0059 35.2422C24.7931 36.6867 25.3614 37.473 25.7114 37.6011C26.0612 37.7292 26.9973 37.9893 28.52 38.3817M34.7072 38.0238C36.1436 37.806 37.0805 37.5049 37.5177 37.1206C37.9551 36.7365 38.436 36.3451 38.9609 35.9469" stroke="#888888" stroke-opacity="0.9" stroke-width="2.4" stroke-linecap="round" stroke-linejoin="round"/>
<path d="M28.5551 38.7305L29.5702 45.0399L28.5551 52.1607L25.9483 48.0632L24.7012 47.6423" stroke="#888888" stroke-opacity="0.9" stroke-width="2.4" stroke-linecap="round" stroke-linejoin="round"/>
<path d="M34.5245 37.8594L32.873 45.1059L34.5245 51.2896L37.34 47.3071L38.7854 46.8652" stroke="#888888" stroke-opacity="0.9" stroke-width="2.4" stroke-linecap="round" stroke-linejoin="round"/>
<path d="M43.6548 43.0938V55.4224L42.2637 55.6519" stroke="#888888" stroke-opacity="0.9" stroke-width="2.4" stroke-linecap="round" stroke-linejoin="round"/>
<path d="M47.4805 42.5703V55.6517H48.8716" stroke="#888888" stroke-opacity="0.9" stroke-width="2.4" stroke-linecap="round" stroke-linejoin="round"/>
<path d="M45.0474 26.3477C41.5375 32.468 39.3928 35.8401 38.6133 36.464" stroke="#888888" stroke-opacity="0.9" stroke-width="2.4" stroke-linecap="round" stroke-linejoin="round"/>
</svg>
