<svg width="60" height="60" viewBox="0 0 60 60" fill="none" xmlns="http://www.w3.org/2000/svg">
<path d="M47.5 24.4448V40.4997C47.5 44.6999 47.5 46.8002 46.6825 48.4044C45.9635 49.8157 44.8162 50.9632 43.405 51.6822C41.8005 52.4997 39.7005 52.4997 35.5 52.4997H24.5C20.2996 52.4997 18.1994 52.4997 16.5951 51.6822C15.1839 50.9632 14.0365 49.8157 13.3175 48.4044C12.5 46.8002 12.5 44.6999 12.5 40.4997V24.4432M52.5 29.9997L38.917 14.9095C35.8278 11.4776 34.2833 9.76164 32.464 9.12814C30.8665 8.57174 29.1275 8.57187 27.5297 9.12852C25.7107 9.76227 24.1665 11.4785 21.0778 14.9108L7.5 29.9997M35 29.9997C35 32.7609 32.7615 34.9997 30 34.9997C27.2385 34.9997 25 32.7609 25 29.9997C25 27.2382 27.2385 24.9996 30 24.9996C32.7615 24.9996 35 27.2382 35 29.9997Z" stroke="#888888" stroke-width="5" stroke-linecap="round" stroke-linejoin="round"/>
</svg>
