<svg width="60" height="60" viewBox="0 0 60 60" fill="none" xmlns="http://www.w3.org/2000/svg">
<g clip-path="url(#clip0_508_2265)">
<path fill-rule="evenodd" clip-rule="evenodd" d="M28 27V30H32V27V22H28V27ZM8 27C8 26.448 8.448 26 9 26H26V22C26 20.897 26.897 20 28 20H32C33.103 20 34 20.897 34 22V26H51C51.552 26 52 26.448 52 27C52 27.552 51.552 28 51 28H34V30C34 31.103 33.103 32 32 32H28C26.897 32 26 31.103 26 30V28H9C8.448 28 8 27.552 8 27ZM30.03 29C30.583 29 31.03 28.552 31.03 28C31.03 27.448 30.583 27 30.03 27H30.02C29.468 27 29.025 27.448 29.025 28C29.025 28.552 29.478 29 30.03 29ZM7 10C6.449 10 6 10.449 6 11V40H54V11C54 10.449 53.551 10 53 10H7ZM26 8H34V6H26V8ZM22 8H24V5C24 4.448 24.448 4 25 4H35C35.552 4 36 4.448 36 5V8H38V3C38 2.449 37.551 2 37 2H23C22.449 2 22 2.449 22 3V8ZM7 8H20V3C20 1.346 21.346 0 23 0H37C38.654 0 40 1.346 40 3V8H53C54.654 8 56 9.346 56 11V41C56 41.552 55.552 42 55 42H5C4.448 42 4 41.552 4 41V11C4 9.346 5.346 8 7 8ZM39 54H36V53C36 52.448 35.552 52 35 52C34.448 52 34 52.448 34 53V55C34 55.552 34.448 56 35 56H39C40.123 56 41.295 56.914 41.775 58H18.225C18.705 56.914 19.877 56 21 56H31C31.552 56 32 55.552 32 55C32 54.448 31.552 54 31 54H26V53C26 52.448 25.552 52 25 52C24.448 52 24 52.448 24 53V54H21C18.43 54 16 56.43 16 59C16 59.552 16.448 60 17 60H43C43.552 60 44 59.552 44 59C44 56.43 41.57 54 39 54ZM30.02 44C29.468 44 29.025 44.448 29.025 45C29.025 45.552 29.478 46 30.03 46C30.583 46 31.03 45.552 31.03 45C31.03 44.448 30.583 44 30.03 44H30.02ZM60 9V45C60 47.804 57.804 50 55 50H5C1.898 50 0 45.468 0 43V9C0.191 6.167 2.386 4 5 4H17C17.552 4 18 4.448 18 5C18 5.552 17.552 6 17 6H5C3.252 6 2.101 7.56 1.998 9.068L2 43C2 45.02 3.58 48 5 48H55C56.71 48 58 46.71 58 45V9C58 7.346 56.654 6 55 6H43C42.448 6 42 5.552 42 5C42 4.448 42.448 4 43 4H55C57.757 4 60 6.243 60 9Z" fill="#888888"/>
</g>
<defs>
<clipPath id="clip0_508_2265">
<rect width="60" height="60" fill="white"/>
</clipPath>
</defs>
</svg>
