<svg width="60" height="60" viewBox="0 0 60 60" fill="none" xmlns="http://www.w3.org/2000/svg">
<path d="M52.5 36.25H32.5V23.75H52.5V36.25ZM10 52.5H27.5V7.5H10C9.33696 7.5 8.70107 7.76339 8.23223 8.23223C7.76339 8.70107 7.5 9.33696 7.5 10V50C7.5 50.663 7.76339 51.2989 8.23223 51.7678C8.70107 52.2366 9.33696 52.5 10 52.5ZM52.5 10C52.5 9.33696 52.2366 8.70107 51.7678 8.23223C51.2989 7.76339 50.663 7.5 50 7.5H32.5V20H52.5V10ZM52.5 50V40H32.5V52.5H50C50.663 52.5 51.2989 52.2366 51.7678 51.7678C52.2366 51.2989 52.5 50.663 52.5 50Z" fill="#888888"/>
</svg>
