<svg width="60" height="60" viewBox="0 0 60 60" fill="none" xmlns="http://www.w3.org/2000/svg">
<g clip-path="url(#clip0_508_2281)">
<path d="M39.3583 8.07129C39.3583 8.07129 39.9039 6.61008 42.8428 4.75523C45.6627 2.97727 43.4983 0.519961 39.3583 1.42453C36.5001 2.04715 37.4705 0 33.4624 0C29.4542 0 30.4246 2.04715 27.5663 1.42453C23.4263 0.519961 21.262 2.97727 24.0819 4.75523C27.0207 6.61008 27.5663 8.07129 27.5663 8.07129H39.3583Z" fill="#888888"/>
<path d="M50.6329 26.3045C50.6329 25.4677 50.1368 24.7481 49.4226 24.4167C50.1368 24.0834 50.6348 23.3657 50.6348 22.5289C50.6348 21.6904 50.1368 20.9707 49.4226 20.6393C50.1349 20.3079 50.6329 19.5901 50.6329 18.7496C50.6329 17.5979 49.6991 16.6641 48.5455 16.6641H41.5875C40.4357 16.6641 39.5 17.5979 39.5 18.7496C39.5 19.5901 39.998 20.3079 40.7122 20.6393C39.998 20.9707 39.5 21.6904 39.5 22.5289C39.5 23.3658 39.998 24.0836 40.7122 24.4167C39.998 24.7481 39.5 25.4678 39.5 26.3045C39.5 27.1431 39.998 27.8627 40.7122 28.1923C39.998 28.5255 39.5 29.2433 39.5 30.0819C39.5 31.2355 40.4356 32.1694 41.5875 32.1694H48.5455C49.6972 32.1694 50.6329 31.2355 50.6329 30.0819C50.6329 29.2433 50.1349 28.5255 49.4226 28.1941C50.1349 27.8627 50.6329 27.1431 50.6329 26.3045Z" fill="#888888"/>
<path d="M40.5697 10.5039C38.2259 10.5039 27.2982 10.5039 27.2982 10.5039C21.5596 10.5039 19.9557 14.9955 15.5117 14.9955V29.2503L17.4545 29.1605C32.3007 28.0105 31.0043 15.1932 31.0043 15.1932C31.0043 15.1932 34.6445 15.1932 39.3356 15.1932C44.025 15.1932 44.2721 10.5039 40.5697 10.5039Z" fill="#888888"/>
<path d="M13.5074 13.3281H7.58203V32.5798H13.5074V13.3281Z" fill="#888888"/>
<path d="M36.3171 43.215C36.784 42.8853 37.0184 42.3635 37.0184 41.6457C37.0184 40.9023 36.8078 40.3732 36.3866 40.0563C35.9654 39.7413 35.3063 39.582 34.4109 39.582H32.5488V43.7094H34.2646C35.1654 43.7094 35.8502 43.5446 36.3171 43.215Z" fill="#888888"/>
<path d="M36.9068 46.0852C36.6962 45.9113 36.427 45.7757 36.0975 45.6842C35.768 45.5927 35.3706 45.5469 34.9036 45.5469H32.5488V49.7327H34.9127C35.4071 49.7327 35.8191 49.6722 36.1523 49.555C36.4838 49.436 36.7511 49.2786 36.9507 49.0808C37.1522 48.883 37.2968 48.6541 37.3847 48.3904C37.4745 48.1268 37.5184 47.8466 37.5184 47.55C37.5184 47.2405 37.4689 46.9621 37.37 46.7169C37.273 46.4697 37.1173 46.2591 36.9068 46.0852Z" fill="#888888"/>
<path d="M50.73 33.7911C50.0891 34.1683 49.3439 34.3916 48.5455 34.3916H41.5875C39.2125 34.3916 37.2789 32.458 37.2789 30.0814C37.2789 29.4167 37.4346 28.7721 37.7203 28.1936C37.4346 27.6149 37.2789 26.9704 37.2789 26.3039C37.2789 25.6393 37.4346 24.9947 37.7203 24.4162C37.4346 23.8375 37.2789 23.193 37.2789 22.5284C37.2789 21.8618 37.4346 21.2173 37.7203 20.6387C37.4364 20.0601 37.2789 19.4155 37.2789 18.7491C37.2789 18.284 37.3541 17.8373 37.4914 17.418H33.1848C32.9852 19.6207 32.2491 22.9423 29.8339 25.8336C27.2027 28.9793 23.2842 30.8177 18.1957 31.3195C16.5404 34.5275 15.3594 37.9864 15.3594 41.4708C15.3594 51.7046 23.6559 60.0011 33.8878 60.0011C44.1215 60.0011 52.418 51.7046 52.418 41.4708C52.4182 38.863 51.7535 36.2739 50.73 33.7911ZM40.1318 49.2891C39.901 49.8037 39.566 50.2449 39.1246 50.6185C38.6852 50.9902 38.1413 51.2813 37.495 51.4919C36.8524 51.7025 36.1145 51.8069 35.285 51.8069H34.9939V53.2516H32.738V51.8069H29.8944H28.9624V50.6478C28.9624 50.3053 28.9404 50.1003 29.2681 50.0289C29.2974 50.0234 29.3395 50.0179 29.3927 50.0069C29.4477 49.9959 29.5447 49.9795 29.6875 49.9538C29.8285 49.9281 29.6472 49.8933 29.8945 49.8494V39.4874C29.6473 39.4454 29.8285 39.4105 29.6875 39.3849C29.5447 39.3575 29.4477 39.3428 29.3927 39.3318C29.3396 39.3227 29.2974 39.3135 29.2681 39.3098C28.9404 39.2402 28.9624 39.0333 28.9624 38.6909V37.5318H29.8944H32.738V35.9882H34.9939V37.5446C35.6824 37.5739 36.2866 37.6581 36.8048 37.7972C37.4676 37.9749 38.0115 38.2294 38.4344 38.5589C38.8592 38.8867 39.1705 39.2841 39.3664 39.7529C39.566 40.2197 39.663 40.7453 39.663 41.3313C39.663 41.6682 39.6154 41.9886 39.5165 42.2944C39.4159 42.6002 39.2639 42.8877 39.0569 43.155C38.8482 43.4206 38.5863 43.6622 38.2659 43.8802C37.9473 44.0963 37.5354 44.4332 37.5354 44.4332C39.4964 44.8727 40.4778 45.9329 40.4778 47.6119C40.4778 48.2161 40.3625 48.7764 40.1318 49.2891Z" fill="#888888"/>
</g>
<defs>
<clipPath id="clip0_508_2281">
<rect width="60" height="60" fill="white"/>
</clipPath>
</defs>
</svg>
