<svg width="60" height="60" viewBox="0 0 60 60" fill="none" xmlns="http://www.w3.org/2000/svg">
<g clip-path="url(#clip0_508_2271)">
<path d="M58.9012 34.8488L45.3253 21.2719L45.3366 21.2822C45.7163 19.8759 45.9375 18.4022 45.9375 16.875C45.9375 7.55625 38.3822 0 29.0625 0C27.5034 0 26.0006 0.22875 24.5691 0.624375C23.9597 0.22125 23.2416 0 22.5 0H3.75C1.67906 0 0 1.67906 0 3.75V22.5C0 23.4947 0.395625 24.4481 1.09875 25.1512L34.8488 58.9012C35.58 59.6334 36.5409 60 37.5 60C38.4591 60 39.42 59.6334 40.1512 58.9012L58.9012 40.1512C60.3666 38.6878 60.3666 36.3122 58.9012 34.8488ZM29.0625 1.87594C37.3472 1.87594 44.0625 8.59125 44.0625 16.8759C44.0625 17.8162 43.9528 18.8334 43.7859 19.7334L42.1266 18.0741L42.1041 18.0506C42.1397 17.6766 42.1875 17.2341 42.1875 16.8759C42.1875 9.62812 36.3112 3.75094 29.0625 3.75094C28.6575 3.75094 28.26 3.77531 27.8644 3.81094C27.0956 3.88031 26.3494 4.02469 25.6228 4.22156C22.3181 5.11687 19.5384 7.2675 17.8162 10.1353C17.4928 10.6725 17.1975 11.2275 16.9528 11.8116C16.3003 13.3706 15.9375 15.0806 15.9375 16.8759C15.9375 17.4544 16.0603 18.5794 16.0603 18.5794C16.0603 18.5794 15.3712 18.75 15 18.75C14.7159 18.75 14.4422 18.7125 14.1769 18.6525C14.1459 18.645 14.1412 18.645 14.1769 18.6525C14.1084 18.0684 14.0625 17.4787 14.0625 16.8759C14.0625 14.8903 14.4572 13.0003 15.1575 11.2669C15.4087 10.6462 15.6984 10.0491 16.0266 9.47344C17.8069 6.345 20.6794 3.92813 24.1266 2.72531C24.8016 2.48906 25.4934 2.29312 26.2087 2.15625C27.1322 1.97625 28.0856 1.87594 29.0625 1.87594ZM40.2797 16.2272L29.7112 5.65875C35.4047 5.98406 39.9534 10.5328 40.2797 16.2272ZM18.75 15C18.75 15.9291 18.4022 16.7672 17.8397 17.4178C17.8322 17.2378 17.8125 17.0597 17.8125 16.8759C17.8125 15.6562 18.0122 14.4853 18.3713 13.3847C18.6075 13.8759 18.75 14.4197 18.75 15ZM12.1875 16.875C12.1875 17.0728 12.2081 17.2669 12.2166 17.4628C11.6269 16.8038 11.25 15.9544 11.25 15C11.25 13.6903 11.925 12.5391 12.9431 11.8687C12.4519 13.4512 12.1875 15.1322 12.1875 16.875ZM57.5756 38.8256L38.8247 57.5756C38.4712 57.93 38.0006 58.125 37.5 58.125C36.9994 58.125 36.5287 57.93 36.1744 57.5756L2.42437 23.8256C2.07562 23.4759 1.875 22.9922 1.875 22.5V3.75C1.875 2.715 2.71594 1.875 3.75 1.875H21.3544C18.1237 3.53906 15.5091 6.21281 13.9106 9.48281C11.3259 9.99 9.375 12.2663 9.375 15C9.375 18.1059 11.8941 20.625 15 20.625C18.1059 20.625 20.625 18.1059 20.625 15C20.625 13.605 20.1141 12.33 19.2722 11.3475C20.9109 8.4525 23.7928 6.36375 27.195 5.79375L57.5756 36.1744C57.93 36.5287 58.125 36.9994 58.125 37.5C58.125 38.0006 57.93 38.4713 57.5756 38.8256Z" fill="#888888"/>
<path d="M46.9887 35.5106C45.8918 34.4137 44.1077 34.4128 43.0109 35.5097L35.5259 42.9947C34.4299 44.0906 34.3896 45.9159 35.4865 47.0128C36.5815 48.1097 38.4002 48.0759 39.4971 46.9791L46.9896 39.4884H46.9877C48.0846 38.3916 48.0846 36.6066 46.9887 35.5106ZM45.6621 38.1628L38.1996 45.6253C37.833 45.9919 37.1759 46.0537 36.8121 45.6872C36.4455 45.3206 36.4934 44.6803 36.8599 44.3137L44.3374 36.8362C44.704 36.4697 45.2965 36.4697 45.663 36.8362C46.0287 37.2019 46.0287 37.7962 45.6621 38.1628Z" fill="#888888"/>
<path d="M39.4897 31.9923C40.5866 30.8955 40.5866 29.1105 39.4906 28.0145C38.3937 26.9177 36.6097 26.9167 35.5128 28.0136L28.0278 35.4986C26.9319 36.5945 26.8916 38.4198 27.9884 39.5167C29.0834 40.6136 30.9022 40.5798 31.9991 39.483L39.4916 31.9923H39.4897ZM38.1641 30.6667L30.7016 38.1292C30.335 38.4958 29.6778 38.5577 29.3141 38.1911C28.9475 37.8245 28.9953 37.1842 29.3619 36.8177L36.8394 29.3402C37.2059 28.9736 37.7984 28.9736 38.165 29.3402C38.5306 29.7058 38.5306 30.3002 38.1641 30.6667Z" fill="#888888"/>
<path d="M31.9858 24.4884C33.0827 23.3916 33.0827 21.6066 31.9867 20.5106C30.8898 19.4138 29.1058 19.4128 28.0089 20.5097L20.5239 27.9947C19.428 29.0906 19.3877 30.9159 20.4845 32.0128C21.5795 33.1097 23.3983 33.0759 24.4952 31.9791L31.9877 24.4884H31.9858ZM30.6602 23.1628L23.1977 30.6253C22.8311 30.9919 22.1739 31.0537 21.8102 30.6872C21.4436 30.3206 21.4914 29.6803 21.858 29.3138L29.3355 21.8363C29.702 21.4697 30.2945 21.4697 30.6611 21.8363C31.0267 22.2019 31.0267 22.7962 30.6602 23.1628Z" fill="#888888"/>
</g>
<defs>
<clipPath id="clip0_508_2271">
<rect width="60" height="60" fill="white"/>
</clipPath>
</defs>
</svg>
