<svg width="60" height="60" viewBox="0 0 60 60" fill="none" xmlns="http://www.w3.org/2000/svg">
<g clip-path="url(#clip0_508_2213)">
<path d="M0.357381 44.5863H22.2234L21.2127 47.103C21.1677 47.2116 21.182 47.3388 21.2485 47.4367C21.3156 47.5368 21.4257 47.5954 21.5444 47.5954H38.6057C38.61 47.5954 38.615 47.5954 38.6207 47.5954C38.8166 47.5954 38.9781 47.4339 38.9781 47.238C38.9781 47.1558 38.9503 47.0794 38.9038 47.0179L37.9267 44.587H59.6433C59.8399 44.587 60.0007 44.4255 60.0007 44.2296C60.0007 44.0331 59.8399 43.8722 59.6433 43.8722H57.9358V30.0809H59.6433C59.8399 30.0809 60.0007 29.9201 60.0007 29.7235C60.0007 29.5262 59.8399 29.3661 59.6433 29.3661H38.0304V27.8666H39.5099C39.7065 27.8666 39.8673 27.7065 39.8673 27.5092C39.8673 27.3119 39.7065 27.1518 39.5099 27.1518H38.0118C37.8288 23.0505 34.533 19.754 30.4317 19.5703V17.3252C30.8227 17.1294 31.2373 17.0279 31.699 17.0279C32.3773 17.0279 33.0613 17.2252 33.7861 17.4346C34.5259 17.6483 35.2914 17.8692 36.0712 17.8692C36.7231 17.8692 37.3056 17.7162 37.8502 17.4003C37.9589 17.3367 38.0289 17.2187 38.0289 17.0908V13.6185C38.0289 13.4905 37.9589 13.3726 37.8502 13.309C37.7394 13.2454 37.6015 13.2454 37.4929 13.309C37.0583 13.5606 36.5908 13.6821 36.0712 13.6821C35.3929 13.6821 34.7089 13.4848 33.9841 13.2754C33.2443 13.0617 32.4795 12.8408 31.699 12.8408C31.2451 12.8408 30.8277 12.9202 30.4317 13.0717V12.7636C30.4317 12.5664 30.2709 12.4062 30.0743 12.4062C29.8771 12.4062 29.717 12.5664 29.717 12.7636V19.5703C25.6164 19.754 22.3184 23.0498 22.1362 27.1518H20.6895C20.4929 27.1518 20.3321 27.3119 20.3321 27.5092C20.3321 27.7065 20.4929 27.8666 20.6895 27.8666H22.119V29.3661H0.357381C0.160107 29.3661 0 29.5262 0 29.7235C0 29.7678 0.0107214 29.81 0.0250167 29.8507C0.0100067 29.8915 0 29.9315 0 29.978V43.9773C0 44.023 0.0107214 44.0638 0.0250167 44.1031C0.0100067 44.1453 0 44.1853 0 44.2318C0 44.4283 0.160107 44.5863 0.357381 44.5863ZM30.4574 13.8336C31.4181 13.3662 32.5824 13.6135 33.7875 13.963C34.5287 14.1767 35.2935 14.3976 36.074 14.3976C36.5165 14.3976 36.9253 14.3268 37.3149 14.1817V16.8771C36.3557 17.3445 35.1899 17.0972 33.9855 16.7477C33.2457 16.534 32.4802 16.3131 31.7004 16.3131C31.2566 16.3131 30.847 16.3839 30.4574 16.529V13.8336ZM37.3156 27.8673V29.3668H32.9184H27.5341H22.8345V27.8673H37.3156ZM23.1097 43.6192V30.3332H27.1753V43.6185L23.1097 43.6192ZM27.8907 43.6192V30.3332H32.561V43.6185L27.8907 43.6192ZM22.3949 30.3332V43.6185H0.714762V30.3332H22.3949ZM33.2758 43.6192V30.3332H37.0404V43.6185L33.2758 43.6192ZM37.7545 30.3332H57.2196V43.6185H37.7545V30.3332ZM22.0733 46.8778L22.9939 44.5863H27.5334H32.9184H37.1562L38.0768 46.8778H22.0733ZM30.0743 20.2672C33.9469 20.2672 37.1105 23.325 37.297 27.1518H22.8509C23.0396 23.3257 26.2025 20.2672 30.0743 20.2672Z" fill="#888888"/>
<path d="M40.0644 37.3342H44.4495C44.646 37.3342 44.8069 37.1734 44.8069 36.9768V32.5918C44.8069 32.3959 44.646 32.2344 44.4495 32.2344H40.0644C39.8686 32.2344 39.707 32.3959 39.707 32.5918V36.9768C39.707 37.1734 39.8664 37.3342 40.0644 37.3342ZM40.4218 32.9491H44.0921V36.6194H40.4218V32.9491Z" fill="#888888"/>
<path d="M45.7207 37.3342H50.1043C50.2994 37.3342 50.4617 37.1734 50.4617 36.9768V32.5918C50.4617 32.3959 50.2994 32.2344 50.1043 32.2344H45.7207C45.5234 32.2344 45.3633 32.3959 45.3633 32.5918V36.9768C45.3633 37.1734 45.5227 37.3342 45.7207 37.3342ZM46.078 32.9491H49.7469V36.6194H46.078V32.9491Z" fill="#888888"/>
<path d="M55.695 32.2344H51.3086C51.1134 32.2344 50.9512 32.3959 50.9512 32.5918V36.9768C50.9512 37.1734 51.1134 37.3342 51.3086 37.3342H55.695C55.8902 37.3342 56.0524 37.1734 56.0524 36.9768V32.5918C56.0524 32.3959 55.8923 32.2344 55.695 32.2344ZM55.3377 36.6194H51.6659V32.9491H55.3377V36.6194Z" fill="#888888"/>
<path d="M55.6941 39.8828H40.0644C39.8686 39.8828 39.707 40.0436 39.707 40.2402C39.707 40.436 39.8686 40.5976 40.0644 40.5976H55.6941C55.8892 40.5976 56.0515 40.436 56.0515 40.2402C56.0515 40.0436 55.8914 39.8828 55.6941 39.8828Z" fill="#888888"/>
<path d="M4.63668 37.3342H9.02031C9.21687 37.3342 9.3777 37.1734 9.3777 36.9768V32.5918C9.3777 32.3959 9.21687 32.2344 9.02031 32.2344H4.63668C4.44012 32.2344 4.2793 32.3959 4.2793 32.5918V36.9768C4.2793 37.1734 4.43869 37.3342 4.63668 37.3342ZM4.99406 32.9491H8.66293V36.6194H4.99406V32.9491Z" fill="#888888"/>
<path d="M10.291 37.3342H14.676C14.8726 37.3342 15.0334 37.1734 15.0334 36.9768V32.5918C15.0334 32.3959 14.8726 32.2344 14.676 32.2344H10.291C10.0951 32.2344 9.93359 32.3959 9.93359 32.5918V36.9768C9.93359 37.1734 10.093 37.3342 10.291 37.3342ZM10.6484 32.9491H14.3187V36.6194H10.6484V32.9491Z" fill="#888888"/>
<path d="M15.8808 37.3342H20.2645C20.4617 37.3342 20.6218 37.1734 20.6218 36.9768V32.5918C20.6218 32.3959 20.4617 32.2344 20.2645 32.2344H15.8808C15.6843 32.2344 15.5234 32.3959 15.5234 32.5918V36.9768C15.5234 37.1734 15.6843 37.3342 15.8808 37.3342ZM16.2382 32.9491H19.9071V36.6194H16.2382V32.9491Z" fill="#888888"/>
<path d="M4.63668 40.5976H20.265C20.4622 40.5976 20.6223 40.436 20.6223 40.2402C20.6223 40.0436 20.4622 39.8828 20.265 39.8828H4.63668C4.44012 39.8828 4.2793 40.0436 4.2793 40.2402C4.2793 40.4368 4.43869 40.5976 4.63668 40.5976Z" fill="#888888"/>
<path d="M36.1386 30.9258C35.9428 30.9258 35.7812 31.0873 35.7812 31.2832V37.5745C35.7812 37.7703 35.9428 37.9319 36.1386 37.9319C36.3366 37.9319 36.496 37.7703 36.496 37.5745V31.2832C36.496 31.0859 36.3366 30.9258 36.1386 30.9258Z" fill="#888888"/>
<path d="M36.1386 38.1211C35.9428 38.1211 35.7812 38.2812 35.7812 38.4785V39.6357C35.7812 39.8337 35.9428 39.9931 36.1386 39.9931C36.3366 39.9931 36.496 39.8337 36.496 39.6357V38.4785C36.496 38.2812 36.3366 38.1211 36.1386 38.1211Z" fill="#888888"/>
</g>
<defs>
<clipPath id="clip0_508_2213">
<rect width="60" height="60" fill="white"/>
</clipPath>
</defs>
</svg>
