<svg width="60" height="60" viewBox="0 0 60 60" fill="none" xmlns="http://www.w3.org/2000/svg">
<path d="M19.9249 5.60647L7.42489 55.6065C7.28994 56.1476 6.97795 56.628 6.53854 56.9713C6.09914 57.3147 5.55754 57.5013 4.99989 57.5015C4.79428 57.501 4.58948 57.4758 4.38989 57.4265C3.7473 57.2653 3.19495 56.8557 2.85417 56.2876C2.51338 55.7194 2.41204 55.0393 2.57239 54.3965L15.0724 4.39647C15.1455 4.07142 15.2829 3.76427 15.4765 3.49308C15.67 3.22188 15.9158 2.9921 16.1994 2.81725C16.483 2.6424 16.7987 2.526 17.1279 2.4749C17.4572 2.42379 17.7933 2.43901 18.1166 2.51966C18.4398 2.60031 18.7437 2.74477 19.0104 2.94453C19.277 3.1443 19.501 3.39535 19.6693 3.68293C19.8375 3.97051 19.9466 4.28882 19.99 4.61914C20.0335 4.94947 20.013 5.28516 19.9249 5.60647ZM44.9249 4.39647C44.8517 4.07142 44.7144 3.76427 44.5208 3.49308C44.3273 3.22188 44.0815 2.9921 43.7979 2.81725C43.5143 2.6424 43.1986 2.526 42.8693 2.4749C42.5401 2.42379 42.204 2.43901 41.8807 2.51966C41.5574 2.60031 41.2536 2.74477 40.9869 2.94453C40.7203 3.1443 40.4962 3.39535 40.328 3.68293C40.1598 3.97051 40.0507 4.28882 40.0072 4.61914C39.9638 4.94947 39.9868 5.28516 40.0749 5.60647L52.5749 55.6065C52.7098 56.1476 53.0218 56.628 53.4612 56.9713C53.9006 57.3147 54.4422 57.5013 54.9999 57.5015C55.2047 57.501 55.4086 57.4758 55.6074 57.4265C56.2504 57.2659 56.8034 56.8565 57.1447 56.2883C57.486 55.7201 57.5877 55.0396 57.4274 54.3965L44.9249 4.39647ZM29.9999 2.50147C29.3368 2.50147 28.701 2.76486 28.2321 3.2337C27.7633 3.70254 27.4999 4.33843 27.4999 5.00147V15.0015C27.4999 15.6645 27.7633 16.3004 28.2321 16.7692C28.701 17.2381 29.3368 17.5015 29.9999 17.5015C30.6629 17.5015 31.2988 17.2381 31.7677 16.7692C32.2365 16.3004 32.4999 15.6645 32.4999 15.0015V5.00147C32.4999 4.33843 32.2365 3.70254 31.7677 3.2337C31.2988 2.76486 30.6629 2.50147 29.9999 2.50147ZM29.9999 22.2815C29.3368 22.2815 28.701 22.5449 28.2321 23.0137C27.7633 23.4825 27.4999 24.1184 27.4999 24.7815V35.2215C27.4999 35.8845 27.7633 36.5204 28.2321 36.9892C28.701 37.4581 29.3368 37.7215 29.9999 37.7215C30.6629 37.7215 31.2988 37.4581 31.7677 36.9892C32.2365 36.5204 32.4999 35.8845 32.4999 35.2215V24.7815C32.4999 24.1184 32.2365 23.4825 31.7677 23.0137C31.2988 22.5449 30.6629 22.2815 29.9999 22.2815ZM29.9999 42.5015C29.3368 42.5015 28.701 42.7649 28.2321 43.2337C27.7633 43.7025 27.4999 44.3384 27.4999 45.0015V55.0015C27.4999 55.6645 27.7633 56.3004 28.2321 56.7692C28.701 57.2381 29.3368 57.5015 29.9999 57.5015C30.6629 57.5015 31.2988 57.2381 31.7677 56.7692C32.2365 56.3004 32.4999 55.6645 32.4999 55.0015V45.0015C32.4999 44.3384 32.2365 43.7025 31.7677 43.2337C31.2988 42.7649 30.6629 42.5015 29.9999 42.5015Z" fill="#888888"/>
</svg>
