<svg width="60" height="60" viewBox="0 0 60 60" fill="none" xmlns="http://www.w3.org/2000/svg">
<path d="M22.5 27.5C25.2614 27.5 27.5 25.2614 27.5 22.5C27.5 19.7386 25.2614 17.5 22.5 17.5C19.7386 17.5 17.5 19.7386 17.5 22.5C17.5 25.2614 19.7386 27.5 22.5 27.5Z" stroke="#888888" stroke-width="3.75"/>
<path d="M32.5 37.5C32.5 40.2615 32.5 42.5 22.5 42.5C12.5 42.5 12.5 40.2615 12.5 37.5C12.5 34.7385 16.9771 32.5 22.5 32.5C28.0228 32.5 32.5 34.7385 32.5 37.5Z" stroke="#888888" stroke-width="3.75"/>
<path opacity="0.5" d="M5 30C5 20.5719 5 15.8579 7.92893 12.9289C10.8579 10 15.5719 10 25 10H35C44.428 10 49.1422 10 52.071 12.9289C55 15.8579 55 20.5719 55 30C55 39.428 55 44.1422 52.071 47.071C49.1422 50 44.428 50 35 50H25C15.5719 50 10.8579 50 7.92893 47.071C5 44.1422 5 39.428 5 30Z" stroke="#888888" stroke-width="3.75"/>
<path d="M47.5 30H37.5" stroke="#888888" stroke-width="3.75" stroke-linecap="round"/>
<path d="M47.5 22.5H35" stroke="#888888" stroke-width="3.75" stroke-linecap="round"/>
<path opacity="0.9" d="M47.5 37.5H40" stroke="#888888" stroke-width="3.75" stroke-linecap="round"/>
</svg>
