<svg width="60" height="60" viewBox="0 0 60 60" fill="none" xmlns="http://www.w3.org/2000/svg">
<path fill-rule="evenodd" clip-rule="evenodd" d="M28.7422 2C13.9954 2 2 13.9988 2 28.7498C2 34.5998 3.88659 40.0252 7.09365 44.4288L10 48L14.0425 51.0813C18.2714 53.8805 23.318 55.5 28.7578 55.5C43.5046 55.5 55.5 43.5008 55.5 28.7502C55.5 13.9993 43.5046 2.00044 28.7578 2.00044L28.7422 2ZM21.2743 15.5877C20.7556 14.3454 20.3625 14.2984 19.5767 14.2664C19.3092 14.2509 19.011 14.2354 18.6805 14.2354C17.6582 14.2354 16.5893 14.5341 15.9446 15.1945C15.1588 15.9965 13.2092 17.8676 13.2092 21.7049C13.2092 25.5423 16.0076 29.2535 16.3848 29.7728C16.7779 30.2912 21.8405 38.28 29.701 41.5359C35.8481 44.0835 37.6721 43.8474 39.0711 43.5487C41.1148 43.1084 43.6776 41.5981 44.3223 39.7744C44.967 37.9498 44.967 36.3929 44.778 36.0627C44.5894 35.7325 44.0703 35.5443 43.2845 35.1506C42.4987 34.7574 38.678 32.8702 37.9548 32.6186C37.2471 32.3514 36.5713 32.4459 36.0371 33.2009C35.2824 34.2545 34.5436 35.3242 33.946 35.9686C33.4743 36.4719 32.7036 36.5349 32.0593 36.2673C31.1946 35.906 28.7738 35.0561 25.7863 32.3985C23.4751 30.3387 24.9662 24.613 16.7125 30.2434C16.2564 29.4574 21.4003 25.7624 21.7615 25.3381C22.1546 24.8503 13.3987 25.4047 13.7918 24.9485C14.185 24.4926 23.5381 23.3564 23.7897 22.8216C24.0572 22.3028 23.8682 21.768 23.6796 21.3747C23.491 20.9815 21.919 17.1442 21.2743 15.5877Z" fill="#0E1B3D"/>
<rect width="42" height="30" transform="translate(8 14)" fill="#0E1B3D"/>
<path d="M35.2837 32.523H30.1445V27.8979H41V30.1827C40.8425 33.0605 39.6946 35.7955 37.7507 37.9246C35.8068 40.0538 33.1863 41.4463 30.3328 41.8665C27.4793 42.2866 24.5683 41.7085 22.0924 40.23C19.6165 38.7516 17.728 36.4637 16.7465 33.7536C15.7651 31.0435 15.7509 28.0777 16.7066 25.3584C17.6622 22.6391 19.5289 20.3333 21.9906 18.8314C24.4523 17.3295 27.3577 16.7238 30.215 17.1168C33.0724 17.5098 35.706 18.8773 37.6701 20.9879L33.8962 24.4595C33.2075 23.7221 32.3739 23.1347 31.4476 22.7339C30.5213 22.3331 29.5223 22.1277 28.5129 22.1303C27.1798 22.1305 25.8715 22.4904 24.7261 23.1719C23.5807 23.8534 22.6407 24.8313 22.0053 26.0024C21.37 27.1735 21.0628 28.4942 21.1164 29.8252C21.1699 31.1563 21.582 32.4481 22.3093 33.5645C23.0367 34.6809 24.0521 35.5803 25.2485 36.1678C26.445 36.7553 27.7779 37.0091 29.1067 36.9025C30.4355 36.7958 31.7109 36.3326 32.7981 35.5617C33.8853 34.7909 34.744 33.741 35.2837 32.523Z" fill="#D9D9D9" stroke="black" stroke-width="1.5" stroke-linecap="round" stroke-linejoin="round"/>
</svg>
